<svg width="43" height="45" viewBox="0 0 43 45" fill="none"
  xmlns="http://www.w3.org/2000/svg">
  <g clip-path="url(#clip0_27_1076)">
    <g filter="url(#filter0_d_27_1076)">
      <path d="M21.4092 26.2057H18.0871C17.8978 26.2082 17.7151 26.1424 17.5784 26.0226C17.5152 25.9671 17.4666 25.8991 17.4365 25.8239C17.4064 25.7486 17.3955 25.668 17.4046 25.5883L17.6984 22.8401C17.727 22.5471 18.0242 22.3221 18.3798 22.3232H21.703C21.8973 22.3232 22.0802 22.3891 22.2117 22.5073C22.3409 22.6245 22.4049 22.7826 22.3854 22.9406L22.0916 25.6898C22.0631 25.9828 21.7658 26.2068 21.4092 26.2057ZM21.9419 20.8235H18.5581C18.4707 20.825 18.3839 20.8108 18.3025 20.7816C18.2211 20.7524 18.1469 20.7088 18.0839 20.6533C18.021 20.5978 17.9706 20.5315 17.9356 20.4582C17.9007 20.3848 17.8818 20.3059 17.8802 20.2259L18.8016 10.9382C18.8245 10.7898 18.906 10.6543 19.0307 10.5573C19.1555 10.4603 19.3147 10.4085 19.4783 10.4118H22.8621C23.236 10.4118 23.54 10.6797 23.54 11.0093L22.5912 20.3023C22.5677 20.4455 22.4896 20.5763 22.3708 20.6717C22.2519 20.7671 22.0999 20.8209 21.9419 20.8235ZM41.8422 9.99315L33.0764 0.659315C32.8821 0.452416 32.6412 0.28639 32.3703 0.172598C32.0994 0.0588058 31.8049 -6.53246e-05 31.5068 1.31291e-05H5.25386C4.74289 -0.00173088 4.24944 0.170331 3.86922 0.482818C3.48901 0.795305 3.24914 1.22594 3.19614 1.69118L0.0478485 34.4261C-0.00245107 34.9525 0.191888 35.4726 0.582853 35.8629C0.776898 36.0553 1.0124 36.2087 1.27448 36.3135C1.53657 36.4184 1.81955 36.4723 2.10556 36.472H7.26127L6.47705 45L16.6158 36.4783H28.1322C28.6695 36.4783 29.1862 36.2899 29.5726 35.9477L40.3893 26.3669C40.7459 26.0508 40.9654 25.6291 41.0077 25.177L42.3304 11.3798C42.354 11.1305 42.323 10.8795 42.2392 10.6414C42.1554 10.4032 42.0204 10.1828 41.8422 9.99315ZM33.8252 22.545C33.784 22.9988 33.5642 23.4235 33.2067 23.7401L26.9444 29.1789C26.5589 29.5132 26.0477 29.6991 25.5166 29.6979H10.1981C9.91317 29.6947 9.63197 29.6383 9.37171 29.5322C9.11145 29.426 8.87761 29.2723 8.68452 29.0805C8.49181 28.8892 8.34408 28.6637 8.25048 28.4179C8.15688 28.1722 8.1194 27.9115 8.14037 27.652L9.99459 8.48722C10.0476 8.02198 10.2875 7.59135 10.6677 7.27886C11.0479 6.96638 11.5413 6.79432 12.0523 6.79606H27.6315C28.2282 6.79606 28.7975 7.03257 29.1885 7.4449L34.1338 12.6523C34.5065 13.027 34.6985 13.523 34.6654 14.0275L33.8252 22.545Z" fill="url(#paint0_linear_27_1076)"/>
    </g>
  </g>
  <defs>
    <filter id="filter0_d_27_1076" x="-3.95996" y="0" width="50.2979" height="53" filterUnits="userSpaceOnUse" color-interpolation-filters="sRGB">
      <feFlood flood-opacity="0" result="BackgroundImageFix"/>
      <feColorMatrix in="SourceAlpha" type="matrix" values="0 0 0 0 0 0 0 0 0 0 0 0 0 0 0 0 0 0 127 0" result="hardAlpha"/>
      <feOffset dy="4"/>
      <feGaussianBlur stdDeviation="2"/>
      <feComposite in2="hardAlpha" operator="out"/>
      <feColorMatrix type="matrix" values="0 0 0 0 0 0 0 0 0 0 0 0 0 0 0 0 0 0 0.25 0"/>
      <feBlend mode="normal" in2="BackgroundImageFix" result="effect1_dropShadow_27_1076"/>
      <feBlend mode="normal" in="SourceGraphic" in2="effect1_dropShadow_27_1076" result="shape"/>
    </filter>
    <linearGradient id="paint0_linear_27_1076" x1="3651.54" y1="515.835" x2="128.474" y2="4283.51" gradientUnits="userSpaceOnUse">
      <stop stop-color="#F59C07"/>
      <stop offset="1" stop-color="#F57507"/>
    </linearGradient>
    <clipPath id="clip0_27_1076">
      <rect width="42.2974" height="45" fill="white" transform="translate(0.0410156)"/>
    </clipPath>
  </defs>
</svg>
