<svg width="27" height="29" viewBox="0 0 27 29" fill="none"
  xmlns="http://www.w3.org/2000/svg">
  <path d="M24.9006 22.0274C24.9142 21.9855 24.9235 21.9413 24.9235 21.8947V6.54195C24.9235 6.49513 24.9142 6.45063 24.9004 6.40844C24.8983 6.40266 24.8972 6.39688 24.8949 6.3911C24.8764 6.34168 24.8492 6.29718 24.8151 6.25817C24.8128 6.25557 24.8125 6.25239 24.8102 6.24979C24.8087 6.24834 24.807 6.24777 24.8056 6.24632C24.7692 6.2076 24.7261 6.17639 24.6778 6.15298C24.6741 6.15125 24.6712 6.14893 24.6674 6.1472C24.6218 6.12668 24.5721 6.11512 24.5198 6.11165C24.5146 6.11137 24.5097 6.11021 24.5045 6.11021C24.4995 6.10992 24.4952 6.10876 24.4903 6.10876H0.445962C0.441049 6.10876 0.436425 6.10992 0.431513 6.11021C0.426889 6.1105 0.422265 6.11137 0.417642 6.11165C0.364759 6.11512 0.314188 6.12697 0.267952 6.14778C0.265062 6.14893 0.26275 6.15096 0.25986 6.15211C0.210734 6.17552 0.167099 6.20731 0.130399 6.24661C0.128954 6.24805 0.12722 6.24834 0.125775 6.24979C0.123463 6.2521 0.123174 6.25528 0.120862 6.25788C0.0867631 6.29689 0.0593103 6.34168 0.0408158 6.3911C0.0385039 6.39688 0.037348 6.40266 0.0353252 6.40873C0.0214543 6.45092 0.012207 6.49542 0.012207 6.54224V21.8953C0.012207 21.9427 0.0217432 21.9878 0.0359031 22.0306C0.0379259 22.0363 0.0390819 22.0418 0.0411047 22.0476C0.0598882 22.0973 0.0876299 22.1421 0.122018 22.1811C0.124041 22.1834 0.124619 22.1863 0.126642 22.1886C0.128376 22.1907 0.130688 22.1918 0.13271 22.1938C0.14687 22.2086 0.162475 22.2216 0.178658 22.2343C0.185882 22.2398 0.19224 22.2464 0.199753 22.2516C0.218826 22.2649 0.239343 22.2756 0.260438 22.2854C0.26564 22.2878 0.270263 22.2915 0.275465 22.2935C0.32777 22.3158 0.385276 22.3285 0.445672 22.3285H24.4897C24.5501 22.3285 24.6076 22.3161 24.6599 22.2935C24.668 22.2901 24.6755 22.2849 24.6833 22.2808C24.7012 22.2719 24.7192 22.2626 24.7356 22.2513C24.7443 22.2453 24.7521 22.2375 24.7605 22.2308C24.7752 22.219 24.7897 22.2071 24.8024 22.1935C24.8047 22.1912 24.8073 22.1895 24.8096 22.1872C24.8119 22.1846 24.8125 22.1811 24.8148 22.1785C24.8486 22.1398 24.8758 22.0953 24.8943 22.0462C24.8972 22.0398 24.8986 22.0337 24.9006 22.0274ZM0.879427 7.52507L8.17523 14.1893L0.879427 20.9067V7.52507ZM15.8328 13.8628C15.8028 13.8824 15.771 13.8989 15.7458 13.9266C15.7363 13.937 15.7331 13.9506 15.7248 13.9616L12.468 16.9364L1.56315 6.97542H23.3728L15.8328 13.8628ZM8.81792 14.7762L12.1755 17.8432C12.2585 17.9189 12.3631 17.9568 12.468 17.9568C12.5729 17.9568 12.6775 17.9189 12.7601 17.8432L16.0762 14.8144L23.3708 21.4616H1.55679L8.81792 14.7762ZM16.7191 14.2272L24.0565 7.52507V20.9136L16.7191 14.2272Z" fill="black"/>
</svg>
