<svg width="24" height="24" viewBox="0 0 24 24" fill="none"
  xmlns="http://www.w3.org/2000/svg">
  <g clip-path="url(#clip0_31_1925)">
    <path d="M14.5044 16.9209C14.5044 16.9209 16.4479 15.8083 16.9567 15.5409C17.4641 15.2726 17.9897 15.2049 18.3089 15.3998C18.7922 15.6955 22.8511 18.3955 23.1929 18.6345C23.5346 18.8741 23.6993 19.5581 23.2293 20.2281C22.7613 20.8982 20.6023 23.5478 19.6874 23.5195C18.7711 23.4897 14.9613 23.4062 7.77718 16.2201C0.594461 9.03647 0.509501 5.22575 0.480221 4.30943C0.450941 3.39359 3.10054 1.23407 3.77062 0.765588C4.44166 0.297588 5.12662 0.473748 5.3647 0.803028C5.63542 1.17791 8.30422 5.22383 8.59798 5.68751C8.7991 6.00431 8.72518 6.53279 8.45686 7.04063C8.18998 7.54943 7.07734 9.49295 7.07734 9.49295C7.07734 9.49295 7.86166 10.8307 10.5141 13.4827C13.1671 16.1352 14.5044 16.9209 14.5044 16.9209Z" stroke="black" stroke-width="2" stroke-miterlimit="10"/>
  </g>
  <defs>
    <clipPath id="clip0_31_1925">
      <rect width="24" height="24" fill="white"/>
    </clipPath>
  </defs>
</svg>
