<svg width="94" height="43" viewBox="0 0 94 43" fill="none"
  xmlns="http://www.w3.org/2000/svg">
  <g clip-path="url(#clip0_27_1053)">
    <g filter="url(#filter0_d_27_1053)">
      <path d="M82.4703 12.2744V22.7872H78.3827V15.4127H74.4469V22.7872H70.3594V12.2737H82.4703V12.2744Z" fill="black"/>
    </g>
    <g filter="url(#filter1_d_27_1053)">
      <path fill-rule="evenodd" clip-rule="evenodd" d="M61.9643 23.1626C65.6238 23.1626 68.3411 21.1022 68.3411 17.979C68.3411 14.9557 66.3363 12.9928 62.9858 12.9928C61.4395 12.9928 60.1636 13.4926 59.2026 14.3551C59.432 12.5724 61.0735 11.271 62.8808 11.271C63.2979 11.271 66.4381 11.2649 66.4381 11.2649L68.2135 8.1438C68.2135 8.1438 64.2715 8.22622 62.4388 8.22622C58.2513 8.29358 55.4229 11.7891 55.4229 16.0343C55.4229 20.9807 58.1815 23.163 61.9647 23.163L61.9643 23.1626ZM61.9869 15.7569C63.3455 15.7569 64.2874 16.5768 64.2874 17.9786C64.2874 19.2399 63.4505 20.2798 61.9869 20.2827C60.5869 20.2827 59.645 19.3195 59.645 18.0001C59.645 16.598 60.5869 15.7569 61.9869 15.7569Z" fill="black"/>
    </g>
    <g filter="url(#filter2_d_27_1053)">
      <path d="M52.0954 19.2676C52.0954 19.2676 51.1301 19.7786 49.6879 19.8754C48.0308 19.9205 46.554 18.9591 46.554 17.2509C46.554 15.5847 47.8572 14.6297 49.6466 14.6297C50.7438 14.6297 52.1953 15.3281 52.1953 15.3281C52.1953 15.3281 53.2573 13.5382 53.8075 12.6431C52.8001 11.9419 51.4582 11.5574 49.8975 11.5574C45.9586 11.5574 42.9077 13.9159 42.9077 17.2298C42.9077 20.5859 45.7752 22.8897 49.8975 22.8198C51.0497 22.7804 52.6393 22.4091 53.6081 21.8376L52.0954 19.2676Z" fill="black"/>
    </g>
    <g filter="url(#filter3_d_27_1053)">
      <path d="M1.83301 9.35962L7.50316 18.6673V24.3448L1.83964 33.6342L1.83301 9.35962Z" fill="#5B57A2"/>
    </g>
    <g filter="url(#filter4_d_27_1053)">
      <path d="M23.604 15.2804L28.9171 12.2897L39.7908 12.2804L23.604 21.3871V15.2804Z" fill="#D90751"/>
    </g>
    <g filter="url(#filter5_d_27_1053)">
      <path d="M23.5738 9.30484L23.6038 21.6279L17.9204 18.4208V0L23.5738 9.30484Z" fill="#FAB718"/>
    </g>
    <g filter="url(#filter6_d_27_1053)">
      <path d="M39.7906 12.2804L28.9166 12.2898L23.5738 9.30484L17.9204 0L39.7906 12.2804Z" fill="#ED6F26"/>
    </g>
    <g filter="url(#filter7_d_27_1053)">
      <path d="M23.6038 33.6859V27.7071L17.9204 24.5609L17.9235 43L23.6038 33.6859Z" fill="#63B22F"/>
    </g>
    <g filter="url(#filter8_d_27_1053)">
      <path d="M17.9238 43L23.6034 33.6858L28.9032 30.7224L39.7671 30.7102L17.9238 43Z" fill="#017F36"/>
    </g>
    <g filter="url(#filter9_d_27_1053)">
      <path d="M1.83936 33.6343L17.9668 24.5613L12.5448 21.5061L7.50288 24.3448L1.83936 33.6343Z" fill="#984995"/>
    </g>
    <g filter="url(#filter10_d_27_1053)">
      <path d="M46.5555 29.8624C46.4306 30.0086 46.2663 30.119 46.0693 30.1935C45.8671 30.2691 45.6508 30.3076 45.4325 30.3068C45.2154 30.3095 44.9996 30.2762 44.7953 30.2086C44.6119 30.1474 44.4443 30.052 44.3029 29.9284C44.1634 29.8045 44.0539 29.6551 43.9814 29.4898C43.903 29.3086 43.8639 29.115 43.8663 28.92C43.8663 28.7265 43.9026 28.5473 43.9779 28.3779C44.0468 28.2138 44.1518 28.0645 44.2862 27.9393C44.4201 27.8149 44.5784 27.7148 44.7528 27.6443C44.9335 27.5727 45.1305 27.534 45.3471 27.534C45.5804 27.534 45.797 27.5609 45.994 27.6142C46.191 27.668 46.3584 27.7576 46.4962 27.883L46.2566 28.2557C46.1407 28.1592 46.0042 28.086 45.8559 28.0407C45.7147 27.9989 45.5672 27.9778 45.4189 27.9783C45.2882 27.9783 45.1633 28.002 45.0419 28.0464C44.9223 28.0907 44.8131 28.1557 44.72 28.2377C44.6249 28.322 44.55 28.4235 44.5 28.5359C44.4434 28.6582 44.4155 28.79 44.418 28.9229C44.418 29.0694 44.4473 29.2006 44.5031 29.3135C44.5593 29.4303 44.6346 29.5285 44.7294 29.612C44.825 29.6958 44.9362 29.7582 45.0646 29.8001C45.1948 29.8447 45.3329 29.867 45.4719 29.8657C45.6491 29.8657 45.8102 29.8327 45.948 29.77C46.0844 29.7094 46.2071 29.6255 46.3093 29.5227L46.5555 29.8624ZM47.2317 30.2441V27.5906H47.7506V29.5675L49.4382 27.5906H49.9571V30.2444H49.4382V28.2675L47.7506 30.2444L47.2317 30.2441ZM53.3946 29.8624C53.267 30.0099 53.0995 30.124 52.9088 30.1935C52.7065 30.2691 52.4901 30.3075 52.2717 30.3068C52.0547 30.3094 51.839 30.2762 51.6349 30.2086C51.4513 30.1474 51.2835 30.052 51.1421 29.9284C51.0026 29.8045 50.893 29.6551 50.8206 29.4898C50.7421 29.3086 50.703 29.115 50.7055 28.92C50.7055 28.7265 50.7418 28.5473 50.8171 28.3779C50.8896 28.2076 50.9946 28.0618 51.1253 27.9393C51.2593 27.8149 51.4176 27.7148 51.592 27.6443C51.7791 27.5687 51.9818 27.531 52.1862 27.534C52.4196 27.534 52.6361 27.5609 52.8331 27.6142C53.0302 27.668 53.1976 27.7576 53.3357 27.883L53.0957 28.2557C52.9801 28.1592 52.8437 28.0859 52.6954 28.0407C52.5542 27.9989 52.4067 27.9779 52.2584 27.9783C51.9977 27.9792 51.7474 28.0721 51.5592 28.2377C51.4649 28.3226 51.3901 28.424 51.3391 28.5359C51.2825 28.6582 51.2546 28.79 51.2572 28.9229C51.2572 29.0694 51.2868 29.2006 51.3426 29.3135C51.3984 29.4303 51.4737 29.5285 51.5689 29.612C51.6642 29.6958 51.7757 29.7582 51.9041 29.8001C52.0321 29.8416 52.1667 29.8657 52.3111 29.8657C52.4886 29.8657 52.6462 29.8327 52.7871 29.77C52.9236 29.7094 53.0462 29.6255 53.1484 29.5227L53.3946 29.8624ZM53.6607 27.5906H56.3233V28.0618H55.2531V30.2441H54.7341V28.0618H53.6638V27.5906H53.6607Z" fill="black"/>
      <path fill-rule="evenodd" clip-rule="evenodd" d="M58.7467 30.2176C58.9437 30.161 59.1111 30.0742 59.2555 29.9553L59.0978 29.5855C59.0026 29.6632 58.8747 29.7288 58.7205 29.7826C58.566 29.8363 58.392 29.8628 58.2016 29.8628C57.916 29.8628 57.6795 29.7944 57.4922 29.6543C57.3049 29.5138 57.2035 29.3174 57.1801 29.0666H59.4264C59.4502 28.9618 59.4612 28.8548 59.4592 28.7477C59.4616 28.5775 59.4246 28.4089 59.3507 28.2528C59.2835 28.1081 59.1853 27.9772 59.0619 27.868C58.9369 27.7598 58.7895 27.6757 58.6285 27.6207C58.4599 27.5607 58.2805 27.5303 58.0997 27.5311C57.8567 27.5311 57.6432 27.5698 57.4559 27.6415C57.2794 27.7098 57.1197 27.8103 56.9866 27.9368C56.8572 28.0627 56.7578 28.2119 56.6947 28.375C56.6253 28.5487 56.5908 28.7325 56.5929 28.9175C56.5929 29.1264 56.6319 29.3171 56.7045 29.4873C56.7747 29.6522 56.8821 29.8015 57.0197 29.9255C57.1543 30.0474 57.3182 30.1402 57.5121 30.2057C57.7198 30.2734 57.9388 30.3066 58.1591 30.3039C58.3585 30.3028 58.5567 30.2734 58.7467 30.2176ZM57.4333 28.1751C57.5941 28.0411 57.8075 27.9755 58.0767 27.9755C58.3296 27.9755 58.5332 28.0382 58.6811 28.1636C58.829 28.2887 58.9074 28.4617 58.9207 28.6821H57.1477C57.1728 28.487 57.2743 28.3066 57.4333 28.1751Z" fill="black"/>
      <path d="M60.165 27.5906H60.6379L61.7609 28.9057L62.8245 27.5906H63.2842V30.2444H62.7652V28.3094L61.7543 29.5406H61.7344L60.684 28.309V30.244H60.165V27.5906Z" fill="black"/>
      <path fill-rule="evenodd" clip-rule="evenodd" d="M64.6957 27.5996C64.5384 27.6374 64.388 27.6966 64.2497 27.7752L64.3875 28.1514C64.5057 28.0977 64.6239 28.0529 64.7421 28.0142C64.8604 27.9748 65.0114 27.9569 65.192 27.9569C65.3364 27.9569 65.4515 27.9784 65.5401 28.0199C65.6286 28.0586 65.6942 28.1185 65.7402 28.1901C65.7863 28.2618 65.8159 28.351 65.8323 28.4553C65.8487 28.5596 65.8553 28.6728 65.8553 28.7954C65.749 28.7274 65.6279 28.6815 65.5003 28.661C65.3771 28.6385 65.252 28.6265 65.1265 28.6251C64.972 28.6251 64.8276 28.6463 64.6895 28.6818C64.5517 28.7176 64.4335 28.7713 64.3383 28.843C64.241 28.9145 64.1623 29.0051 64.1081 29.1082C64.0504 29.221 64.0213 29.3444 64.023 29.469C64.023 29.7285 64.105 29.9313 64.2688 30.0746C64.4335 30.2176 64.65 30.2889 64.9193 30.2889C65.1624 30.2889 65.3563 30.2502 65.5038 30.1728C65.6516 30.095 65.7699 30.0058 65.8549 29.904V30.2473H66.3411V28.6194C66.3411 28.2733 66.2592 28.0052 66.0914 27.8167C65.9275 27.6293 65.6349 27.5337 65.2213 27.5337C65.0375 27.5337 64.8631 27.5577 64.6957 27.5996ZM65.5635 29.7496C65.4452 29.827 65.2903 29.8625 65.1003 29.8625C64.9325 29.8625 64.8014 29.8238 64.7097 29.7492C64.6177 29.6718 64.5716 29.5701 64.5716 29.4447C64.5716 29.3708 64.588 29.3081 64.6243 29.2511C64.6606 29.1942 64.7097 29.1501 64.7655 29.1143C64.8266 29.0768 64.8943 29.0495 64.9657 29.0336C65.0414 29.0157 65.1167 29.0068 65.1955 29.0068C65.4519 29.0068 65.6716 29.0634 65.8522 29.1824V29.5192C65.7671 29.6069 65.6701 29.6846 65.5635 29.7496ZM70.9219 26.6572C71.0268 26.6127 71.1248 26.5382 71.2172 26.4278L70.9347 26.0552C70.8626 26.1448 70.7806 26.2071 70.6885 26.2401C70.5909 26.2751 70.4898 26.301 70.3865 26.3175L70.2882 26.3336C70.2024 26.3472 70.1111 26.3623 70.0123 26.3773C69.854 26.4042 69.6997 26.4482 69.5527 26.5085C69.3194 26.6009 69.1325 26.726 68.9908 26.884C68.8492 27.042 68.7384 27.2208 68.6627 27.4179C68.586 27.6176 68.5343 27.8246 68.5086 28.035C68.482 28.25 68.4692 28.4553 68.4692 28.652C68.4692 28.9057 68.5051 29.135 68.5773 29.3407C68.6498 29.5468 68.7513 29.7195 68.8855 29.8596C69.0205 30.0029 69.1816 30.1104 69.3721 30.1878C69.5625 30.2652 69.7759 30.3039 70.0155 30.3039C70.2355 30.3039 70.4392 30.2652 70.623 30.1936C70.8002 30.1247 70.9608 30.0245 71.0959 29.8987C71.227 29.7761 71.3323 29.6299 71.4041 29.4662C71.4795 29.2999 71.5176 29.1213 71.5161 28.9412C71.5161 28.7416 71.4833 28.5599 71.4209 28.3987C71.3634 28.2449 71.2717 28.1039 71.1517 27.9844C71.0314 27.867 70.8845 27.7752 70.7213 27.7157C70.5416 27.6507 70.3499 27.6183 70.1567 27.6204C70.0319 27.6204 69.9105 27.6354 69.7923 27.6652C69.6773 27.6949 69.5669 27.738 69.4638 27.7935C69.3637 27.8461 69.272 27.9112 69.1914 27.987C69.1126 28.0618 69.047 28.1453 69.001 28.2407H68.9877C68.9974 28.1145 69.016 27.989 69.0435 27.8651C69.0732 27.7368 69.1157 27.6143 69.1719 27.4982C69.2277 27.3821 69.2999 27.2775 69.3884 27.1821C69.4834 27.0859 69.5999 27.0097 69.7299 26.9585C69.8728 26.896 70.024 26.851 70.1797 26.8245L70.2827 26.8073C70.3854 26.7901 70.4833 26.7736 70.5769 26.7557C70.7018 26.7321 70.8165 26.7016 70.9219 26.6572ZM69.0958 29.2067C69.0452 29.0562 69.0209 28.8992 69.024 28.7416C69.046 28.6512 69.0861 28.5653 69.1422 28.4883C69.2 28.4063 69.2721 28.3337 69.3557 28.2733C69.5485 28.1345 69.7869 28.06 70.0319 28.0618C70.3374 28.0618 70.5672 28.1478 70.7279 28.3184C70.8891 28.4911 70.9679 28.7054 70.9679 28.9652C70.9679 29.0935 70.9414 29.2099 70.8957 29.3171C70.8513 29.4228 70.7842 29.5192 70.6984 29.6007C70.6126 29.6821 70.5099 29.7469 70.3963 29.7912C70.2785 29.8388 70.1501 29.8628 70.0057 29.8628C69.8613 29.8628 69.7299 29.836 69.6085 29.7822C69.4879 29.7295 69.3814 29.6532 69.2964 29.5586C69.2074 29.4532 69.1396 29.334 69.0962 29.2067H69.0958ZM75.4956 27.5906H74.9767V30.2445H75.4956V27.5906ZM72.2645 27.5906H72.7834V28.3869H73.263C73.4893 28.3869 73.6727 28.4137 73.8209 28.4643C73.9688 28.5151 74.087 28.5836 74.1756 28.6671C74.2642 28.7506 74.3266 28.8491 74.3629 28.9591C74.3988 29.0695 74.4187 29.1827 74.4187 29.302C74.4187 29.4214 74.3988 29.535 74.3563 29.6482C74.3169 29.7614 74.2478 29.8596 74.1557 29.9492C74.064 30.0388 73.9392 30.1104 73.7811 30.1642C73.6239 30.2176 73.4335 30.2473 73.2037 30.2473H72.2614V27.5906H72.2645ZM72.7834 28.8305V29.803H73.1611C73.4206 29.803 73.6044 29.7614 73.7093 29.6776C73.8147 29.5941 73.867 29.4751 73.867 29.3171C73.867 29.1558 73.8112 29.034 73.7062 28.9502C73.5978 28.8667 73.4171 28.8247 73.1678 28.8247H72.7834V28.8305Z" fill="black"/>
      <path d="M78.9266 29.8624C78.8017 30.0086 78.6374 30.119 78.4404 30.1935C78.2382 30.2691 78.0219 30.3075 77.8036 30.3068C77.5865 30.3095 77.3707 30.2762 77.1664 30.2086C76.983 30.1475 76.8153 30.0521 76.674 29.9284C76.5345 29.8045 76.4248 29.655 76.3521 29.4898C76.274 29.3085 76.235 29.115 76.2374 28.92C76.2374 28.7265 76.2733 28.5473 76.349 28.3779C76.4179 28.2138 76.5229 28.0645 76.6572 27.9393C76.7891 27.8138 76.946 27.7189 77.1239 27.6443C77.311 27.5686 77.5137 27.531 77.7182 27.534C77.9511 27.534 78.168 27.5609 78.3651 27.6142C78.5621 27.668 78.7295 27.7576 78.8673 27.883L78.6277 28.2557C78.5118 28.1592 78.3753 28.086 78.227 28.0407C78.0858 27.9989 77.9383 27.9778 77.79 27.9783C77.6592 27.9783 77.5344 28.002 77.4126 28.0464C77.2932 28.0907 77.184 28.1557 77.0911 28.2377C76.9967 28.3225 76.9219 28.4239 76.8711 28.5359C76.8145 28.6582 76.7865 28.79 76.7891 28.9229C76.7891 29.0694 76.8184 29.2006 76.8742 29.3135C76.93 29.4303 77.0057 29.5285 77.1005 29.612C77.1961 29.6958 77.3073 29.7582 77.4357 29.8001C77.564 29.8416 77.6987 29.8657 77.843 29.8657C78.0076 29.8676 78.1704 29.8349 78.319 29.77C78.4555 29.7094 78.5782 29.6255 78.6804 29.5227L78.9266 29.8624ZM79.1919 27.5906H81.8553V28.0618H80.7846V30.2441H80.2657V28.0618H79.1958V27.5906H79.1919Z" fill="black"/>
      <path fill-rule="evenodd" clip-rule="evenodd" d="M82.9389 27.591H82.4199V31.4252H82.9389V30.1223C83.0438 30.185 83.1687 30.2298 83.3131 30.2596C83.4574 30.2893 83.6084 30.304 83.7629 30.304C83.9928 30.304 84.1996 30.2653 84.3868 30.194C84.5665 30.1234 84.7293 30.0211 84.866 29.893C85.0017 29.7629 85.1066 29.6084 85.1742 29.4393C85.2468 29.2637 85.2831 29.0756 85.2831 28.876C85.2831 28.6789 85.2503 28.4973 85.1879 28.3332C85.1291 28.1773 85.0376 28.0335 84.9187 27.91C84.8019 27.7894 84.6571 27.6946 84.4949 27.6326C84.3176 27.5626 84.1261 27.5281 83.9331 27.5312C83.7302 27.5312 83.5397 27.567 83.3591 27.6387C83.1784 27.7104 83.0372 27.7964 82.9389 27.9039V27.591ZM83.3002 28.083C83.4481 28.0114 83.6084 27.9755 83.7828 27.9755C83.9338 27.9755 84.0685 27.9963 84.1902 28.0411C84.3084 28.0859 84.4067 28.1486 84.4891 28.2321C84.571 28.3156 84.6334 28.4113 84.6725 28.5241C84.7154 28.6374 84.7349 28.7599 84.7349 28.8939C84.7349 29.0373 84.7087 29.1652 84.6631 29.2845C84.6201 29.3977 84.5517 29.5013 84.4625 29.5888C84.3729 29.6752 84.2644 29.7432 84.1441 29.7883C84.0101 29.8399 83.8658 29.8653 83.7204 29.8629C83.5796 29.8629 83.4481 29.8482 83.3232 29.8184C83.1865 29.7843 83.0568 29.7298 82.9393 29.6572V28.3421C83.031 28.2411 83.1527 28.1547 83.3002 28.083ZM89.2622 27.5907H88.7433V30.2445H89.2622V27.5907ZM86.0283 27.5907H86.5473V28.3869H87.0264C87.2527 28.3869 87.4369 28.4138 87.5844 28.4643C87.7327 28.5152 87.8509 28.5836 87.9395 28.6671C88.028 28.7506 88.0905 28.8492 88.1264 28.9592C88.1627 29.0695 88.1822 29.1828 88.1822 29.3021C88.1822 29.4214 88.1627 29.535 88.1197 29.6482C88.0807 29.7615 88.0117 29.8597 87.9196 29.9492C87.8279 30.0388 87.703 30.1105 87.545 30.1642C87.3878 30.2176 87.1973 30.2474 86.9675 30.2474H86.0252V27.5907H86.0283ZM86.5508 28.8305V29.803H86.9285C87.1876 29.803 87.3718 29.7615 87.4767 29.6776C87.5817 29.5941 87.6343 29.4752 87.6343 29.3171C87.6343 29.1559 87.5786 29.0341 87.4736 28.9502C87.3651 28.8667 87.1845 28.8248 86.9351 28.8248H86.5508V28.8305Z" fill="black"/>
      <path d="M91.7515 28.8698L92.8612 30.2444H92.2244L91.3672 29.1708L90.4971 30.2444H89.893L90.9961 28.8935L89.9582 27.5906H90.5958L91.3871 28.5925L92.1908 27.5906H92.7956L91.7515 28.8698ZM46.1713 33.5242H44.579V35.7366H44.0601V33.0831H46.6899V35.7366H46.171L46.1713 33.5242ZM49.635 33.554H48.6108L48.5776 34.0012C48.5417 34.3799 48.4926 34.6841 48.4235 34.9163C48.3544 35.1493 48.269 35.3281 48.1707 35.4531C48.0723 35.5785 47.9572 35.6645 47.8257 35.7068C47.6901 35.752 47.5466 35.7742 47.4024 35.7724L47.363 35.313C47.4299 35.3144 47.4963 35.3012 47.5565 35.2743C47.6291 35.2446 47.7009 35.179 47.7699 35.0808C47.839 34.9791 47.9014 34.8361 47.9572 34.6508C48.013 34.4634 48.0493 34.219 48.0688 33.9116L48.1215 33.0856H50.154V35.7394H49.635V33.554Z" fill="black"/>
      <path fill-rule="evenodd" clip-rule="evenodd" d="M51.553 33.0893C51.3853 33.1308 51.2343 33.1903 51.1063 33.2648L51.2444 33.6407C51.3626 33.587 51.4808 33.5422 51.5987 33.5035C51.7169 33.4648 51.8679 33.4469 52.0486 33.4469C52.1929 33.4469 52.308 33.4677 52.3966 33.5092C52.4856 33.5483 52.5511 33.6078 52.5972 33.6794C52.6428 33.7511 52.6725 33.8407 52.6889 33.9446C52.7052 34.0492 52.7119 34.1625 52.7119 34.2847C52.6056 34.2168 52.4844 34.171 52.3568 34.1506C52.2337 34.1281 52.1086 34.1161 51.983 34.1148C51.8289 34.1148 51.6841 34.1356 51.546 34.1714C51.4083 34.2073 51.29 34.261 51.1948 34.3327C51.0975 34.4042 51.0189 34.4948 50.9646 34.5978C50.9071 34.7107 50.8781 34.8341 50.88 34.9587C50.88 35.2178 50.9619 35.4209 51.1258 35.5639C51.2897 35.7069 51.507 35.7785 51.7762 35.7785C52.0193 35.7785 52.2128 35.7399 52.3607 35.6621C52.5082 35.5847 52.626 35.4951 52.7119 35.3933V35.7366H53.1981V34.1087C53.1981 33.7629 53.1157 33.4945 52.9483 33.3068C52.7841 33.1186 52.4918 33.0237 52.0782 33.0237C51.9008 33.0238 51.7241 33.0461 51.553 33.0893ZM52.4231 35.2385C52.3053 35.3163 52.1508 35.3521 51.9604 35.3521C51.7895 35.3521 51.6615 35.3134 51.5698 35.2385C51.4777 35.1611 51.4317 35.0594 51.4317 34.9347C51.4317 34.8601 51.4481 34.7974 51.4844 34.7408C51.5203 34.6842 51.5698 34.6394 51.6256 34.6036C51.6814 34.5677 51.7501 34.5409 51.8258 34.523C51.9008 34.5051 51.9781 34.4962 52.0556 34.4964C52.3115 34.4964 52.5316 34.5531 52.7123 34.672V35.0088C52.627 35.0963 52.5298 35.1738 52.4231 35.2385Z" fill="black"/>
      <path d="M53.7065 33.0831H56.3695V33.554H55.2989V35.7362H54.7799V33.554H53.7101V33.0831H53.7065Z" fill="black"/>
      <path fill-rule="evenodd" clip-rule="evenodd" d="M58.793 35.7098C58.99 35.6532 59.1574 35.5665 59.3018 35.4475L59.1441 35.0777C59.0489 35.1555 58.9209 35.221 58.7664 35.2748C58.6123 35.3285 58.4383 35.355 58.2475 35.355C57.9623 35.355 57.7258 35.2866 57.5385 35.1465C57.3512 35.0064 57.2498 34.8097 57.2264 34.5588H59.4727C59.4953 34.4667 59.5054 34.3617 59.5054 34.2399C59.5054 34.0582 59.4691 33.8941 59.397 33.7451C59.3297 33.6003 59.2314 33.4696 59.1078 33.3606C58.983 33.2522 58.8357 33.168 58.6747 33.113C58.5062 33.0529 58.3268 33.0225 58.146 33.0234C57.903 33.0234 57.6895 33.0621 57.5022 33.1337C57.3256 33.2019 57.1659 33.3023 57.0328 33.429C56.9033 33.5549 56.8037 33.7041 56.7402 33.8672C56.6711 34.041 56.6368 34.2248 56.6388 34.4098C56.6388 34.6187 56.6778 34.8093 56.7503 34.9795C56.8229 35.1494 56.931 35.2956 57.0656 35.4178C57.2002 35.5399 57.3645 35.6324 57.5584 35.698C57.7659 35.7657 57.9848 35.7991 58.205 35.7965C58.3989 35.7965 58.5959 35.7664 58.793 35.7098ZM57.4765 33.6644C57.6372 33.5304 57.8507 33.4648 58.1199 33.4648C58.3762 33.4648 58.5764 33.5304 58.7243 33.6526C58.8718 33.778 58.9506 33.9507 58.9639 34.1715H57.1909C57.2159 33.9762 57.3174 33.796 57.4765 33.6644ZM59.7583 33.0832H60.415L61.4162 34.3625L60.3459 35.7367H59.7091L60.8317 34.3621L59.7583 33.0832ZM61.5442 33.0832H62.0631V35.7367H61.5442V33.0832ZM63.918 35.7367L62.7756 34.3621L63.8427 33.0829H63.1989L62.1911 34.3621L63.2746 35.7367H63.918ZM66.2888 35.7098C66.4858 35.6532 66.6532 35.5665 66.7976 35.4475L66.64 35.0777C66.5448 35.1555 66.4168 35.221 66.2626 35.2748C66.1081 35.3285 65.9341 35.355 65.7437 35.355C65.4581 35.355 65.2216 35.2866 65.0343 35.1465C64.8471 35.0064 64.7456 34.8097 64.7222 34.5588H66.9685C66.9915 34.4667 67.0013 34.3617 67.0013 34.2399C67.0013 34.0582 66.9654 33.8941 66.8928 33.7451C66.8256 33.6004 66.7274 33.4697 66.6041 33.3606C66.4791 33.2522 66.3317 33.168 66.1706 33.113C66.002 33.0529 65.8227 33.0225 65.6419 33.0234C65.3992 33.0234 65.1853 33.0621 64.9981 33.1337C64.8216 33.202 64.662 33.3024 64.5291 33.429C64.3993 33.5547 64.2996 33.704 64.2364 33.8672C64.1672 34.041 64.1328 34.2248 64.135 34.4098C64.135 34.6187 64.174 34.8093 64.2466 34.9795C64.3187 35.1494 64.4272 35.2956 64.5618 35.4178C64.6964 35.5399 64.8603 35.6324 65.0542 35.698C65.2618 35.7657 65.4809 35.7991 65.7012 35.7965C65.9007 35.7952 66.0988 35.7659 66.2888 35.7098ZM64.9723 33.6644C65.1335 33.5304 65.3469 33.4648 65.6161 33.4648C65.8689 33.4648 66.0722 33.5304 66.2201 33.6526C66.368 33.778 66.4464 33.9507 66.4597 34.1715H64.6867C64.7117 33.9762 64.8132 33.796 64.9723 33.6644ZM69.1063 32.1917C68.8008 32.1917 68.6334 32.0365 68.6069 31.7266H68.118C68.118 31.8455 68.141 31.953 68.1835 32.0544C68.2264 32.1558 68.2889 32.2422 68.3708 32.3139C68.4528 32.3855 68.5581 32.4422 68.6791 32.4866C68.8008 32.5314 68.942 32.5522 69.1028 32.5522C69.2387 32.5546 69.3739 32.5323 69.5004 32.4866C69.6186 32.445 69.7169 32.3855 69.8024 32.3139C69.8861 32.2409 69.952 32.1525 69.9959 32.0544C70.042 31.953 70.065 31.8455 70.065 31.7266H69.5792C69.5558 32.0365 69.395 32.1917 69.1063 32.1917ZM67.704 33.0829V35.7367H68.2229L69.9105 33.7597V35.7367H70.4294V33.0829H69.9105L68.2229 35.0598V33.0829H67.704Z" fill="black"/>
    </g>
  </g>
  <defs>
    <filter id="filter0_d_27_1053" x="66.3594" y="12.2737" width="20.1108" height="18.5135" filterUnits="userSpaceOnUse" color-interpolation-filters="sRGB">
      <feFlood flood-opacity="0" result="BackgroundImageFix"/>
      <feColorMatrix in="SourceAlpha" type="matrix" values="0 0 0 0 0 0 0 0 0 0 0 0 0 0 0 0 0 0 127 0" result="hardAlpha"/>
      <feOffset dy="4"/>
      <feGaussianBlur stdDeviation="2"/>
      <feComposite in2="hardAlpha" operator="out"/>
      <feColorMatrix type="matrix" values="0 0 0 0 0 0 0 0 0 0 0 0 0 0 0 0 0 0 0.25 0"/>
      <feBlend mode="normal" in2="BackgroundImageFix" result="effect1_dropShadow_27_1053"/>
      <feBlend mode="normal" in="SourceGraphic" in2="effect1_dropShadow_27_1053" result="shape"/>
    </filter>
    <filter id="filter1_d_27_1053" x="51.4229" y="8.1438" width="20.9185" height="23.0192" filterUnits="userSpaceOnUse" color-interpolation-filters="sRGB">
      <feFlood flood-opacity="0" result="BackgroundImageFix"/>
      <feColorMatrix in="SourceAlpha" type="matrix" values="0 0 0 0 0 0 0 0 0 0 0 0 0 0 0 0 0 0 127 0" result="hardAlpha"/>
      <feOffset dy="4"/>
      <feGaussianBlur stdDeviation="2"/>
      <feComposite in2="hardAlpha" operator="out"/>
      <feColorMatrix type="matrix" values="0 0 0 0 0 0 0 0 0 0 0 0 0 0 0 0 0 0 0.25 0"/>
      <feBlend mode="normal" in2="BackgroundImageFix" result="effect1_dropShadow_27_1053"/>
      <feBlend mode="normal" in="SourceGraphic" in2="effect1_dropShadow_27_1053" result="shape"/>
    </filter>
    <filter id="filter2_d_27_1053" x="38.9077" y="11.5574" width="18.8999" height="19.2639" filterUnits="userSpaceOnUse" color-interpolation-filters="sRGB">
      <feFlood flood-opacity="0" result="BackgroundImageFix"/>
      <feColorMatrix in="SourceAlpha" type="matrix" values="0 0 0 0 0 0 0 0 0 0 0 0 0 0 0 0 0 0 127 0" result="hardAlpha"/>
      <feOffset dy="4"/>
      <feGaussianBlur stdDeviation="2"/>
      <feComposite in2="hardAlpha" operator="out"/>
      <feColorMatrix type="matrix" values="0 0 0 0 0 0 0 0 0 0 0 0 0 0 0 0 0 0 0.25 0"/>
      <feBlend mode="normal" in2="BackgroundImageFix" result="effect1_dropShadow_27_1053"/>
      <feBlend mode="normal" in="SourceGraphic" in2="effect1_dropShadow_27_1053" result="shape"/>
    </filter>
    <filter id="filter3_d_27_1053" x="-2.16699" y="9.35962" width="13.6699" height="32.2745" filterUnits="userSpaceOnUse" color-interpolation-filters="sRGB">
      <feFlood flood-opacity="0" result="BackgroundImageFix"/>
      <feColorMatrix in="SourceAlpha" type="matrix" values="0 0 0 0 0 0 0 0 0 0 0 0 0 0 0 0 0 0 127 0" result="hardAlpha"/>
      <feOffset dy="4"/>
      <feGaussianBlur stdDeviation="2"/>
      <feComposite in2="hardAlpha" operator="out"/>
      <feColorMatrix type="matrix" values="0 0 0 0 0 0 0 0 0 0 0 0 0 0 0 0 0 0 0.25 0"/>
      <feBlend mode="normal" in2="BackgroundImageFix" result="effect1_dropShadow_27_1053"/>
      <feBlend mode="normal" in="SourceGraphic" in2="effect1_dropShadow_27_1053" result="shape"/>
    </filter>
    <filter id="filter4_d_27_1053" x="19.604" y="12.2804" width="24.187" height="17.1067" filterUnits="userSpaceOnUse" color-interpolation-filters="sRGB">
      <feFlood flood-opacity="0" result="BackgroundImageFix"/>
      <feColorMatrix in="SourceAlpha" type="matrix" values="0 0 0 0 0 0 0 0 0 0 0 0 0 0 0 0 0 0 127 0" result="hardAlpha"/>
      <feOffset dy="4"/>
      <feGaussianBlur stdDeviation="2"/>
      <feComposite in2="hardAlpha" operator="out"/>
      <feColorMatrix type="matrix" values="0 0 0 0 0 0 0 0 0 0 0 0 0 0 0 0 0 0 0.25 0"/>
      <feBlend mode="normal" in2="BackgroundImageFix" result="effect1_dropShadow_27_1053"/>
      <feBlend mode="normal" in="SourceGraphic" in2="effect1_dropShadow_27_1053" result="shape"/>
    </filter>
    <filter id="filter5_d_27_1053" x="13.9204" y="0" width="13.6836" height="29.6279" filterUnits="userSpaceOnUse" color-interpolation-filters="sRGB">
      <feFlood flood-opacity="0" result="BackgroundImageFix"/>
      <feColorMatrix in="SourceAlpha" type="matrix" values="0 0 0 0 0 0 0 0 0 0 0 0 0 0 0 0 0 0 127 0" result="hardAlpha"/>
      <feOffset dy="4"/>
      <feGaussianBlur stdDeviation="2"/>
      <feComposite in2="hardAlpha" operator="out"/>
      <feColorMatrix type="matrix" values="0 0 0 0 0 0 0 0 0 0 0 0 0 0 0 0 0 0 0.25 0"/>
      <feBlend mode="normal" in2="BackgroundImageFix" result="effect1_dropShadow_27_1053"/>
      <feBlend mode="normal" in="SourceGraphic" in2="effect1_dropShadow_27_1053" result="shape"/>
    </filter>
    <filter id="filter6_d_27_1053" x="13.9204" y="0" width="29.8701" height="20.2898" filterUnits="userSpaceOnUse" color-interpolation-filters="sRGB">
      <feFlood flood-opacity="0" result="BackgroundImageFix"/>
      <feColorMatrix in="SourceAlpha" type="matrix" values="0 0 0 0 0 0 0 0 0 0 0 0 0 0 0 0 0 0 127 0" result="hardAlpha"/>
      <feOffset dy="4"/>
      <feGaussianBlur stdDeviation="2"/>
      <feComposite in2="hardAlpha" operator="out"/>
      <feColorMatrix type="matrix" values="0 0 0 0 0 0 0 0 0 0 0 0 0 0 0 0 0 0 0.25 0"/>
      <feBlend mode="normal" in2="BackgroundImageFix" result="effect1_dropShadow_27_1053"/>
      <feBlend mode="normal" in="SourceGraphic" in2="effect1_dropShadow_27_1053" result="shape"/>
    </filter>
    <filter id="filter7_d_27_1053" x="13.9204" y="24.5609" width="13.6836" height="26.4391" filterUnits="userSpaceOnUse" color-interpolation-filters="sRGB">
      <feFlood flood-opacity="0" result="BackgroundImageFix"/>
      <feColorMatrix in="SourceAlpha" type="matrix" values="0 0 0 0 0 0 0 0 0 0 0 0 0 0 0 0 0 0 127 0" result="hardAlpha"/>
      <feOffset dy="4"/>
      <feGaussianBlur stdDeviation="2"/>
      <feComposite in2="hardAlpha" operator="out"/>
      <feColorMatrix type="matrix" values="0 0 0 0 0 0 0 0 0 0 0 0 0 0 0 0 0 0 0.25 0"/>
      <feBlend mode="normal" in2="BackgroundImageFix" result="effect1_dropShadow_27_1053"/>
      <feBlend mode="normal" in="SourceGraphic" in2="effect1_dropShadow_27_1053" result="shape"/>
    </filter>
    <filter id="filter8_d_27_1053" x="13.9238" y="30.7102" width="29.8433" height="20.2898" filterUnits="userSpaceOnUse" color-interpolation-filters="sRGB">
      <feFlood flood-opacity="0" result="BackgroundImageFix"/>
      <feColorMatrix in="SourceAlpha" type="matrix" values="0 0 0 0 0 0 0 0 0 0 0 0 0 0 0 0 0 0 127 0" result="hardAlpha"/>
      <feOffset dy="4"/>
      <feGaussianBlur stdDeviation="2"/>
      <feComposite in2="hardAlpha" operator="out"/>
      <feColorMatrix type="matrix" values="0 0 0 0 0 0 0 0 0 0 0 0 0 0 0 0 0 0 0.25 0"/>
      <feBlend mode="normal" in2="BackgroundImageFix" result="effect1_dropShadow_27_1053"/>
      <feBlend mode="normal" in="SourceGraphic" in2="effect1_dropShadow_27_1053" result="shape"/>
    </filter>
    <filter id="filter9_d_27_1053" x="-2.16064" y="21.5061" width="24.1274" height="20.1282" filterUnits="userSpaceOnUse" color-interpolation-filters="sRGB">
      <feFlood flood-opacity="0" result="BackgroundImageFix"/>
      <feColorMatrix in="SourceAlpha" type="matrix" values="0 0 0 0 0 0 0 0 0 0 0 0 0 0 0 0 0 0 127 0" result="hardAlpha"/>
      <feOffset dy="4"/>
      <feGaussianBlur stdDeviation="2"/>
      <feComposite in2="hardAlpha" operator="out"/>
      <feColorMatrix type="matrix" values="0 0 0 0 0 0 0 0 0 0 0 0 0 0 0 0 0 0 0.25 0"/>
      <feBlend mode="normal" in2="BackgroundImageFix" result="effect1_dropShadow_27_1053"/>
      <feBlend mode="normal" in="SourceGraphic" in2="effect1_dropShadow_27_1053" result="shape"/>
    </filter>
    <filter id="filter10_d_27_1053" x="39.8662" y="26.0552" width="56.9951" height="17.7415" filterUnits="userSpaceOnUse" color-interpolation-filters="sRGB">
      <feFlood flood-opacity="0" result="BackgroundImageFix"/>
      <feColorMatrix in="SourceAlpha" type="matrix" values="0 0 0 0 0 0 0 0 0 0 0 0 0 0 0 0 0 0 127 0" result="hardAlpha"/>
      <feOffset dy="4"/>
      <feGaussianBlur stdDeviation="2"/>
      <feComposite in2="hardAlpha" operator="out"/>
      <feColorMatrix type="matrix" values="0 0 0 0 0 0 0 0 0 0 0 0 0 0 0 0 0 0 0.25 0"/>
      <feBlend mode="normal" in2="BackgroundImageFix" result="effect1_dropShadow_27_1053"/>
      <feBlend mode="normal" in="SourceGraphic" in2="effect1_dropShadow_27_1053" result="shape"/>
    </filter>
    <clipPath id="clip0_27_1053">
      <rect width="93.2711" height="43" fill="white" transform="translate(0.711426)"/>
    </clipPath>
  </defs>
</svg>
