<svg width="33" height="32" viewBox="0 0 33 32" fill="none"
  xmlns="http://www.w3.org/2000/svg">
  <g clip-path="url(#clip0_31_1939)">
    <path d="M16.6683 25C12.4489 25 8.45605 23.193 5.42284 19.912C5.04988 19.509 5.07164 18.876 5.47033 18.499C5.87001 18.122 6.49525 18.144 6.86921 18.547C9.52351 21.419 13.0029 23 16.6683 23C21.3803 23 25.7194 20.395 28.3816 16C25.7204 11.605 21.3803 9 16.6683 9C11.7831 9 7.29758 11.801 4.668 16.493C4.39891 16.974 3.79346 17.144 3.31958 16.87C2.84373 16.598 2.67752 15.988 2.94661 15.507C5.93135 10.18 11.0619 7 16.6683 7C22.2757 7 27.4052 10.18 30.3899 15.507C30.5611 15.813 30.5611 16.187 30.3899 16.492C27.4052 21.819 22.2757 25 16.6683 25Z" fill="#BBBBBB"/>
    <path d="M16.6682 21C13.9407 21 11.7217 18.757 11.7217 16C11.7217 13.243 13.9407 11 16.6682 11C19.3957 11 21.6147 13.243 21.6147 16C21.6147 18.757 19.3957 21 16.6682 21ZM16.6682 13C15.0319 13 13.7003 14.346 13.7003 16C13.7003 17.654 15.0319 19 16.6682 19C18.3045 19 19.6361 17.654 19.6361 16C19.6361 14.346 18.3045 13 16.6682 13Z" fill="#BBBBBB"/>
  </g>
  <defs>
    <clipPath id="clip0_31_1939">
      <rect width="31.6578" height="32" fill="white" transform="translate(0.839355)"/>
    </clipPath>
  </defs>
</svg>
