<svg width="26" height="26" viewBox="0 0 26 26" fill="none"
  xmlns="http://www.w3.org/2000/svg">
  <path d="M5.7415 20.2583C5.95817 20.475 6.17484 20.5833 6.49984 20.5833C6.82484 20.5833 7.0415 20.475 7.25817 20.2583L12.9998 14.5167L18.7415 20.2583C18.9582 20.475 19.2832 20.5833 19.4998 20.5833C19.7165 20.5833 20.0415 20.475 20.2582 20.2583C20.6915 19.825 20.6915 19.175 20.2582 18.7417L14.5165 13L20.2582 7.25833C20.6915 6.825 20.6915 6.175 20.2582 5.74167C19.8248 5.30833 19.1748 5.30833 18.7415 5.74167L12.9998 11.4833L7.25817 5.74167C6.82484 5.30833 6.17484 5.30833 5.7415 5.74167C5.30817 6.175 5.30817 6.825 5.7415 7.25833L11.4832 13L5.7415 18.7417C5.30817 19.175 5.30817 19.825 5.7415 20.2583Z" fill="#D9D9D9"/>
</svg>
