<svg width="45" height="60" viewBox="0 0 45 60" fill="none"
  xmlns="http://www.w3.org/2000/svg">
  <g clip-path="url(#clip0_2_16)">
    <mask id="mask0_2_16" style="mask-type:luminance" maskUnits="userSpaceOnUse" x="0" y="0" width="45" height="60">
      <path d="M45 0H0V60H45V0Z" fill="white"/>
    </mask>
    <g mask="url(#mask0_2_16)">
      <path d="M22.7 52C23.9108 52 25.0945 51.6408 26.1011 50.9679C27.1078 50.295 27.8922 49.3386 28.3551 48.2197C28.818 47.1008 28.9386 45.8698 28.7017 44.6824C28.4647 43.4949 27.8808 42.4045 27.0239 41.549C26.167 40.6935 25.0756 40.1114 23.8878 39.8764C22.7 39.6414 21.4691 39.764 20.351 40.2287C19.2329 40.6935 18.2778 41.4794 17.6065 42.4872C16.9353 43.4949 16.578 44.6792 16.58 45.89C16.5826 47.5114 17.2286 49.0655 18.376 50.211C19.5235 51.3566 21.0786 52 22.7 52ZM22.7 41.77C23.5149 41.77 24.3114 42.0116 24.9889 42.4643C25.6665 42.9171 26.1945 43.5605 26.5064 44.3133C26.8182 45.0662 26.8998 45.8946 26.7408 46.6938C26.5819 47.493 26.1895 48.2271 25.6133 48.8033C25.0371 49.3795 24.303 49.7719 23.5038 49.9308C22.7046 50.0898 21.8762 50.0082 21.1233 49.6964C20.3705 49.3845 19.7271 48.8565 19.2743 48.1789C18.8216 47.5014 18.58 46.7049 18.58 45.89C18.5774 45.3473 18.682 44.8094 18.8879 44.3072C19.0937 43.805 19.3968 43.3485 19.7796 42.9638C20.1625 42.5791 20.6175 42.2738 21.1187 42.0655C21.6199 41.8572 22.1573 41.75 22.7 41.75V41.77Z" fill="#6B6B6B"/>
      <path d="M15.94 10.6C16 10.85 16.38 12.04 16.47 12.3L21.87 27.06C21.9557 27.3068 22.1166 27.5206 22.33 27.6712C22.5435 27.8219 22.7987 27.9019 23.06 27.9C23.3185 27.9019 23.5714 27.8243 23.7842 27.6776C23.9971 27.5309 24.1597 27.3223 24.25 27.08L29.65 13L29.81 12.43C30.3278 11.0096 30.6017 9.51177 30.62 8C30.62 5.99497 29.8235 4.07205 28.4057 2.65427C26.988 1.2365 25.065 0.440002 23.06 0.440002C21.055 0.440002 19.132 1.2365 17.7143 2.65427C16.2965 4.07205 15.5 5.99497 15.5 8C15.5012 8.4124 15.538 8.82393 15.61 9.23L15.94 10.6ZM23.06 2.41C23.7927 2.40999 24.5181 2.55479 25.1947 2.83608C25.8712 3.11737 26.4855 3.52961 27.0022 4.04908C27.5188 4.56856 27.9278 5.18503 28.2054 5.86307C28.4831 6.54111 28.624 7.26733 28.62 8C28.598 9.32533 28.3512 10.6373 27.89 11.88L23.08 24.58L18.35 11.61C18.28 11.42 17.92 10.27 17.88 10.11L17.57 8.82C17.5242 8.54906 17.5008 8.27479 17.5 8C17.496 7.26733 17.6369 6.54111 17.9146 5.86307C18.1922 5.18503 18.6012 4.56856 19.1178 4.04908C19.6345 3.52961 20.2488 3.11737 20.9253 2.83608C21.6019 2.55479 22.3273 2.40999 23.06 2.41Z" fill="white"/>
      <path d="M23.06 12.88C24.1378 12.846 25.1581 12.3857 25.8968 11.6001C26.6356 10.8145 27.0323 9.76789 27 8.69001C27.0385 8.15168 26.9657 7.6112 26.7861 7.10224C26.6065 6.59329 26.324 6.12678 25.9563 5.73179C25.5885 5.33679 25.1433 5.02178 24.6485 4.80639C24.1536 4.59099 23.6197 4.47983 23.08 4.47983C22.5403 4.47983 22.0064 4.59099 21.5115 4.80639C21.0167 5.02178 20.5715 5.33679 20.2037 5.73179C19.8359 6.12678 19.5535 6.59329 19.3739 7.10224C19.1943 7.6112 19.1215 8.15168 19.16 8.69001C19.1275 9.7612 19.5188 10.802 20.2489 11.5865C20.9791 12.3709 21.9892 12.8357 23.06 12.88ZM23.06 6.50001C23.6075 6.53347 24.1194 6.78292 24.4832 7.19355C24.8469 7.60418 25.0328 8.14241 25 8.69001C25.0398 8.96538 25.02 9.24611 24.9418 9.51314C24.8636 9.78017 24.7288 10.0272 24.5467 10.2376C24.3646 10.448 24.1394 10.6167 23.8863 10.7324C23.6332 10.848 23.3582 10.9079 23.08 10.9079C22.8018 10.9079 22.5268 10.848 22.2737 10.7324C22.0206 10.6167 21.7954 10.448 21.6133 10.2376C21.4311 10.0272 21.2964 9.78017 21.2182 9.51314C21.14 9.24611 21.1201 8.96538 21.16 8.69001C21.1268 8.14887 21.3073 7.61632 21.6625 7.20681C22.0178 6.7973 22.5196 6.54351 23.06 6.50001Z" fill="white"/>
      <path d="M8.12001 59.93H37.28C39.3104 59.9948 41.2838 59.2525 42.7682 57.8656C44.2526 56.4787 45.127 54.5602 45.2 52.53V40.89C45.127 38.8599 44.2526 36.9413 42.7682 35.5544C41.2838 34.1675 39.3104 33.4252 37.28 33.49H30C29.8326 32.56 29.3365 31.7212 28.6023 31.1265C27.868 30.5317 26.9445 30.2207 26 30.25H19.5C18.5556 30.2207 17.632 30.5317 16.8978 31.1265C16.1635 31.7212 15.6674 32.56 15.5 33.49H8.12001C6.08958 33.4252 4.11618 34.1675 2.63181 35.5544C1.14745 36.9413 0.273042 38.8599 0.200012 40.89V52.53C0.273042 54.5602 1.14745 56.4787 2.63181 57.8656C4.11618 59.2525 6.08958 59.9948 8.12001 59.93ZM2.20001 40.93C2.2752 39.4311 2.93951 38.0226 4.0483 37.0112C5.15708 35.9998 6.62054 35.4675 8.12001 35.53H16.5C16.7652 35.53 17.0196 35.4247 17.2071 35.2371C17.3947 35.0496 17.5 34.7952 17.5 34.53V34C17.5335 33.5012 17.7622 33.0357 18.1366 32.7043C18.5109 32.373 19.0008 32.2026 19.5 32.23H26C26.4992 32.2026 26.9891 32.373 27.3635 32.7043C27.7379 33.0357 27.9666 33.5012 28 34V34.47C28 34.7352 28.1054 34.9896 28.2929 35.1771C28.4804 35.3647 28.7348 35.47 29 35.47H37.28C38.7795 35.4075 40.2429 35.9398 41.3517 36.9512C42.4605 37.9626 43.1248 39.3711 43.2 40.87V52.53C43.1248 54.0289 42.4605 55.4374 41.3517 56.4488C40.2429 57.4602 38.7795 57.9926 37.28 57.93H8.12001C6.62054 57.9926 5.15708 57.4602 4.0483 56.4488C2.93951 55.4374 2.2752 54.0289 2.20001 52.53V40.93Z" fill="white"/>
      <path d="M9.25999 41.9C9.7406 41.9 10.2104 41.7575 10.61 41.4905C11.0096 41.2235 11.3211 40.844 11.505 40.3999C11.6889 39.9559 11.7371 39.4673 11.6433 38.9959C11.5495 38.5246 11.3181 38.0916 10.9783 37.7517C10.6384 37.4119 10.2054 37.1805 9.73406 37.0867C9.26268 36.9929 8.77409 37.0411 8.33007 37.225C7.88604 37.4089 7.50653 37.7204 7.23952 38.12C6.9725 38.5196 6.82999 38.9894 6.82999 39.47C6.82999 40.1145 7.086 40.7326 7.54172 41.1883C7.99743 41.644 8.61551 41.9 9.25999 41.9ZM9.25999 39.04C9.37403 39.04 9.4834 39.0853 9.56404 39.166C9.64468 39.2466 9.68999 39.356 9.68999 39.47C9.68999 39.5841 9.64468 39.6934 9.56404 39.7741C9.4834 39.8547 9.37403 39.9 9.25999 39.9C9.14594 39.9 9.03657 39.8547 8.95593 39.7741C8.87529 39.6934 8.82999 39.5841 8.82999 39.47C8.82591 39.4106 8.83395 39.351 8.8536 39.2947C8.87325 39.2385 8.90412 39.1869 8.94432 39.1429C8.98453 39.099 9.03324 39.0636 9.0875 39.0391C9.14176 39.0145 9.20044 39.0012 9.25999 39V39.04Z" fill="white"/>
      <path d="M20.67 46.46C20.9096 46.4572 21.1403 46.3685 21.32 46.21L23.62 44.21C23.8187 44.0348 23.9398 43.788 23.9566 43.5236C23.9735 43.2593 23.8848 42.999 23.71 42.8C23.5348 42.6013 23.288 42.4802 23.0236 42.4634C22.7593 42.4465 22.499 42.5352 22.3 42.71L20.01 44.71C19.8099 44.8838 19.6869 45.1299 19.6682 45.3943C19.6494 45.6587 19.7364 45.9197 19.91 46.12C20.0048 46.2279 20.1218 46.3142 20.2529 46.3729C20.3841 46.4315 20.5263 46.4612 20.67 46.46Z" fill="white"/>
      <path d="M22.51 45.75L21.84 46.33C21.6413 46.5052 21.5202 46.752 21.5034 47.0164C21.4865 47.2807 21.5752 47.541 21.75 47.74C21.8437 47.8467 21.9591 47.9322 22.0884 47.9908C22.2177 48.0494 22.358 48.0798 22.5 48.08C22.7418 48.0824 22.9763 47.9972 23.16 47.84L23.83 47.25C24.0287 47.0748 24.1498 46.828 24.1666 46.5636C24.1835 46.2993 24.0948 46.039 23.92 45.84C23.7448 45.6413 23.498 45.5202 23.2336 45.5034C22.9693 45.4865 22.709 45.5752 22.51 45.75Z" fill="white"/>
    </g>
  </g>
  <defs>
    <clipPath id="clip0_2_16">
      <rect width="45" height="60" fill="white"/>
    </clipPath>
  </defs>
</svg>
