<svg width="38" height="39" viewBox="0 0 38 39" fill="none"
  xmlns="http://www.w3.org/2000/svg">
  <path d="M19 26.3504C17.5908 26.3504 16.2133 25.9321 15.0416 25.1485C13.8699 24.3648 12.9566 23.2509 12.4174 21.9478C11.8781 20.6446 11.737 19.2106 12.0119 17.8272C12.2868 16.4437 12.9654 15.173 13.9619 14.1755C14.9583 13.1781 16.2279 12.4989 17.61 12.2237C18.9921 11.9485 20.4247 12.0898 21.7266 12.6296C23.0285 13.1693 24.1413 14.0835 24.9242 15.2563C25.7071 16.4291 26.125 17.808 26.125 19.2185C26.125 21.11 25.3743 22.924 24.0381 24.2615C22.7019 25.599 20.8897 26.3504 19 26.3504ZM19 14.464C18.0605 14.464 17.1422 14.7428 16.361 15.2652C15.5799 15.7877 14.9711 16.5302 14.6116 17.399C14.2521 18.2678 14.158 19.2238 14.3413 20.1461C14.5246 21.0684 14.9769 21.9156 15.6412 22.5805C16.3055 23.2455 17.1519 23.6983 18.0733 23.8817C18.9947 24.0652 19.9498 23.971 20.8177 23.6112C21.6857 23.2513 22.4275 22.6419 22.9495 21.86C23.4714 21.0781 23.75 20.1589 23.75 19.2185C23.75 17.9575 23.2496 16.7482 22.3588 15.8565C21.468 14.9649 20.2598 14.464 19 14.464Z" fill="#131313"/>
  <path d="M24.9375 37.0481H13.0625C11.8027 37.0481 10.5945 36.5472 9.70374 35.6556C8.81294 34.7639 8.3125 33.5546 8.3125 32.2936V29.2625C8.31463 29.0265 8.38692 28.7964 8.52016 28.6017C8.6534 28.4069 8.84154 28.2563 9.06063 28.169L13.3831 26.4336C13.5296 26.3685 13.6878 26.3339 13.8481 26.3317C14.0083 26.3294 14.1674 26.3597 14.3156 26.4207C14.4639 26.4816 14.5983 26.572 14.7107 26.6863C14.8231 26.8007 14.9113 26.9366 14.9698 27.0859C15.0284 27.2353 15.0561 27.3949 15.0514 27.5553C15.0467 27.7156 15.0096 27.8734 14.9423 28.019C14.8751 28.1646 14.779 28.2951 14.6601 28.4026C14.5411 28.5101 14.4016 28.5923 14.25 28.6444L10.6875 30.0708V32.2936C10.6875 32.9241 10.9377 33.5287 11.3831 33.9746C11.8285 34.4204 12.4326 34.6708 13.0625 34.6708H24.9375C25.5674 34.6708 26.1715 34.4204 26.6169 33.9746C27.0623 33.5287 27.3125 32.9241 27.3125 32.2936V30.0708L23.75 28.6444C23.4571 28.5278 23.2225 28.2995 23.0978 28.0097C22.9731 27.7199 22.9685 27.3924 23.085 27.0992C23.2015 26.806 23.4296 26.5712 23.7191 26.4463C24.0087 26.3215 24.3359 26.3169 24.6287 26.4336L28.9512 28.169C29.1703 28.2563 29.3585 28.4069 29.4917 28.6017C29.625 28.7964 29.6972 29.0265 29.6994 29.2625V32.2936C29.6994 32.9189 29.5761 33.5382 29.3367 34.1158C29.0972 34.6934 28.7463 35.2181 28.3039 35.6598C27.8616 36.1014 27.3366 36.4514 26.7589 36.6896C26.1812 36.9279 25.5623 37.0497 24.9375 37.0481Z" fill="#131313"/>
  <path d="M10.6875 13.2753C9.51318 13.2753 8.36522 12.9267 7.3888 12.2737C6.41239 11.6206 5.65136 10.6924 5.20197 9.60644C4.75257 8.52046 4.63499 7.32548 4.86409 6.17261C5.09319 5.01974 5.65868 3.96076 6.48906 3.12959C7.31943 2.29841 8.37739 1.73238 9.52915 1.50305C10.6809 1.27373 11.8747 1.39143 12.9597 1.84126C14.0446 2.29109 14.9719 3.05284 15.6244 4.0302C16.2768 5.00756 16.625 6.15662 16.625 7.33207C16.625 8.11255 16.4714 8.88538 16.173 9.60644C15.8747 10.3275 15.4373 10.9827 14.8859 11.5346C14.3346 12.0864 13.6801 12.5242 12.9597 12.8229C12.2393 13.1216 11.4672 13.2753 10.6875 13.2753ZM10.6875 3.76614C9.98291 3.76614 9.29413 3.97528 8.70828 4.36711C8.12243 4.75894 7.66582 5.31586 7.39618 5.96745C7.12654 6.61904 7.056 7.33603 7.19346 8.02775C7.33091 8.71947 7.67021 9.35486 8.16843 9.85357C8.66666 10.3523 9.30144 10.6919 9.99249 10.8295C10.6836 10.9671 11.3999 10.8965 12.0508 10.6266C12.7018 10.3567 13.2582 9.89961 13.6496 9.3132C14.0411 8.72678 14.25 8.03735 14.25 7.33207C14.25 6.38633 13.8747 5.47932 13.2066 4.81058C12.5385 4.14184 11.6323 3.76614 10.6875 3.76614Z" fill="#131313"/>
  <path d="M9.5 23.248H5.9375C4.67772 23.248 3.46954 22.7471 2.57874 21.8554C1.68795 20.9638 1.1875 19.7544 1.1875 18.4934V16.4133C1.18727 16.1753 1.25846 15.9426 1.39185 15.7455C1.52523 15.5484 1.71467 15.396 1.93563 15.3079L5.72375 13.8221C6.01224 13.7075 6.3341 13.7104 6.62042 13.8304C6.90674 13.9504 7.13475 14.1778 7.25563 14.4639C7.31347 14.6091 7.34215 14.7642 7.34003 14.9205C7.33791 15.0768 7.30502 15.2311 7.24325 15.3746C7.18149 15.5181 7.09205 15.648 6.98007 15.7569C6.86808 15.8658 6.73574 15.9515 6.59063 16.0092L3.5625 17.2216V18.4934C3.5625 19.1239 3.81272 19.7286 4.25812 20.1744C4.70352 20.6203 5.30761 20.8707 5.9375 20.8707H9.5C9.81495 20.8707 10.117 20.996 10.3397 21.2189C10.5624 21.4418 10.6875 21.7441 10.6875 22.0594C10.6875 22.3746 10.5624 22.677 10.3397 22.8999C10.117 23.1228 9.81495 23.248 9.5 23.248Z" fill="#131313"/>
  <path d="M27.3125 13.2753C26.1382 13.2753 24.9902 12.9267 24.0138 12.2737C23.0374 11.6206 22.2764 10.6924 21.827 9.60644C21.3776 8.52046 21.26 7.32548 21.4891 6.17261C21.7182 5.01974 22.2837 3.96076 23.1141 3.12959C23.9444 2.29841 25.0024 1.73238 26.1542 1.50305C27.3059 1.27373 28.4998 1.39143 29.5847 1.84126C30.6696 2.29109 31.5969 3.05284 32.2494 4.0302C32.9018 5.00756 33.25 6.15662 33.25 7.33207C33.25 8.90831 32.6244 10.42 31.511 11.5346C30.3975 12.6491 28.8872 13.2753 27.3125 13.2753ZM27.3125 3.76614C26.6079 3.76614 25.9191 3.97528 25.3333 4.36711C24.7474 4.75894 24.2908 5.31586 24.0212 5.96745C23.7515 6.61904 23.681 7.33603 23.8185 8.02775C23.9559 8.71947 24.2952 9.35486 24.7934 9.85357C25.2917 10.3523 25.9264 10.6919 26.6175 10.8295C27.3086 10.9671 28.0249 10.8965 28.6758 10.6266C29.3268 10.3567 29.8832 9.89961 30.2746 9.3132C30.6661 8.72678 30.875 8.03735 30.875 7.33207C30.875 6.38633 30.4997 5.47932 29.8316 4.81058C29.1635 4.14184 28.2573 3.76614 27.3125 3.76614Z" fill="#131313"/>
  <path d="M32.0625 23.248H28.5C28.1851 23.248 27.883 23.1228 27.6603 22.8999C27.4376 22.6769 27.3125 22.3746 27.3125 22.0594C27.3125 21.7441 27.4376 21.4418 27.6603 21.2189C27.883 20.9959 28.1851 20.8707 28.5 20.8707H32.0625C32.6924 20.8707 33.2965 20.6203 33.7419 20.1744C34.1873 19.7286 34.4375 19.1239 34.4375 18.4934V17.2216L31.4094 16.0329C31.2643 15.9753 31.1319 15.8896 31.0199 15.7807C30.9079 15.6718 30.8185 15.5419 30.7567 15.3984C30.695 15.2548 30.6621 15.1005 30.66 14.9443C30.6578 14.788 30.6865 14.6329 30.7444 14.4877C30.8585 14.1951 31.0836 13.9596 31.3707 13.8326C31.6577 13.7057 31.9833 13.6976 32.2763 13.8102L36.0644 15.296C36.2853 15.3841 36.4748 15.5365 36.6082 15.7336C36.7415 15.9307 36.8127 16.1634 36.8125 16.4014V18.4815C36.8141 19.1069 36.6924 19.7265 36.4543 20.3047C36.2163 20.8829 35.8667 21.4085 35.4255 21.8512C34.9842 22.294 34.4601 22.6453 33.883 22.8849C33.3059 23.1246 32.6873 23.248 32.0625 23.248Z" fill="#131313"/>
</svg>
