<svg width="40" height="40" viewBox="0 0 40 40" fill="none"
  xmlns="http://www.w3.org/2000/svg">
  <path d="M2.9958 11.0381C2.5692 11.0381 2.22359 10.6925 2.22359 10.2659C2.22359 9.84021 2.5692 9.49371 2.9958 9.49371H37.0042C37.4303 9.49371 37.7764 9.84021 37.7764 10.2659C37.7764 10.6925 37.4304 11.0381 37.0042 11.0381H36.1359V22.114H37.0042C37.4303 22.114 37.7764 22.4596 37.7764 22.8861C37.7764 23.3127 37.4304 23.6583 37.0042 23.6583H36.1359V37.4463C36.1359 37.872 35.7899 38.2185 35.3637 38.2185H24.3995C23.9733 38.2185 23.6273 37.872 23.6273 37.4463V22.6242C23.4015 20.5567 21.6994 19.6234 20.0094 19.6234C19.0502 19.6234 18.126 19.9431 17.4745 20.4998C16.7876 21.0867 16.4114 21.9244 16.3722 22.9267V37.4463C16.3722 37.8721 16.0266 38.2185 15.6 38.2185H4.63625C4.20964 38.2185 3.86409 37.872 3.86409 37.4463V23.6583H2.99585C2.56924 23.6583 2.22365 23.3128 2.22365 22.8862C2.22365 22.4596 2.56924 22.114 2.99585 22.114H3.86409V11.0381H2.9958ZM5.4084 12.3619H34.5916V11.0726H5.4084V12.3619ZM31.3258 36.2846V33.4906H28.6365V36.2846H31.3258ZM27.0922 36.6741V32.7185C27.0922 32.2919 27.4382 31.9463 27.8643 31.9463H32.098C32.5246 31.9463 32.8702 32.2919 32.8702 32.7185V36.6741H34.5916V23.6583H25.1716V36.6741H27.0922ZM20.0094 18.0791C21.3245 18.0791 22.6461 18.5306 23.6273 19.4071V16.2253H16.3722V19.4252C17.3555 18.5375 18.6853 18.0791 20.0094 18.0791ZM11.2027 36.2846V33.4906H8.5135V36.2846H11.2027ZM5.4084 36.6741H6.9691V32.7185C6.9691 32.2919 7.31515 31.9463 7.7413 31.9463H11.9749C12.4014 31.9463 12.747 32.2919 12.747 32.7185V36.6741H14.8279V23.6583H5.40834V36.6741H5.4084ZM14.8279 22.114V15.4532C14.8279 15.0274 15.1739 14.681 15.6 14.681H24.3995C24.8261 14.681 25.1716 15.0274 25.1716 15.4532V22.114H34.5916V13.9062H5.4084V22.114H14.8279V22.114Z" fill="#131313"/>
  <path d="M37.0042 8.61125H2.9958C2.5692 8.61125 2.22359 8.26564 2.22359 7.83909C2.22359 7.41249 2.5692 7.06689 2.9958 7.06689H37.0042C37.4303 7.06689 37.7764 7.41249 37.7764 7.83909C37.7764 8.26564 37.4304 8.61125 37.0042 8.61125Z" fill="#131313"/>
  <path d="M27.4507 16.5984H32.2631C32.6896 16.5984 33.0352 16.944 33.0352 17.3706V19.9991C33.0352 20.4257 32.6896 20.7712 32.2631 20.7712H27.4507C27.0242 20.7712 26.6786 20.4257 26.6786 19.9991V17.3706C26.6786 16.944 27.0242 16.5984 27.4507 16.5984ZM28.2229 19.227H31.4909V18.1428H28.2229V19.227Z" fill="#131313"/>
  <path d="M7.59479 16.5984H12.4071C12.8337 16.5984 13.1792 16.944 13.1792 17.3706V19.9991C13.1792 20.4257 12.8337 20.7712 12.4071 20.7712H7.59479C7.16824 20.7712 6.82264 20.4257 6.82264 19.9991V17.3706C6.82259 16.944 7.16819 16.5984 7.59479 16.5984ZM8.367 19.227H11.6349V18.1428H8.367V19.227Z" fill="#131313"/>
  <path d="M35.4319 6.19394H4.61814C4.19204 6.19394 3.84604 5.84834 3.84604 5.42174V2.55369C3.84604 2.12794 4.19204 1.78149 4.61814 1.78149H35.4319C35.858 1.78149 36.204 2.12794 36.204 2.55369V5.42174C36.204 5.84834 35.858 6.19394 35.4319 6.19394ZM14.1272 4.64954H16.9953V3.32584H14.1272V4.64954ZM12.5829 3.32584H9.75879V4.64959H12.5829V3.32584ZM18.5397 4.64954H21.4077V3.32584H18.5397V4.64954ZM22.9521 4.64954H25.8201V3.32584H22.9521V4.64954ZM27.3645 4.64954H30.2326V3.32584H27.3645V4.64954ZM5.3903 4.64954H8.21439V3.32584H5.3903V4.64954ZM34.6597 3.32584H31.7769V4.64959H34.6597V3.32584Z" fill="#131313"/>
</svg>
