<svg width="27" height="25" viewBox="0 0 27 25" fill="none"
  xmlns="http://www.w3.org/2000/svg">
  <g clip-path="url(#clip0_7_215)">
    <path d="M13.5 17.1838C16.2959 17.1838 18.5625 15.1672 18.5625 12.6795C18.5625 10.1918 16.2959 8.17517 13.5 8.17517C10.7041 8.17517 8.4375 10.1918 8.4375 12.6795C8.4375 15.1672 10.7041 17.1838 13.5 17.1838Z" fill="#131313"/>
    <path d="M13.5 5.17224C5.0625 5.17224 0 12.6329 0 12.6329C0 12.6329 5.0625 20.1867 13.5 20.1867C21.9375 20.1867 27 12.6795 27 12.6795C27 12.6795 21.9375 5.17224 13.5 5.17224ZM13.5 18.6852C6.11719 18.6852 2.10938 12.6795 2.10938 12.6795C2.10938 12.6795 6.11719 6.67368 13.5 6.67368C20.8828 6.67368 24.8906 12.6795 24.8906 12.6795C24.8906 12.6795 20.8828 18.6852 13.5 18.6852Z" fill="#131313"/>
  </g>
  <defs>
    <clipPath id="clip0_7_215">
      <rect width="27" height="24.0231" fill="white" transform="translate(0 0.667969)"/>
    </clipPath>
  </defs>
</svg>
