<svg width="32" height="32" viewBox="0 0 32 32" fill="none"
  xmlns="http://www.w3.org/2000/svg">
  <path d="M15.829 28.72C15.4377 28.721 15.0501 28.6437 14.6884 28.4927C14.3268 28.3417 13.9983 28.1199 13.7218 27.84L3.53192 17.54C2.72696 16.7175 2.09197 15.7413 1.66396 14.6683C1.23594 13.5952 1.02345 12.4469 1.03887 11.29C1.04662 10.2298 1.26122 9.18164 1.67037 8.20545C2.07952 7.22925 2.67519 6.34424 3.42324 5.6011C4.17129 4.85796 5.05704 4.27131 6.02975 3.87473C7.00246 3.47815 8.04301 3.27945 9.09181 3.29C10.1594 3.27913 11.2182 3.48508 12.2056 3.89562C13.1929 4.30617 14.0887 4.91296 14.8397 5.68L15.829 6.68L16.6402 5.86C18.041 4.40657 19.9154 3.51551 21.9162 3.35187C23.9171 3.18824 25.9088 3.7631 27.5226 4.97C28.4411 5.68505 29.1985 6.58972 29.7441 7.62376C30.2898 8.6578 30.6112 9.79749 30.687 10.9669C30.7628 12.1364 30.5913 13.3087 30.1838 14.4059C29.7764 15.5031 29.1423 16.4999 28.3239 17.33L17.9362 27.84C17.6597 28.1199 17.3312 28.3417 16.9695 28.4927C16.6079 28.6437 16.2203 28.721 15.829 28.72ZM9.05224 5.28C7.47976 5.27838 5.96834 5.89522 4.8378 7C4.26143 7.56054 3.80307 8.23305 3.49026 8.97713C3.17745 9.72121 3.01664 10.5215 3.01748 11.33C3.00881 12.2193 3.17486 13.1015 3.50602 13.9255C3.83717 14.7494 4.32683 15.4988 4.94662 16.13L15.1365 26.43C15.2284 26.5237 15.3378 26.5981 15.4584 26.6489C15.579 26.6997 15.7083 26.7258 15.8389 26.7258C15.9695 26.7258 16.0988 26.6997 16.2193 26.6489C16.3399 26.5981 16.4493 26.5237 16.5413 26.43L26.9389 15.91C27.5492 15.28 28.0207 14.5267 28.3225 13.6994C28.6243 12.8721 28.7495 11.9897 28.6899 11.11C28.6371 10.2213 28.3949 9.35466 27.98 8.56935C27.5651 7.78404 26.9872 7.09862 26.2859 6.56C25.0554 5.64289 23.5369 5.20926 22.0135 5.33988C20.4901 5.4705 19.0656 6.15648 18.0054 7.27L16.5314 8.8C16.4394 8.89373 16.33 8.96812 16.2094 9.01889C16.0889 9.06966 15.9596 9.0958 15.829 9.0958C15.6984 9.0958 15.5691 9.06966 15.4485 9.01889C15.328 8.96812 15.2185 8.89373 15.1266 8.8L13.4448 7.1C12.2864 5.93928 10.7229 5.28557 9.09181 5.28H9.05224Z" fill="#FBFBFB"/>
</svg>
