<svg width="84" height="84" viewBox="0 0 84 84" fill="none"
  xmlns="http://www.w3.org/2000/svg">
  <path d="M46.1667 67H37.8333V83.6667H46.1667V67Z" fill="#464C54"/>
  <path d="M67 10L42 0L17 10V25.3333H0.333344V83.6667H29.5V58.6667H54.5V83.6667H83.6667V25.3333H67V10ZM21.1667 67H12.8333V58.6667H21.1667V67ZM21.1667 50.3333H12.8333V42H21.1667V50.3333ZM37.8333 50.3333H29.5V42H37.8333V50.3333ZM37.8333 17H46.1667V33.6667H37.8333V17ZM54.5 50.3333H46.1667V42H54.5V50.3333ZM71.1667 67H62.8333V58.6667H71.1667V67ZM71.1667 42V50.3333H62.8333V42H71.1667Z" fill="#464C54"/>
</svg>
