<svg width="38" height="38" viewBox="0 0 38 38" fill="none"
  xmlns="http://www.w3.org/2000/svg">
  <g clip-path="url(#clip0_202_998)">
    <path d="M0 30.894V7.144C0 5.168 0.696667 3.48333 2.09 2.09C3.48333 0.696667 5.168 0 7.144 0H24.586L19.798 4.75H7.144C6.48533 4.75 5.91533 4.99067 5.434 5.472C4.95267 5.95333 4.72467 6.51067 4.75 7.144V30.894C4.75 31.5527 4.978 32.11 5.434 32.566C5.89 33.022 6.46 33.25 7.144 33.25H30.894C31.5273 33.25 32.0847 33.022 32.566 32.566C33.0473 32.11 33.2753 31.5527 33.25 30.894V18.202L38 13.452V30.894C38 32.87 37.3033 34.542 35.91 35.91C34.5167 37.278 32.8447 37.9747 30.894 38H7.144C5.168 38 3.48333 37.3033 2.09 35.91C0.696667 34.5167 0 32.8447 0 30.894ZM7.144 30.894L9.652 21.584L24.206 7.106L31.008 13.718L16.378 28.31L7.144 30.894ZM26.258 5.054L29.906 1.406C30.818 0.468667 31.9327 0 33.25 0C34.5673 0 35.682 0.468667 36.594 1.406C37.506 2.34333 37.9747 3.458 38 4.75C38.0253 6.042 37.5567 7.16933 36.594 8.132L33.06 11.666L26.258 5.054Z" fill="#FBFBFB"/>
  </g>
  <defs>
    <clipPath id="clip0_202_998">
      <rect width="38" height="38" fill="white"/>
    </clipPath>
  </defs>
</svg>
