<svg width="96" height="92" viewBox="0 0 96 92" fill="none"
  xmlns="http://www.w3.org/2000/svg">
  <path d="M93.419 70.9987L66.0863 58.8549V49.4423L69.9252 53.7426C70.1863 54.0322 70.5051 54.2639 70.8611 54.4229C71.2172 54.5818 71.6026 54.6644 71.9925 54.6654C72.6737 54.6709 73.3322 54.4207 73.838 53.9643C74.386 53.4746 74.7171 52.7875 74.7587 52.0538C74.8002 51.3201 74.5488 50.5999 74.0597 50.0515L50.7686 23.9182V13.8416H56.3053C57.0382 13.8396 57.7404 13.547 58.2579 13.0281C58.7754 12.5092 59.066 11.8062 59.066 11.0733C59.066 10.3404 58.7754 9.63741 58.2579 9.11847C57.7404 8.59952 57.0382 8.30697 56.3053 8.30495H50.7686V2.76832C50.7686 2.03412 50.477 1.32998 49.9578 0.810823C49.4387 0.291662 48.7345 0 48.0003 0C47.2661 0 46.562 0.291662 46.0428 0.810823C45.5237 1.32998 45.232 2.03412 45.232 2.76832V8.30495H39.6953C38.9625 8.30697 38.2603 8.59952 37.7428 9.11847C37.2253 9.63741 36.9346 10.3404 36.9346 11.0733C36.9346 11.8062 37.2253 12.5092 37.7428 13.0281C38.2603 13.547 38.9625 13.8396 39.6953 13.8416H45.232V23.9182L21.941 50.0515C21.6986 50.323 21.5121 50.6395 21.3921 50.9831C21.272 51.3266 21.2209 51.6905 21.2414 52.0538C21.262 52.4171 21.354 52.7729 21.512 53.1007C21.6701 53.4285 21.8912 53.7219 22.1626 53.9643C22.4341 54.2066 22.7507 54.3932 23.0942 54.5132C23.4378 54.6332 23.8016 54.6844 24.1649 54.6638C24.5283 54.6432 24.884 54.5513 25.2118 54.3932C25.5396 54.2352 25.833 54.0141 26.0754 53.7426L29.9143 49.4243V58.8548L2.5816 70.9986C2.00228 71.2566 1.52909 71.7056 1.24118 72.2707C0.953274 72.8357 0.868102 73.4825 0.99991 74.1028C1.13172 74.7231 1.47252 75.2793 1.9653 75.6785C2.45809 76.0776 3.07299 76.2955 3.70715 76.2956C4.09534 76.298 4.4794 76.2159 4.83269 76.055L9.24379 74.0986V88.5827C9.24375 88.9467 9.31543 89.3072 9.45472 89.6435C9.59401 89.9799 9.7982 90.2855 10.0556 90.5429C10.313 90.8003 10.6186 91.0045 10.955 91.1438C11.2913 91.2831 11.6518 91.3547 12.0158 91.3547H38.7627C38.7653 91.3547 38.7678 91.3536 38.7696 91.3518C38.7715 91.3499 38.7726 91.3474 38.7726 91.3448V75.189C38.7726 69.9371 43.0728 65.3431 48.3211 65.5224C50.7083 65.6147 52.9677 66.6256 54.6274 68.3441C56.2871 70.0625 57.2188 72.3557 57.2281 74.7447V91.3547H83.9948C84.3576 91.3547 84.7167 91.2833 85.0519 91.1445C85.387 91.0057 85.6915 90.8023 85.948 90.5458C86.2044 90.2893 86.4079 89.9848 86.5467 89.6497C86.6855 89.3145 86.7569 88.9554 86.7568 88.5927V74.0986L91.168 76.055C91.5 76.2028 91.8578 76.2838 92.2211 76.2933C92.5844 76.3028 92.946 76.2407 93.2853 76.1104C93.6246 75.9802 93.9349 75.7844 94.1985 75.5342C94.4621 75.284 94.6739 74.9844 94.8217 74.6524C94.9695 74.3204 95.0504 73.9625 95.0599 73.5992C95.0694 73.2359 95.0073 72.8743 94.8771 72.535C94.7468 72.1958 94.551 71.8854 94.3009 71.6218C94.0507 71.3582 93.751 71.1465 93.419 70.9987ZM53.4351 50.2479C53.2392 51.232 52.7797 52.1444 52.1057 52.8878C51.4317 53.6312 50.5686 54.1776 49.6084 54.4687C48.6481 54.7599 47.6269 54.7849 46.6535 54.541C45.6802 54.2972 44.7914 53.7936 44.0819 53.0841C43.3724 52.3746 42.8688 51.4858 42.6249 50.5124C42.3811 49.5391 42.4061 48.5178 42.6972 47.5576C42.9884 46.5974 43.5348 45.7342 44.2782 45.0603C45.0216 44.3863 45.934 43.9268 46.918 43.7309C47.8123 43.5509 48.7372 43.5947 49.6104 43.8585C50.4836 44.1223 51.2781 44.5979 51.9231 45.2429C52.5681 45.8879 53.0436 46.6824 53.3075 47.5556C53.5713 48.4288 53.6151 49.3537 53.4351 50.2479Z" fill="#464C54"/>
</svg>
