<svg width="34" height="33" viewBox="0 0 34 33" fill="none"
  xmlns="http://www.w3.org/2000/svg">
  <path d="M17 22.2734C20.5208 22.2734 23.375 19.5845 23.375 16.2676C23.375 12.9507 20.5208 10.2618 17 10.2618C13.4792 10.2618 10.625 12.9507 10.625 16.2676C10.625 19.5845 13.4792 22.2734 17 22.2734Z" fill="#131313"/>
  <path d="M17 6.258C6.375 6.258 0 16.2056 0 16.2056C0 16.2056 6.375 26.2772 17 26.2772C27.625 26.2772 34 16.2676 34 16.2676C34 16.2676 27.625 6.258 17 6.258ZM17 24.2753C7.70312 24.2753 2.65625 16.2676 2.65625 16.2676C2.65625 16.2676 7.70312 8.25992 17 8.25992C26.2969 8.25992 31.3438 16.2676 31.3438 16.2676C31.3438 16.2676 26.2969 24.2753 17 24.2753Z" fill="#131313"/>
</svg>
