<svg width="28" height="28" viewBox="0 0 28 28" fill="none"
  xmlns="http://www.w3.org/2000/svg">
  <path d="M26.1521 10.584C25.869 10.2513 25.5171 9.98396 25.1208 9.80028C24.7244 9.6166 24.293 9.52098 23.8561 9.52H16.8001V4.984C16.7984 4.46585 16.6637 3.95683 16.4087 3.50575C16.1538 3.05466 15.7872 2.67666 15.3441 2.408L13.5521 1.288C13.4189 1.20032 13.2685 1.1421 13.1109 1.11725C12.9534 1.0924 12.7923 1.10149 12.6386 1.1439C12.4848 1.18632 12.3419 1.26108 12.2194 1.36319C12.0969 1.46531 11.9976 1.59241 11.9281 1.736L6.55212 12.88H2.24012C1.94307 12.88 1.6582 12.998 1.44816 13.208C1.23812 13.4181 1.12012 13.703 1.12012 14V25.76C1.12012 26.057 1.23812 26.3419 1.44816 26.552C1.6582 26.762 1.94307 26.88 2.24012 26.88H22.1761C22.9031 26.8766 23.6055 26.6161 24.1589 26.1447C24.7123 25.6732 25.0812 25.0212 25.2001 24.304L26.8801 13.048C26.9471 12.609 26.9166 12.1607 26.7908 11.7348C26.665 11.309 26.4469 10.9161 26.1521 10.584ZM3.36012 15.12H6.16012V24.64H3.36012V15.12ZM24.6401 12.712L22.9601 23.968C22.933 24.156 22.8386 24.3277 22.6944 24.4513C22.5502 24.5749 22.366 24.6419 22.1761 24.64H8.40012V14.28L13.4401 3.864L14.1681 4.312C14.2863 4.38021 14.3846 4.47809 14.4533 4.59594C14.5221 4.7138 14.5589 4.84756 14.5601 4.984V10.64C14.5601 10.937 14.6781 11.2219 14.8882 11.432C15.0982 11.642 15.3831 11.76 15.6801 11.76H23.8561C23.9749 11.7572 24.0927 11.7815 24.2007 11.8309C24.3087 11.8804 24.4041 11.9537 24.4796 12.0454C24.5551 12.1371 24.6088 12.2447 24.6366 12.3602C24.6644 12.4757 24.6656 12.596 24.6401 12.712Z" fill="#BBBBBB"/>
</svg>
