<svg width="32" height="32" viewBox="0 0 32 32" fill="none"
  xmlns="http://www.w3.org/2000/svg">
  <path d="M16 21.952C14.8133 21.952 13.6533 21.6108 12.6666 20.9715C11.6799 20.3322 10.9109 19.4235 10.4567 18.3604C10.0026 17.2973 9.88378 16.1274 10.1153 14.9988C10.3468 13.8702 10.9182 12.8336 11.7574 12.0199C12.5965 11.2062 13.6656 10.6521 14.8295 10.4276C15.9933 10.2031 17.1997 10.3183 18.2961 10.7587C19.3925 11.199 20.3295 11.9448 20.9888 12.9015C21.6481 13.8583 22 14.9832 22 16.1339C22 17.6769 21.3679 19.1568 20.2426 20.2479C19.1174 21.339 17.5913 21.952 16 21.952ZM16 12.2552C15.2089 12.2552 14.4355 12.4826 13.7777 12.9088C13.1199 13.335 12.6072 13.9408 12.3045 14.6496C12.0017 15.3583 11.9225 16.1382 12.0769 16.8906C12.2312 17.643 12.6122 18.3341 13.1716 18.8766C13.731 19.419 14.4437 19.7884 15.2196 19.9381C15.9956 20.0878 16.7998 20.0109 17.5307 19.7174C18.2616 19.4238 18.8864 18.9267 19.3259 18.2888C19.7654 17.6509 20 16.901 20 16.1339C20 15.1052 19.5786 14.1186 18.8284 13.3912C18.0783 12.6638 17.0609 12.2552 16 12.2552Z" fill="#131313"/>
  <path d="M21 30.6791H11C9.93913 30.6791 8.92172 30.2705 8.17157 29.5431C7.42143 28.8157 7 27.8291 7 26.8004V24.3277C7.0018 24.1352 7.06267 23.9475 7.17487 23.7886C7.28707 23.6297 7.44551 23.5068 7.63 23.4356L11.27 22.0199C11.3934 21.9668 11.5266 21.9385 11.6615 21.9367C11.7965 21.9349 11.9304 21.9596 12.0553 22.0094C12.1801 22.0591 12.2933 22.1328 12.388 22.2261C12.4826 22.3193 12.5569 22.4302 12.6062 22.5521C12.6555 22.6739 12.6789 22.8041 12.6749 22.935C12.6709 23.0658 12.6396 23.1945 12.583 23.3133C12.5264 23.432 12.4455 23.5385 12.3453 23.6262C12.2451 23.7139 12.1277 23.781 12 23.8235L9 24.9871V26.8004C9 27.3147 9.21071 27.808 9.58579 28.1717C9.96086 28.5354 10.4696 28.7398 11 28.7398H21C21.5304 28.7398 22.0391 28.5354 22.4142 28.1717C22.7893 27.808 23 27.3147 23 26.8004V24.9871L20 23.8235C19.7533 23.7283 19.5558 23.542 19.4508 23.3056C19.3457 23.0692 19.3419 22.8021 19.44 22.5629C19.5381 22.3237 19.7302 22.1321 19.974 22.0303C20.2178 21.9285 20.4933 21.9247 20.74 22.0199L24.38 23.4356C24.5645 23.5068 24.7229 23.6297 24.8351 23.7886C24.9473 23.9475 25.0082 24.1352 25.01 24.3277V26.8004C25.01 27.3106 24.9062 27.8157 24.7046 28.287C24.5029 28.7582 24.2074 29.1862 23.8349 29.5465C23.4624 29.9068 23.0203 30.1923 22.5338 30.3867C22.0473 30.581 21.5261 30.6804 21 30.6791Z" fill="#131313"/>
  <path d="M9 11.2854C8.0111 11.2854 7.0444 11.0011 6.22215 10.4683C5.39991 9.93559 4.75904 9.17838 4.3806 8.29244C4.00217 7.40651 3.90315 6.43166 4.09608 5.49116C4.289 4.55066 4.76521 3.68675 5.46447 3.00869C6.16373 2.33063 7.05465 1.86886 8.02455 1.68179C8.99446 1.49471 9.99979 1.59072 10.9134 1.95769C11.827 2.32465 12.6079 2.94609 13.1573 3.7434C13.7068 4.54072 14 5.47811 14 6.43704C14 7.07374 13.8707 7.70421 13.6194 8.29244C13.3681 8.88068 12.9998 9.41517 12.5355 9.86538C12.0712 10.3156 11.52 10.6727 10.9134 10.9164C10.3068 11.16 9.65661 11.2854 9 11.2854ZM9 3.52799C8.40666 3.52799 7.82664 3.6986 7.33329 4.01825C6.83994 4.3379 6.45543 4.79223 6.22836 5.32379C6.0013 5.85535 5.94189 6.44026 6.05765 7.00456C6.1734 7.56886 6.45912 8.08721 6.87868 8.49404C7.29824 8.90088 7.83279 9.17794 8.41473 9.29019C8.99667 9.40243 9.59987 9.34483 10.1481 9.12465C10.6962 8.90447 11.1648 8.53161 11.4944 8.05322C11.8241 7.57483 12 7.01239 12 6.43704C12 5.66551 11.6839 4.92558 11.1213 4.38003C10.5587 3.83448 9.79565 3.52799 9 3.52799Z" fill="#131313"/>
  <path d="M8 19.4211H5C3.93913 19.4211 2.92172 19.0124 2.17157 18.285C1.42143 17.5576 1 16.5711 1 15.5424V13.8454C0.999807 13.6512 1.05976 13.4614 1.17208 13.3006C1.28441 13.1398 1.44394 13.0155 1.63 12.9436L4.82 11.7315C5.06294 11.638 5.33398 11.6404 5.57509 11.7383C5.8162 11.8362 6.00821 12.0217 6.11 12.2551C6.15871 12.3735 6.18286 12.5001 6.18108 12.6276C6.17929 12.7551 6.1516 12.8809 6.09958 12.998C6.04757 13.1151 5.97225 13.2211 5.87795 13.3099C5.78365 13.3988 5.6722 13.4687 5.55 13.5157L3 14.5048V15.5424C3 16.0567 3.21071 16.55 3.58579 16.9137C3.96086 17.2774 4.46957 17.4817 5 17.4817H8C8.26522 17.4817 8.51957 17.5839 8.70711 17.7657C8.89464 17.9476 9 18.1942 9 18.4514C9 18.7086 8.89464 18.9552 8.70711 19.1371C8.51957 19.3189 8.26522 19.4211 8 19.4211Z" fill="#131313"/>
  <path d="M23 11.2854C22.0111 11.2854 21.0444 11.0011 20.2222 10.4683C19.3999 9.93559 18.759 9.17838 18.3806 8.29244C18.0022 7.40651 17.9031 6.43166 18.0961 5.49116C18.289 4.55066 18.7652 3.68675 19.4645 3.00869C20.1637 2.33063 21.0546 1.86886 22.0246 1.68179C22.9945 1.49471 23.9998 1.59072 24.9134 1.95769C25.8271 2.32465 26.6079 2.94609 27.1574 3.7434C27.7068 4.54072 28 5.47811 28 6.43704C28 7.72292 27.4732 8.95613 26.5355 9.86538C25.5979 10.7746 24.3261 11.2854 23 11.2854ZM23 3.52799C22.4067 3.52799 21.8266 3.6986 21.3333 4.01825C20.8399 4.3379 20.4554 4.79223 20.2284 5.32379C20.0013 5.85535 19.9419 6.44026 20.0576 7.00456C20.1734 7.56886 20.4591 8.08721 20.8787 8.49404C21.2982 8.90088 21.8328 9.17794 22.4147 9.29019C22.9967 9.40243 23.5999 9.34483 24.1481 9.12465C24.6962 8.90447 25.1648 8.53161 25.4944 8.05322C25.8241 7.57483 26 7.01239 26 6.43704C26 5.66551 25.6839 4.92558 25.1213 4.38003C24.5587 3.83448 23.7957 3.52799 23 3.52799Z" fill="#131313"/>
  <path d="M27 19.4211H24C23.7348 19.4211 23.4804 19.3189 23.2929 19.137C23.1054 18.9552 23 18.7085 23 18.4514C23 18.1942 23.1054 17.9476 23.2929 17.7657C23.4804 17.5839 23.7348 17.4817 24 17.4817H27C27.5304 17.4817 28.0391 17.2774 28.4142 16.9137C28.7893 16.55 29 16.0567 29 15.5423V14.5048L26.45 13.5351C26.3278 13.4881 26.2164 13.4181 26.122 13.3293C26.0277 13.2405 25.9524 13.1345 25.9004 13.0174C25.8484 12.9003 25.8207 12.7744 25.8189 12.647C25.8171 12.5195 25.8413 12.3929 25.89 12.2745C25.9861 12.0358 26.1757 11.8436 26.4174 11.7401C26.6591 11.6365 26.9333 11.6299 27.18 11.7218L30.37 12.9339C30.5561 13.0057 30.7156 13.1301 30.8279 13.2909C30.9402 13.4517 31.0002 13.6415 31 13.8357V15.5326C31.0013 16.0428 30.8988 16.5482 30.6984 17.0199C30.498 17.4916 30.2035 17.9204 29.832 18.2816C29.4604 18.6428 29.019 18.9293 28.533 19.1249C28.0471 19.3204 27.5261 19.4211 27 19.4211Z" fill="#131313"/>
</svg>
