<svg width="97" height="38" viewBox="0 0 97 38" fill="none"
  xmlns="http://www.w3.org/2000/svg">
  <g clip-path="url(#clip0_27_1049)">
    <g filter="url(#filter0_d_27_1049)">
      <path d="M39.3445 36.682C39.1608 36.2181 38.8279 35.9018 38.5868 35.4905C38.0013 34.7841 37.3125 34.1726 36.6237 33.561C36.3826 33.4872 36.2793 33.2763 36.0497 33.192C35.9004 33.0127 35.6593 32.9178 35.4642 32.7808C35.0739 32.5066 34.6491 32.2747 34.2129 32.0427C33.3863 31.5577 32.3646 31.2519 31.3543 30.9356C30.2637 30.6931 29.1157 30.5138 27.9218 30.3662C26.7393 30.2081 25.5569 30.0605 24.6614 29.6282C24.1448 29.4911 23.766 29.2275 23.3182 29.0166C22.9049 28.7636 22.4572 28.5527 22.1128 28.2364C21.6881 28.0044 21.424 27.6143 21.0911 27.298C20.9763 27.0871 20.7811 26.9606 20.6893 26.7286C20.5745 26.6864 20.54 26.5599 20.4712 26.4861C20.3908 26.4017 20.3908 26.233 20.253 26.2014C20.1842 26.6337 20.2071 27.1504 20.253 27.5932C20.3104 27.783 20.3334 28.015 20.3908 28.2047C20.4252 28.3734 20.5974 28.6476 20.5286 28.7741C16.9468 28.6054 14.3293 27.5616 12.0562 26.1909C10.9312 25.5055 9.96686 24.6726 9.07141 23.7763C8.68109 23.2808 8.25632 22.8063 7.91192 22.258C7.55603 21.7203 7.25755 21.1087 6.93611 20.5394C6.40802 19.3057 5.91438 18.0405 5.7307 16.4905C5.48961 15.046 5.54702 13.2009 5.9029 11.8618C6.02918 11.1237 6.29322 10.5016 6.52282 9.85846C6.67207 9.56324 6.83279 9.26801 6.97055 8.96224C7.16571 8.70919 7.26903 8.36124 7.51011 8.13982C8.16448 7.01163 9.14029 6.16812 10.1391 5.35624C11.2182 4.62872 12.4466 4.03826 13.9275 3.67977C15.351 3.38455 17.2912 3.33183 18.8295 3.6376C21.9521 4.22805 24.3055 5.5144 26.2801 7.15924C28.2776 8.77245 29.816 10.818 30.8721 13.3063C31.9628 15.6681 32.3416 19.3479 31.3658 22.0261C30.964 21.8152 30.5622 21.6148 30.1604 21.4145C29.6782 21.288 29.2075 21.1404 28.645 21.0877C27.9677 21.0771 27.3018 21.0877 26.8656 21.288C27.7496 21.2036 28.4613 21.4251 29.0124 21.6148C29.3338 21.7308 29.5175 21.8046 29.7701 21.9417C30.2637 22.2053 30.6999 22.4478 31.0673 22.8063C32.112 23.6498 32.8582 24.7675 33.2141 26.2436C33.2141 26.2858 33.2715 26.2752 33.26 26.2014C33.3059 26.1909 33.3289 26.1592 33.3518 26.1171C33.4092 26.0538 33.4781 25.9905 33.5355 25.9167C33.6503 25.7902 33.7651 25.6637 33.8455 25.5055C34.0866 25.2419 34.2817 24.9467 34.4654 24.6409C34.8902 24.0716 35.2116 23.4178 35.579 22.7958C36.2104 21.4672 36.727 20.0333 37.0484 18.4095C37.6913 14.8035 36.9222 11.3873 35.579 8.86734C34.2014 6.32628 32.2727 4.29132 29.7815 2.76246C27.2674 1.24415 24.3285 0.126499 20.2875 0.0210608C20.2645 -0.0527461 20.2301 0.0316046 20.1497 0.0210608C18.0144 -0.0422022 16.2924 0.231938 14.5819 0.632604C13.7897 0.875112 12.9632 1.08599 12.2629 1.41285C11.4593 1.65536 10.8164 2.05602 10.0817 2.35125C9.81762 2.58321 9.41581 2.6992 9.14029 2.92062C8.78441 3.07877 8.52036 3.33183 8.16448 3.48998C7.59048 3.95391 6.98203 4.36512 6.4195 4.8396C5.86846 5.30353 5.38629 5.83072 4.85821 6.31573C4.77785 6.48444 4.64009 6.60042 4.50232 6.72694C4.41048 6.8851 4.29568 7.02217 4.14644 7.13815C4.08904 7.32794 3.90536 7.40175 3.83648 7.59154C3.68724 7.69698 3.6528 7.90785 3.4806 8.00275C3.33135 8.34015 3.06731 8.58266 2.89511 8.89897C2.68847 9.20475 2.52775 9.54215 2.3211 9.83738C1.99966 10.5227 1.65526 11.187 1.39121 11.9251C1.11569 12.642 0.88609 13.4012 0.725368 14.2236C0.553167 14.9933 0.392445 15.995 0.415405 16.8069C0.300604 17.1021 0.392445 17.6504 0.415405 17.9983C0.415405 18.0616 0.369485 18.0827 0.369485 18.1248C0.369485 18.515 0.484286 18.9894 0.507246 19.2319C0.599087 20.1282 0.771289 20.9611 1.04681 21.6887C1.21901 22.5005 1.58638 23.1332 1.85042 23.8607C2.25222 24.4722 2.52775 25.1998 3.00991 25.748C3.36579 26.3912 3.87092 26.8973 4.35308 27.4245C4.86969 27.9306 5.38629 28.4473 6.00622 28.8585C7.14275 29.7652 8.47444 30.4928 9.93242 31.1148C12.6532 32.3274 16.7172 33.1182 20.3678 32.9178C21.2977 32.8019 22.2391 32.6964 23.0886 32.5066C23.8693 32.243 24.7762 32.0849 25.7176 31.9794C27.8644 31.8529 29.7241 32.0322 31.3773 32.475C33.0534 32.8862 34.4999 33.5083 35.7512 34.3202C36.417 34.6787 36.9681 35.1426 37.5306 35.5854C38.1046 36.0388 38.5638 36.5976 39.0919 37.1037C39.1608 37.2935 39.2985 37.4306 39.4019 37.5993C39.5396 37.7364 39.4707 38.0527 39.8037 38.0105C40.0103 37.8207 39.7692 37.5466 39.7577 37.3146C39.5511 37.1143 39.5052 36.8507 39.3445 36.682Z" fill="#FCB316"/>
    </g>
    <path d="M31.01 25.4634C30.9641 25.4634 30.9526 25.495 30.9182 25.5056C30.8378 25.6637 30.8722 25.9168 30.9182 26.0749C31.1592 26.5283 31.2396 27.1188 31.7677 27.3086C32.0203 27.2348 31.9973 26.8974 31.9858 26.5705C31.871 26.1698 31.7103 25.8113 31.4462 25.5477C31.2626 25.4845 31.1363 25.379 31.01 25.4634ZM27.8874 26.6127C27.8874 26.5916 27.853 26.5705 27.8415 26.6127C27.4052 26.56 27.256 26.7814 27.0379 26.9395C26.659 27.8569 27.2675 28.7531 28.3351 28.7425C28.7599 28.6476 29.0239 28.3946 29.0928 27.9623C29.0354 27.1926 28.6795 26.697 27.8874 26.6127Z" fill="#FCB316"/>
    <g filter="url(#filter1_d_27_1049)">
      <path d="M53.6258 23.692C53.798 24.3562 54.1653 24.8307 54.5786 25.2735C54.9919 25.7164 55.4741 26.0854 56.0595 26.3595C56.6106 26.6759 57.2076 26.9395 57.8964 27.1187C58.2293 27.2241 58.5507 27.3507 58.964 27.3928C59.251 27.5405 59.5954 27.6143 59.6184 27.9938C59.6069 28.4472 59.274 28.6159 58.8492 28.7003C58.4244 28.6159 57.8964 28.6265 57.5405 28.4789C56.645 28.384 55.9218 28.1204 55.1641 27.8779C53.7176 27.3612 52.5007 26.6126 51.4905 25.6953C51.2838 25.379 50.9968 25.1259 50.7787 24.8201C50.5606 24.5144 50.4113 24.1453 50.1817 23.8396C48.4138 23.6287 47.2084 22.8906 46.1522 22.0366C45.1764 21.0138 44.3957 19.7907 44.0743 18.167C43.6955 16.6065 43.8103 14.6559 44.258 13.1481C45.2338 10.2275 47.2773 8.2874 51.1346 8.0238C52.2022 8.05544 53.1321 8.17142 53.9816 8.46665C54.8426 8.75133 55.6577 9.27852 56.3006 9.8268C56.358 9.86898 56.381 9.87952 56.4154 9.93224C56.5532 10.1115 56.8861 10.3645 57.0698 10.586C57.1042 10.6281 57.0927 10.7019 57.1272 10.7547C57.1961 10.8496 57.2994 10.8917 57.3683 10.9761C57.4027 11.0288 57.3912 11.0921 57.4257 11.1342C57.4716 11.1975 57.529 11.2924 57.5979 11.4084C57.6208 11.4506 57.7012 11.4822 57.7127 11.5138C57.816 11.6931 57.8619 11.9145 57.9538 12.1148C58.0456 12.3257 58.1719 12.5049 58.2522 12.7158C58.4818 13.3379 58.6311 14.076 58.7229 14.8351C58.9525 17.0282 58.4818 18.9894 57.5979 20.4444C57.1846 21.2036 56.6106 21.8257 55.9333 22.3529C55.3133 22.9539 54.4638 23.3124 53.6258 23.692ZM50.7787 9.96387C50.2621 9.9955 49.9521 10.2169 49.5274 10.3434C49.2518 10.5754 48.9074 10.7547 48.7008 11.0499C48.3564 11.2291 48.2645 11.6298 47.989 11.8618C47.7594 12.389 47.5413 12.9794 47.3921 13.6648C47.2543 14.3396 47.1625 15.0987 47.151 15.8473C47.1395 17.7241 47.5757 19.5904 48.3908 20.6975C48.873 21.2352 49.4585 21.6781 50.1702 22.0049C50.5835 22.0366 50.905 22.1631 51.3527 22.1736C51.6053 22.0893 52.0185 22.1736 52.1793 22.0049C52.5466 22.026 52.627 21.8046 52.9484 21.7835C53.1206 21.6254 53.3043 21.4988 53.5454 21.4039C53.7635 21.1825 53.9702 20.9611 54.1998 20.7502C54.3146 20.5921 54.3834 20.3706 54.5556 20.2547C55.5889 18.4411 55.7037 15.1198 55.0263 13.011C54.7738 12.2413 54.4179 11.6193 54.0161 11.1026C53.5798 10.6914 53.0632 10.3434 52.4777 10.0693C52.0071 9.97441 51.5593 9.85843 50.9394 9.91115C50.905 9.91115 50.8705 9.9217 50.882 9.96387C50.859 9.96387 50.8246 9.96387 50.7787 9.96387ZM63.3035 8.43501C64.2334 8.46665 65.324 8.36121 66.1506 8.48773C66.3342 8.75133 66.2654 9.06764 66.2654 9.36287C66.3342 13.359 66.2654 17.6503 66.2654 21.7308C66.2654 22.0577 66.2768 22.3951 66.2654 22.7114C66.2539 22.9855 66.3342 23.2807 66.1506 23.5338C65.7373 23.6287 65.1403 23.5865 64.6122 23.5865C64.0497 23.5865 63.4987 23.6603 63.1313 23.4811C63.028 18.652 63.028 13.4433 63.1313 8.60371C63.1543 8.51936 63.2117 8.46665 63.3035 8.43501ZM70.4212 8.43501H73.2108C73.4634 8.75133 73.5437 9.2258 73.6241 9.68973C74.4622 12.6209 75.2887 15.5627 76.0579 18.5676C76.2416 18.5887 76.1842 18.3884 76.2416 18.2935C76.3219 18.2197 76.276 18.0405 76.3564 17.9666C76.3908 17.7241 76.5515 17.5976 76.5401 17.3129C76.7467 16.9439 76.8156 16.4378 77.0107 16.0582C77.2518 15.1725 77.5733 14.3501 77.8488 13.4961C78.1128 12.6104 78.4687 11.809 78.6754 10.8812C79.0657 10.1326 79.1575 9.10982 79.6282 8.43501H80.8107C81.2354 9.17308 81.3961 10.1537 81.7635 10.9444C82.0046 11.8301 82.3375 12.6315 82.5901 13.5066C83.1756 15.2042 83.784 16.8806 84.3121 18.6309C84.5532 18.304 84.5532 17.7558 84.7254 17.3762C84.8287 16.9439 84.9205 16.5011 85.0813 16.1215C85.5405 14.3923 85.9767 12.6526 86.5048 10.9972C86.7 10.1326 86.8951 9.24689 87.2166 8.48773C87.9054 8.39284 88.9615 8.39284 89.6504 8.48773C89.7078 9.13091 89.3863 9.8268 89.1797 10.3962C89.0649 11.0921 88.7893 11.6298 88.6401 12.3046C88.2153 13.5382 87.8939 14.8457 87.4576 16.0688C87.1247 17.3762 86.677 18.5782 86.3326 19.8856C86.103 20.4866 85.9423 21.1509 85.7356 21.7941C85.506 22.3845 85.4257 23.112 85.0813 23.5971H83.4167C82.9919 22.9117 82.8426 21.9838 82.4638 21.2563C81.6372 18.8523 80.7188 16.5432 79.9152 14.1181C79.6397 14.3817 79.6397 14.9195 79.4445 15.2569C79.3182 15.6681 79.192 16.0793 79.0312 16.4589C78.8016 17.2918 78.4572 17.9983 78.2621 18.8523C77.9292 19.6009 77.6881 20.4339 77.4355 21.2563C77.0911 21.9733 76.9648 22.8906 76.5401 23.5443C76.1038 23.6709 75.415 23.5654 74.8754 23.5971C74.4622 23.1648 74.4162 22.3845 74.1637 21.7941C73.9685 21.1825 73.8308 20.5077 73.5782 19.9383C73.2568 18.6098 72.7746 17.4395 72.4531 16.1215C72.0284 14.8984 71.661 13.6226 71.2707 12.3573C71.0526 11.7563 70.8918 11.1131 70.6737 10.5016C70.5704 9.84789 70.0882 9.25743 70.2604 8.54045C70.2834 8.48773 70.3523 8.4561 70.4212 8.43501ZM93.8521 8.43501C94.782 8.46665 95.8611 8.36121 96.6991 8.48773C96.9058 9.0571 96.8139 9.66864 96.8139 10.2802V21.7203C96.8139 22.3423 96.8943 22.9433 96.6991 23.5232C96.0562 23.5865 95.1149 23.6181 94.3228 23.576C94.0932 23.5654 93.8176 23.6287 93.6684 23.4705C93.4617 22.9012 93.5536 22.3002 93.5536 21.6675V10.3434C93.5536 9.6581 93.4847 8.99384 93.6684 8.54045C93.7143 8.48773 93.7832 8.4561 93.8521 8.43501Z" fill="#0269B3"/>
    </g>
  </g>
  <defs>
    <filter id="filter0_d_27_1049" x="-3.64111" y="-0.00952148" width="47.5283" height="46.0239" filterUnits="userSpaceOnUse" color-interpolation-filters="sRGB">
      <feFlood flood-opacity="0" result="BackgroundImageFix"/>
      <feColorMatrix in="SourceAlpha" type="matrix" values="0 0 0 0 0 0 0 0 0 0 0 0 0 0 0 0 0 0 127 0" result="hardAlpha"/>
      <feOffset dy="4"/>
      <feGaussianBlur stdDeviation="2"/>
      <feComposite in2="hardAlpha" operator="out"/>
      <feColorMatrix type="matrix" values="0 0 0 0 0 0 0 0 0 0 0 0 0 0 0 0 0 0 0.25 0"/>
      <feBlend mode="normal" in2="BackgroundImageFix" result="effect1_dropShadow_27_1049"/>
      <feBlend mode="normal" in="SourceGraphic" in2="effect1_dropShadow_27_1049" result="shape"/>
    </filter>
    <filter id="filter1_d_27_1049" x="39.8462" y="8.0238" width="60.9883" height="28.6765" filterUnits="userSpaceOnUse" color-interpolation-filters="sRGB">
      <feFlood flood-opacity="0" result="BackgroundImageFix"/>
      <feColorMatrix in="SourceAlpha" type="matrix" values="0 0 0 0 0 0 0 0 0 0 0 0 0 0 0 0 0 0 127 0" result="hardAlpha"/>
      <feOffset dy="4"/>
      <feGaussianBlur stdDeviation="2"/>
      <feComposite in2="hardAlpha" operator="out"/>
      <feColorMatrix type="matrix" values="0 0 0 0 0 0 0 0 0 0 0 0 0 0 0 0 0 0 0.25 0"/>
      <feBlend mode="normal" in2="BackgroundImageFix" result="effect1_dropShadow_27_1049"/>
      <feBlend mode="normal" in="SourceGraphic" in2="effect1_dropShadow_27_1049" result="shape"/>
    </filter>
    <clipPath id="clip0_27_1049">
      <rect width="96.5248" height="38" fill="white" transform="translate(0.312012)"/>
    </clipPath>
  </defs>
</svg>
