<svg width="86" height="86" viewBox="0 0 86 86" fill="none"
  xmlns="http://www.w3.org/2000/svg">
  <path d="M40.325 66.6143C37.0624 66.6143 34.5791 67.4295 32.8735 69.0599C31.166 70.6903 30.3096 73.1001 30.3096 76.2821C30.3096 79.3566 31.1839 81.7395 32.929 83.4237C34.6741 85.1132 37.1376 85.9571 40.325 85.9571C43.4354 85.9571 45.8631 85.0935 47.6081 83.3699C49.3532 81.6428 50.224 79.2813 50.224 76.2821C50.224 73.1771 49.3604 70.787 47.6386 69.1154C45.9096 67.4492 43.473 66.6143 40.325 66.6143Z" fill="#464C54"/>
  <path d="M62.3159 5.67426C57.7078 1.91893 51.4943 0.0412598 43.6826 0.0412598C34.2011 0.0412598 25.2267 2.41163 16.77 7.15418L22.9709 19.6134C30.2523 15.8975 36.7399 14.0378 42.4284 14.0378C45.6929 14.0378 48.2334 14.6828 50.0502 15.9728C51.8741 17.2628 52.7807 19.1404 52.7807 21.6058C52.7807 23.8059 52.1464 25.7965 50.8762 27.5792C49.6059 29.3619 46.9811 31.6749 42.9982 34.5219C38.8648 37.5552 36.0179 40.42 34.4663 43.1129C32.9075 45.8058 32.1317 48.9753 32.1317 52.6177V56.8263H47.2104V53.415C47.2104 51.1378 47.6959 49.2996 48.6634 47.8931C49.6292 46.4938 51.9314 44.4423 55.5739 41.7495C60.8826 37.9565 64.4874 34.5434 66.383 31.5065C68.2804 28.4714 69.2318 24.8666 69.2318 20.6956C69.2318 14.4391 66.9259 9.42959 62.3159 5.67426Z" fill="#464C54"/>
</svg>
