<svg width="46" height="46" viewBox="0 0 46 46" fill="none"
  xmlns="http://www.w3.org/2000/svg">
  <path d="M9.58333 40.25H36.4167C37.4333 40.25 38.4083 39.8461 39.1272 39.1272C39.8461 38.4084 40.25 37.4333 40.25 36.4167V15.3333C40.2515 15.0811 40.2031 14.831 40.1077 14.5975C40.0123 14.364 39.8718 14.1516 39.6942 13.9725L32.0275 6.30583C31.8484 6.1282 31.636 5.98766 31.4025 5.89227C31.169 5.79689 30.9189 5.74854 30.6667 5.75H9.58333C8.56667 5.75 7.59165 6.15387 6.87276 6.87276C6.15387 7.59165 5.75 8.56667 5.75 9.58333V36.4167C5.75 37.4333 6.15387 38.4084 6.87276 39.1272C7.59165 39.8461 8.56667 40.25 9.58333 40.25ZM28.75 36.4167H17.25V26.8333H28.75V36.4167ZM24.9167 13.4167H21.0833V9.58333H24.9167V13.4167ZM9.58333 9.58333H13.4167V17.25H28.75V9.58333H29.8808L36.4167 16.1192V36.4167H32.5833V26.8333C32.5833 25.8167 32.1795 24.8416 31.4606 24.1228C30.7417 23.4039 29.7667 23 28.75 23H17.25C16.2333 23 15.2583 23.4039 14.5394 24.1228C13.8205 24.8416 13.4167 25.8167 13.4167 26.8333V36.4167H9.58333V9.58333Z" fill="#FBFBFB"/>
</svg>
