<svg width="40" height="40" viewBox="0 0 40 40" fill="none"
  xmlns="http://www.w3.org/2000/svg">
  <path d="M37.5106 31.7644L29.6519 23.9051C30.9871 21.7793 31.7621 19.2668 31.7621 16.5704C31.7621 8.94193 25.5779 2.75862 17.9497 2.75862C10.3215 2.75862 4.13794 8.94193 4.13794 16.5704C4.13794 24.1992 10.3212 30.3819 17.9497 30.3819C20.8841 30.3819 23.6021 29.4645 25.8387 27.9057L33.6038 35.6714C34.1434 36.2104 34.8507 36.4789 35.5572 36.4789C36.2646 36.4789 36.971 36.2104 37.5115 35.6714C38.5897 34.592 38.5897 32.8435 37.5106 31.7644ZM17.9497 25.9071C12.7938 25.9071 8.61362 21.7273 8.61362 16.571C8.61362 11.4147 12.7938 7.23459 17.9497 7.23459C23.106 7.23459 27.2859 11.4147 27.2859 16.571C27.2859 21.7273 23.106 25.9071 17.9497 25.9071Z" fill="white"/>
</svg>
