<svg width="35" height="35" viewBox="0 0 35 35" fill="none"
  xmlns="http://www.w3.org/2000/svg">
  <path d="M2.62132 9.65836C2.24805 9.65836 1.94565 9.35596 1.94565 8.98268C1.94565 8.61019 2.24805 8.30701 2.62132 8.30701H32.3787C32.7516 8.30701 33.0544 8.61019 33.0544 8.98268C33.0544 9.35596 32.7516 9.65836 32.3787 9.65836H31.6189V19.3497H32.3787C32.7516 19.3497 33.0544 19.6521 33.0544 20.0254C33.0544 20.3986 32.7516 20.701 32.3787 20.701H31.6189V32.7655C31.6189 33.138 31.3162 33.4412 30.9433 33.4412H21.3496C20.9767 33.4412 20.6739 33.138 20.6739 32.7655V19.7962C20.4763 17.9871 18.987 17.1705 17.5083 17.1705C16.669 17.1705 15.8603 17.4502 15.2902 17.9373C14.6892 18.4509 14.36 19.1838 14.3257 20.0608V32.7655C14.3257 33.1381 14.0233 33.4412 13.65 33.4412H4.05672C3.68344 33.4412 3.38109 33.138 3.38109 32.7655V20.701H2.62137C2.24809 20.701 1.94569 20.3987 1.94569 20.0254C1.94569 19.6522 2.24809 19.3498 2.62137 19.3498H3.38109V9.65836H2.62132ZM4.73235 10.8166H30.2677V9.68854H4.73235V10.8166ZM27.4101 31.749V29.3043H25.057V31.749H27.4101ZM23.7057 32.0899V28.6287C23.7057 28.2554 24.0084 27.953 24.3813 27.953H28.0858C28.459 27.953 28.7614 28.2554 28.7614 28.6287V32.0899H30.2677V20.701H22.0252V32.0899H23.7057ZM17.5083 15.8192C18.659 15.8192 19.8153 16.2143 20.6739 16.9812V14.1972H14.3257V16.9971C15.1861 16.2203 16.3497 15.8192 17.5083 15.8192ZM9.80241 31.749V29.3043H7.44931V31.749H9.80241ZM4.73235 32.0899H6.09796V28.6287C6.09796 28.2554 6.40075 27.953 6.77364 27.953H10.478C10.8513 27.953 11.1537 28.2554 11.1537 28.6287V32.0899H12.9744V20.701H4.73231V32.0899H4.73235ZM12.9745 19.3497V13.5215C12.9745 13.149 13.2772 12.8459 13.65 12.8459H21.3496C21.7228 12.8459 22.0252 13.149 22.0252 13.5215V19.3498H30.2677V12.1679H4.73235V19.3498H12.9745V19.3497Z" fill="#131313"/>
  <path d="M32.3787 7.5349H2.62132C2.24805 7.5349 1.94565 7.2325 1.94565 6.85927C1.94565 6.48599 2.24805 6.18359 2.62132 6.18359H32.3787C32.7516 6.18359 33.0544 6.48599 33.0544 6.85927C33.0544 7.2325 32.7516 7.5349 32.3787 7.5349Z" fill="#131313"/>
  <path d="M24.0194 14.5237H28.2302C28.6034 14.5237 28.9058 14.826 28.9058 15.1993V17.4993C28.9058 17.8725 28.6034 18.1749 28.2302 18.1749H24.0194C23.6461 18.1749 23.3438 17.8725 23.3438 17.4993V15.1993C23.3437 14.826 23.6461 14.5237 24.0194 14.5237ZM24.695 16.8237H27.5545V15.875H24.695V16.8237Z" fill="#131313"/>
  <path d="M6.64545 14.5237H10.8562C11.2295 14.5237 11.5318 14.826 11.5318 15.1993V17.4993C11.5318 17.8725 11.2295 18.1749 10.8562 18.1749H6.64545C6.27222 18.1749 5.96982 17.8725 5.96982 17.4993V15.1993C5.96978 14.826 6.27217 14.5237 6.64545 14.5237ZM7.32113 16.8237H10.1806V15.875H7.32113V16.8237Z" fill="#131313"/>
  <path d="M31.0029 5.41973H4.04089C3.66805 5.41973 3.3653 5.11733 3.3653 4.74406V2.23451C3.3653 1.86198 3.66805 1.55884 4.04089 1.55884H31.0029C31.3757 1.55884 31.6785 1.86198 31.6785 2.23451V4.74406C31.6785 5.11733 31.3757 5.41973 31.0029 5.41973ZM12.3613 4.06838H14.8709V2.91014H12.3613V4.06838ZM11.01 2.91014H8.53896V4.06843H11.01V2.91014ZM16.2222 4.06838H18.7317V2.91014H16.2222V4.06838ZM20.0831 4.06838H22.5926V2.91014H20.0831V4.06838ZM23.944 4.06838H26.4535V2.91014H23.944V4.06838ZM4.71652 4.06838H7.1876V2.91014H4.71652V4.06838ZM30.3272 2.91014H27.8048V4.06843H30.3272V2.91014Z" fill="#131313"/>
</svg>
