<svg width="32" height="32" viewBox="0 0 32 32" fill="none"
  xmlns="http://www.w3.org/2000/svg">
  <path fill-rule="evenodd" clip-rule="evenodd" d="M31.3337 26.6667C31.3337 28.508 29.8417 30 28.0003 30H4.00033C2.15899 30 0.666992 28.508 0.666992 26.6667V7.33333C0.666992 5.86066 1.86099 4.66666 3.33366 4.66666H16.781L22.1803 2.71066C22.5223 2.586 22.901 2.76266 23.0257 3.10333L23.5943 4.66666H26.0003C27.473 4.66666 28.667 5.86066 28.667 7.33333V8.66666C30.1397 8.66666 31.3337 9.86066 31.3337 11.3333V26.6667ZM3.33366 6C2.59766 6 2.00033 6.59733 2.00033 7.33333C2.00033 8.06933 2.59766 8.66666 3.33366 8.66666H5.63032H5.75633C5.76499 8.66333 5.77033 8.656 5.77899 8.65266L13.1003 6H3.33366ZM22.719 6.12066L22.011 4.17133L20.643 4.66666H20.645L16.969 6H16.9623L9.60299 8.66666H23.6443L22.719 6.12066ZM27.3337 7.33333C27.3337 6.59733 26.7363 6 26.0003 6H24.0783L25.0477 8.66666H27.3337V7.33333ZM28.667 10H3.33366C2.84566 10 2.39366 9.85933 2.00033 9.63V26.6667C2.00033 27.7713 2.89633 28.6667 4.00033 28.6667H28.0003C29.105 28.6667 30.0003 27.7713 30.0003 26.6667V22H27.3337C25.861 22 24.667 20.806 24.667 19.3333C24.667 17.8607 25.861 16.6667 27.3337 16.6667H30.0003V11.3333C30.0003 10.5973 29.403 10 28.667 10ZM30.0003 20.6667V18H27.3337C26.5977 18 26.0003 18.5973 26.0003 19.3333C26.0003 20.0693 26.5977 20.6667 27.3337 20.6667H30.0003ZM27.3337 18.6667H28.667V20H27.3337V18.6667Z" fill="#FBFBFB"/>
</svg>
