<svg width="115" height="115" viewBox="0 0 115 115" fill="none"
  xmlns="http://www.w3.org/2000/svg">
  <path d="M42.2266 33.2422C42.2266 31.7508 41.0227 30.5469 39.5312 30.5469H38.6598L38.9383 3.6207C38.9563 2.1293 37.7613 0.916406 36.2699 0.898438C36.2609 0.898438 36.252 0.898438 36.243 0.898438C34.7695 0.898438 33.5656 2.08438 33.5477 3.5668L33.2691 30.5469H32.3438C30.8523 30.5469 29.6484 31.7508 29.6484 33.2422C29.6484 34.7336 30.8523 35.9375 32.3438 35.9375H35.9105C35.9195 35.9375 35.9285 35.9375 35.9375 35.9375H39.5312C41.0227 35.9375 42.2266 34.7336 42.2266 33.2422Z" fill="#464C54"/>
  <path d="M71.0754 73.4832C71.0844 73.4832 71.0934 73.4742 71.1023 73.4742C71.1383 73.4562 71.1652 73.4382 71.2012 73.4293C71.318 73.3753 71.4258 73.3214 71.5246 73.2496C71.5695 73.2226 71.6055 73.1957 71.6414 73.1687C71.7402 73.0968 71.8301 73.025 71.9199 72.9351C71.9469 72.9082 71.9738 72.8902 72.0008 72.8632C72.1086 72.7554 72.2074 72.6296 72.2973 72.5039C72.3152 72.4769 72.3332 72.441 72.3512 72.414C72.4141 72.3062 72.477 72.2074 72.5219 72.0906C72.5398 72.0457 72.5578 72.0007 72.5758 71.9558C72.6207 71.839 72.6566 71.7132 72.6926 71.5875C72.7016 71.5605 72.7106 71.5246 72.7195 71.4976C72.7465 71.3628 72.7645 71.2191 72.7734 71.0843L73.6719 48.4796C73.7168 47.4195 73.1328 46.4402 72.1895 45.964C71.2461 45.4878 70.1141 45.6136 69.2875 46.2695C65.9273 48.9828 61.7406 50.4742 57.5 50.4742C51.4535 50.4742 45.7035 47.4734 42.1098 42.4511C41.2473 41.2382 39.5582 40.9597 38.3453 41.8312C37.1324 42.6937 36.8539 44.3828 37.7254 45.5957C38.7945 47.096 40.0254 48.4437 41.373 49.6476L42.2266 71.0843C42.2715 72.1445 42.9273 73.0878 43.9156 73.4832L46.7996 74.6332L48.3898 108.711H44.0234C42.532 108.711 41.3281 109.915 41.3281 111.406C41.3281 112.898 42.532 114.102 44.0234 114.102H70.9766C72.468 114.102 73.6719 112.898 73.6719 111.406C73.6719 109.915 72.468 108.711 70.9766 108.711H66.6102L68.1914 74.6332L71.0754 73.4832Z" fill="#464C54"/>
  <path d="M88.9453 20.8168H74.5703C73.0789 20.8168 71.875 22.0207 71.875 23.5121V31.3195C71.875 36.9258 75.7023 41.6965 81.1738 42.9094C81.3625 42.9543 81.5602 42.9722 81.7578 42.9722C81.9555 42.9722 82.1531 42.9543 82.3418 42.9094C87.8133 41.6965 91.6406 36.9258 91.6406 31.3195V23.5121C91.6406 22.0207 90.4367 20.8168 88.9453 20.8168Z" fill="#464C54"/>
  <path d="M57.5 44.0234C61.4695 44.0234 64.6875 40.8055 64.6875 36.8359C64.6875 32.8664 61.4695 29.6484 57.5 29.6484C53.5305 29.6484 50.3125 32.8664 50.3125 36.8359C50.3125 40.8055 53.5305 44.0234 57.5 44.0234Z" fill="#464C54"/>
</svg>
