<svg width="132" height="132" viewBox="0 0 132 132" fill="none"
  xmlns="http://www.w3.org/2000/svg">
  <g clip-path="url(#clip0_119_72)">
    <path fill-rule="evenodd" clip-rule="evenodd" d="M86.93 63.1722L89.4048 66.8686L93.5006 66.6798L93.6341 66.6855L97.8855 67.3625L100.816 61.7844L95.8595 50.1959C92.9344 54.5139 90.5317 58.0269 87.9398 61.5623C87.9673 61.7454 87.9229 61.9397 87.7952 62.0949L86.93 63.1722ZM31.4451 104.448V101.124L29.6082 101.146V104.448H31.4451ZM29.3861 99.8307C29.4194 99.8249 29.4527 99.8195 29.4859 99.8195C29.6802 99.8028 29.8745 99.7917 30.0745 99.7865H30.0912H30.1024L30.1356 99.7807H30.1689H30.2022H30.23H30.2355L30.2688 99.775H30.3024H30.3357L30.4298 99.7693H30.4631H30.4964H30.513H30.5296H30.5635H30.5968H30.6301H30.6522H30.6634H30.6967H30.7242H30.7575L30.7908 99.7635H30.7962H30.8246H30.8579H30.8912H30.9245H30.9578H30.9911H31.0244L31.2241 99.7693H31.2519H31.2852L31.3854 99.775H31.4187H31.4519H31.4852H31.4964H31.5185L31.5518 99.7807H31.5857H31.6023C34.2272 99.8749 36.8633 100.541 39.4778 101.856L37.7738 97.6383C37.7075 97.4664 37.7075 97.2609 37.8016 97.0833C37.9351 96.8112 38.2292 96.6726 38.5122 96.7171L36.9304 92.7877C36.8578 92.6155 36.8636 92.4158 36.9525 92.2327L36.9583 92.2212L36.9637 92.2103L36.9694 92.1991L36.9806 92.1879L36.9861 92.177L36.9918 92.1661L36.9973 92.1549L37.0085 92.1437L37.0142 92.1328L37.0197 92.1219L37.0309 92.1107L37.0366 92.0995L37.0478 92.0938V92.088L37.0535 92.0823H37.059L37.0647 92.0711L37.0759 92.0602L37.0814 92.0548L37.0926 92.0436L37.1038 92.0324L37.1095 92.0266L37.1207 92.0157L37.1319 92.01L37.1431 92.0045L37.1488 91.9933L37.1603 91.9876L37.1715 91.9764L37.1827 91.9707L37.1939 91.9649L37.205 91.9592L37.2162 91.9535L37.2274 91.9426L37.2386 91.9371L37.2498 91.9314L37.261 91.9256L37.2722 91.9199L37.2834 91.9141L37.2946 91.9084H37.3058V91.903H37.317L37.3282 91.8972L37.3393 91.8915L37.3505 91.886H37.3617H37.3675L37.3787 91.8803L37.3899 91.8745H37.401L37.4128 91.8688H37.424H37.4295L37.4406 91.8631H37.4518H37.463L37.4742 91.8573H37.4909H37.5021H37.5133H37.5244L37.5411 91.8519H37.5523H37.5635H37.5913L37.6025 91.8573H37.6137H37.6303L36.537 89.1601V89.1492L36.5315 89.138L36.5258 89.1268L36.5203 89.1157V89.1047L36.5146 89.0938V89.0827L36.5092 89.0715V89.0605L36.5034 89.0491V89.0382L36.498 89.0273V89.0161V89.0049L36.4922 88.994V88.9859V88.9748V88.9578V88.9469H36.4868V88.936V88.9245V88.8803V88.8694V88.8582V88.847H36.4922V88.8361V88.8252V88.8138V88.8026L34.8996 84.862L34.7661 84.8008L34.6387 84.7457L34.5107 84.6843L34.3888 84.6292L34.2665 84.5678L34.1503 84.507L34.0335 84.4458L33.9227 84.385L33.8171 84.3236L33.7118 84.2628L33.6119 84.2016L33.5118 84.1351L33.4177 84.0739L33.323 84.0077L33.2343 83.9408H33.2286L33.1453 83.88L33.0561 83.8134L32.9729 83.7471L32.8954 83.6748L32.8173 83.6085L32.7396 83.5419L32.6675 83.4699L32.5958 83.3976L32.5289 83.331L32.4624 83.259H32.4569L32.3961 83.1812L32.3292 83.1089L32.2684 83.0366L32.213 82.9588L32.1521 82.881L32.0968 82.8087V82.803L32.0408 82.7255L31.9909 82.6477L31.891 82.4867L31.8414 82.4035L31.7909 82.3203L31.7467 82.2371L31.7025 82.1539L31.6505 82.0701V82.0643L31.6063 81.9814L31.5676 81.8924L31.5283 81.8035L31.4841 81.7148V81.7091L31.4454 81.6198L31.4066 81.5257L31.3733 81.437V81.431L31.3346 81.3369L31.2953 81.2427L31.262 81.1426L31.2287 81.0482L31.223 81.0424L31.1897 80.9483V80.9426L31.1564 80.8427L31.1231 80.7426L31.0843 80.6372L31.0505 80.5316L31.0172 80.4266L30.9839 80.321V80.3153L30.9506 80.2099L30.9173 80.0989H30.9116L30.8783 79.9878L30.845 79.8713L30.8063 79.7603V79.7545L30.7724 79.6435V79.6377L30.5621 78.9608L30.3121 79.7709L30.2728 79.8874L30.2395 79.9987V80.0042L30.2062 80.1152L30.1729 80.2208V80.2266L30.1397 80.3319H30.1342L30.1064 80.4372H30.1009L30.0731 80.5425H30.0676L30.0392 80.6479H30.0338L30.0059 80.748H30.0005L29.9726 80.8482H29.9669L29.9394 80.948H29.9336L29.9061 81.0421H29.9003L29.867 81.1368V81.1423L29.8337 81.2313V81.237L29.8005 81.326L29.7669 81.4149V81.4204L29.7281 81.5093L29.6949 81.5986H29.6891L29.6558 81.6815V81.6872L29.6171 81.7705L29.5783 81.8537L29.5396 81.9369V81.9424L29.5003 82.0201L29.4558 82.1036L29.4171 82.1866L29.3726 82.2643L29.3284 82.3421L29.2782 82.4196L29.234 82.4974L29.1841 82.5691L29.1341 82.6469L29.0842 82.7192L29.0288 82.7912L28.9729 82.8635L28.9175 82.9355L28.8566 83.0079L28.7958 83.0799L28.7344 83.1465H28.7286L28.6678 83.2185L28.6015 83.2851L28.5295 83.3517V83.3574L28.4569 83.4237L28.3849 83.4903L28.3074 83.5565L28.2293 83.6231L28.1461 83.6842L28.0629 83.7508L27.9736 83.8171L27.885 83.8837L27.7963 83.9445H27.7905L27.6959 84.0111L27.6017 84.0777L27.4958 84.1388L27.3963 84.2051H27.3905L27.2852 84.2665L27.1739 84.3325L27.0576 84.3939L26.9408 84.4602L26.8246 84.5268H26.8189L26.6966 84.5879L26.5692 84.6545L26.4358 84.7153L26.3029 84.7822L26.164 84.8482L24.5602 88.8115C24.5768 88.928 24.5656 89.0496 24.5157 89.1719L23.3833 91.9692H23.3945H23.4057H23.4114H23.4335H23.4453H23.4841H23.5228L23.5506 91.975H23.5561H23.5618L23.6006 91.9862H23.6063H23.612L23.6232 91.9919L23.6453 91.9977L23.6729 92.0034L23.7013 92.0143C23.973 92.1254 24.1392 92.3917 24.1283 92.6692V92.6858V92.7024V92.7194H24.1228V92.7363V92.7529L24.1171 92.7696V92.7865L24.1114 92.8032L24.1059 92.8198V92.8367H24.1002V92.8534L24.0947 92.8703L24.089 92.887L24.0778 92.9039L22.4906 96.8333C22.6068 96.8164 22.7348 96.8276 22.851 96.8775C23.2011 97.0161 23.3673 97.4101 23.2287 97.7596L21.5192 101.995C24.1332 100.796 26.7532 100.041 29.378 99.8301H29.3861V99.8307ZM118.449 89.9903V87.4541H118.438L117.455 87.4596H117.45V89.9903H118.449ZM117 86.1441L117.072 86.1384L117.139 86.1326H117.156H117.167H117.178C117.422 86.1157 117.666 86.1045 117.911 86.0993L117.922 86.0936H117.933H117.95H117.96H117.966H117.977H117.983H117.989H118.011H118.016H118.027H118.033H118.044H118.05H118.078H118.089H118.105H118.116H118.156H118.161H118.173H118.178H118.189H118.2H118.206H118.217H118.234H118.245H118.251H118.261H118.267H118.273H118.284H118.29H118.295H118.301H118.312H118.318H118.329H118.346H118.362H118.373H118.379H118.418H118.424H118.43H118.441H118.446H118.457H118.474H118.485H118.502H118.513H118.519H118.53H118.535H118.541H118.552H118.558H118.569H118.575H118.58H118.586H118.597H118.603H118.614V86.0993H118.63H118.642H118.648H118.659H118.664H118.67H118.681H118.687H118.693H118.698H118.709H118.715H118.726H118.743H118.754H118.759H118.77H118.776H118.782H118.804H118.81L118.837 86.1048H118.854H118.871H118.949H118.96L119.054 86.1105L119.381 86.1329H119.415C119.587 86.1441 119.759 86.1608 119.931 86.1829L119.981 86.1886L120.036 86.1943L120.097 86.2001L120.147 86.2055L120.209 86.2113L120.253 86.2222L120.364 86.2334L120.436 86.2446L120.475 86.2503L120.58 86.2672L120.663 86.2781L120.692 86.2839L120.908 86.3172L121.002 86.3335L121.019 86.3393L121.119 86.3562L121.125 86.3619L121.23 86.3786H121.236L121.347 86.401L121.563 86.4506H121.575L121.674 86.473H121.685L121.78 86.4951L121.797 86.5005L121.891 86.5229L121.913 86.5286L121.997 86.551L122.024 86.5565L122.107 86.5786L122.14 86.5843L122.218 86.6064L122.252 86.6173L122.324 86.6343L122.368 86.6454L122.434 86.6678L122.479 86.6787L122.54 86.6954L122.59 86.7123L122.651 86.7287L122.707 86.7456L122.762 86.7625L122.817 86.7795L122.867 86.7961L122.933 86.8128L122.978 86.8297L123.044 86.8515L123.089 86.8627L123.155 86.8848L123.194 86.9017L123.272 86.9238L123.305 86.935L123.383 86.9625L123.411 86.9737L123.5 87.007L123.522 87.0125L123.611 87.0461L123.633 87.0518L123.722 87.0848L123.739 87.0905L123.838 87.1293L123.85 87.135L123.949 87.1743H123.955L124.066 87.2185L124.177 87.2627L124.283 87.3072L124.289 87.3126L124.394 87.3517L124.405 87.3571L124.5 87.3961L124.516 87.4076L124.61 87.4464L124.632 87.4576L124.716 87.4963L124.744 87.5072L124.827 87.5408L124.855 87.5574L124.938 87.5904L124.971 87.6074L125.043 87.6461L125.082 87.663L125.154 87.6963L125.199 87.7184L123.889 84.4771C123.823 84.305 123.823 84.0998 123.911 83.9221C124.017 83.7109 124.222 83.5781 124.438 83.5499L123.178 80.4364C123.112 80.2587 123.117 80.0593 123.206 79.8814C123.306 79.6762 123.495 79.5485 123.7 79.5149L122.851 77.4117C122.807 77.3061 122.796 77.1951 122.807 77.084L121.509 73.8709C119.083 72.8329 118.695 71.5728 118.051 69.4694L117.984 69.2475L117.884 69.5804C117.24 71.673 116.93 72.6943 114.404 73.8654L113.883 75.1527L113.877 75.1697L113.1 77.0955V77.1064V77.1173V77.123V77.1291V77.1348V77.1457L113.106 77.1569V77.1681V77.179V77.1899H113.1V77.1916V77.1974V77.2031V77.214V77.2252V77.2361V77.2473V77.2585H113.094V77.2642L113.089 77.2972L113.078 77.3472L113.072 77.3584L113.066 77.3807V77.3865V77.3922L113.061 77.398L113.054 77.4089V77.4198L112.167 79.6013L112.311 79.6455L112.322 79.6512H112.328L112.339 79.6567H112.345L112.356 79.6627L112.372 79.6739L112.389 79.6793L112.4 79.6902H112.406L112.417 79.696L112.428 79.7072H112.434L112.445 79.7184L112.461 79.7293L112.473 79.735L112.483 79.7459L112.5 79.7571L112.511 79.7683L112.522 79.7792L112.533 79.7907L112.545 79.8016L112.556 79.8182L112.567 79.8294L112.578 79.8403L112.589 79.8515L112.6 79.8682L112.611 79.8794L112.617 79.896L112.628 79.9069L112.634 79.9238H112.639L112.645 79.935L112.651 79.952H112.656L112.662 79.9629L112.668 79.9795L112.673 79.9907H112.679L112.685 80.0073L112.69 80.024L112.696 80.0409L112.702 80.0521L112.708 80.069L112.713 80.0854V80.1023H112.719V80.119L112.724 80.1356V80.1468L112.73 80.1637V80.1807L112.736 80.1973V80.214V80.2309V80.2475V80.2972V80.3144V80.331V80.348V80.3646L112.73 80.3813V80.3982L112.724 80.4145V80.4318H112.719V80.4484L112.713 80.4653L112.708 80.482L112.702 80.4986L112.696 80.5156L112.69 80.5319L111.431 83.6515L111.603 83.6957L111.619 83.7012L111.636 83.7069V83.7124L111.647 83.7181L111.664 83.7238L111.681 83.735L111.697 83.7408L111.709 83.752L111.725 83.7577V83.7634L111.736 83.7689L111.753 83.7801L111.764 83.791L111.775 83.8022H111.781L111.792 83.8134L111.803 83.8243L111.815 83.8352L111.826 83.8464L111.837 83.8576H111.842L111.848 83.8688H111.854L111.859 83.88H111.865L111.871 83.8909V83.8966L111.882 83.9075L111.893 83.9187L111.904 83.9353L111.909 83.9462H111.915L111.921 83.9574V83.9632L111.932 83.9744L111.938 83.9856V83.9913L111.949 84.0022L111.954 84.0188L111.96 84.03L111.971 84.047L111.977 84.0633L111.982 84.0745V84.0803L111.988 84.0915L111.994 84.1081L111.999 84.125L112.005 84.1359V84.1417L112.011 84.1529V84.1695L112.017 84.1861V84.2031H112.022V84.2197V84.2364H112.028V84.2533V84.2702V84.2869L112.033 84.3035C112.039 84.3928 112.022 84.4869 111.984 84.5865L110.663 87.8501L110.701 87.8332L110.735 87.8166L110.773 87.7999H110.779L110.812 87.783L110.846 87.766L110.884 87.7494H110.89L110.923 87.7385L110.956 87.7216L110.996 87.7049L111.001 87.6992L111.035 87.6883L111.068 87.6714L111.107 87.6544H111.118L111.146 87.6432L111.179 87.6266L111.345 87.5603L111.367 87.5491L111.551 87.4768L111.573 87.4659L111.59 87.4604L111.623 87.4435L111.662 87.4323L111.684 87.4214L111.701 87.4157L111.734 87.4045L111.773 87.3878L111.801 87.3766L111.812 87.3709L111.851 87.3597C112.239 87.2102 112.634 87.0661 113.027 86.9439C113.338 86.8492 113.649 86.7605 113.954 86.6773H113.96C114.97 86.4107 115.98 86.2331 116.996 86.1501H117.001H117V86.1441ZM116.406 90.6951V90.673V87.5761C115.413 87.7035 114.419 87.9259 113.426 88.2421C112.471 88.5414 111.511 88.9303 110.551 89.3851L110.495 89.4184L110.379 89.4738L110.323 89.4962L110.318 89.5016L110.14 89.5906L110.085 89.6184L110.063 89.6296L110.024 89.6463L109.674 89.8296L109.657 89.8354V89.8411L109.64 89.8468L109.629 89.8523L109.612 89.858L109.596 89.8635V89.8692H109.579V89.875H109.562L109.545 89.8807L109.529 89.8864L109.512 89.8922H109.495V89.8976H109.478L109.461 89.9034H109.445H109.428L109.417 89.9091H109.4H109.383H109.333H109.317H109.3L109.283 89.9034H109.267H109.25L109.233 89.8976H109.216V89.8922H109.199L109.182 89.8864H109.171V89.8807H109.155V89.875H109.138L109.121 89.8692L109.11 89.8635L109.094 89.858V89.8523L109.077 89.8468L109.06 89.8411L109.049 89.8354L109.032 89.8296V89.8239L109.025 89.8181L109.008 89.8124V89.8067L108.997 89.8009L108.98 89.79L108.969 89.7843L108.952 89.7734L108.941 89.7622L108.924 89.751L108.913 89.7401L108.902 89.7344V89.7289L108.891 89.7177L108.874 89.7065L108.863 89.6956L108.852 89.6841L108.841 89.6732L108.83 89.6566L108.819 89.6454L108.813 89.6342V89.6287L108.802 89.6176L108.791 89.6009L108.78 89.5897L108.774 89.5731L108.763 89.5561L108.758 89.5452L108.752 89.5341L108.747 89.5283L108.741 89.5171V89.5117V89.5059L108.735 89.5002L108.729 89.4893V89.4835L108.724 89.4724L108.718 89.4666V89.4612V89.4554L108.712 89.4445V89.4388L108.706 89.4276V89.4218V89.4161L108.701 89.4104V89.3992L108.695 89.3937V89.388V89.3822L108.689 89.3713V89.3656V89.3544L108.684 89.3435V89.3378V89.3269V89.3211V89.3154L108.678 89.3096V89.2984V89.2927V89.287V89.2812V89.2703V89.2649V89.2537V89.2425V89.2368V89.2258V89.2201V89.2147V89.2089V89.1977V89.192V89.1862V89.1808V89.1693V89.1636V89.1527V89.1418L108.684 89.136V89.1248V89.1191V89.1082L108.689 89.0973V89.0915V89.0804L108.695 89.0746V89.0637V89.058V89.0525L108.701 89.0465V89.0356L108.706 89.0301V89.0189L108.712 89.0132V89.002L108.718 88.9966V88.9908V88.9851L108.724 88.9796V88.9739V88.9681L110.1 85.5662L110.089 85.5604H110.084H110.078H110.072H110.061L110.05 85.5547H110.039L110.033 85.5489H110.028H110.022H110.011L109.999 85.5432L109.983 85.5375L109.944 85.5266L109.927 85.5208H109.921L109.916 85.5154L109.905 85.5096L109.894 85.5039H109.888L109.877 85.4982L109.86 85.487L109.849 85.4812L109.832 85.47H109.827H109.821L109.816 85.4591L109.81 85.4534H109.804L109.787 85.4425L109.782 85.4367L109.765 85.4256L109.754 85.4198L109.748 85.4144L109.742 85.4086L109.725 85.392L109.708 85.3808L109.703 85.375L109.692 85.3641L109.681 85.3472L109.675 85.3415H109.669L109.664 85.3357L109.658 85.3248L109.653 85.3191L109.647 85.3079L109.641 85.3022H109.635L109.63 85.2913L109.624 85.2858L109.618 85.2746L109.613 85.2689L109.607 85.2577L109.601 85.2468L109.596 85.241L109.59 85.2298L109.584 85.2241L109.579 85.2132L109.573 85.202L109.567 85.1908V85.1851H109.562V85.1742L109.556 85.1687L109.55 85.1575V85.1518L109.545 85.1406L109.539 85.1297V85.124L109.533 85.113V85.107H109.528V85.0961V85.0849H109.522V85.0792V85.068H109.516V85.0625V85.0516L109.51 85.0404V85.0347V85.0235L109.505 85.0126V85.0069V84.996L109.499 84.9902V84.979V84.9678V84.9621V84.9509V84.94H109.494V84.9346V84.9234V84.9122V84.9064V84.8622V84.8511V84.8399V84.8344V84.8232H109.499V84.8178V84.8066V84.7954V84.7896V84.7787H109.505V84.7678V84.7621V84.7509L109.51 84.7452V84.7343V84.7228H109.516V84.7173V84.7061L109.522 84.7007V84.6895V84.6837H109.528V84.6726V84.6671H109.533V84.6562L109.539 84.645V84.6393L109.545 84.6281L110.816 81.4812C110.754 81.4703 110.693 81.4479 110.632 81.4261V81.4201L110.616 81.4146L110.599 81.4037L110.593 81.398H110.587L110.577 81.3922L110.571 81.3865L110.56 81.3808H110.554L110.532 81.3641L110.51 81.3475V81.3417L110.492 81.3305L110.487 81.3248L110.481 81.3194L110.47 81.3136L110.465 81.3082L110.459 81.3024V81.2964L110.453 81.2907H110.447L110.437 81.2798L110.431 81.274V81.2683L110.425 81.2625H110.419V81.2568H110.414L110.408 81.2513V81.2456L110.402 81.2402L110.397 81.2344L110.391 81.2287V81.2229L110.385 81.2172L110.38 81.2115V81.2057L110.374 81.2003H110.368V81.1945L110.363 81.1891V81.1833H110.357V81.1776L110.351 81.1719V81.1661H110.346V81.1549H110.34V81.1492L110.334 81.138L110.329 81.1325V81.1268L110.323 81.1213L110.312 81.1044V81.0932L110.306 81.0878V81.082L110.3 81.0763L110.295 81.0597L110.289 81.0539V81.0482V81.0424L110.284 81.0312L110.278 81.0255V81.0198V81.0143L110.272 81.0086V81.0031V80.9974V80.9916L110.267 80.9859V80.9802V80.9744V80.969L110.261 80.9578V80.9523V80.9466V80.9408H110.255V80.9297V80.9239V80.913L110.249 80.907V80.9012V80.8958V80.8849V80.8792V80.8734L110.243 80.8677V80.8565V80.851V80.8453V80.8286V80.8117V80.806V80.8005V80.7948V80.7839V80.7724V80.767V80.7558V80.75V80.7443V80.7385V80.7331L110.249 80.7273V80.7216V80.7162V80.7104V80.7047V80.6989V80.6932H110.255V80.6823V80.6766V80.6656L110.261 80.6599V80.6542V80.6484V80.6372L110.267 80.6315V80.6203L110.272 80.6148V80.6091V80.6037V80.5979L110.278 80.5922V80.5864V80.5807L110.284 80.575V80.5692L110.289 80.5638V80.558V80.5526L110.295 80.5414L110.4 80.2805L111.628 77.286V77.2806V77.2694V77.2582V77.2525V77.2467V77.241V77.1968V77.1799V77.1744V77.1687L111.633 77.1466V77.1354V77.1299V77.1242V77.1182V77.1124L111.639 77.107V77.0958V77.0849L111.645 77.0737V77.068V77.0622L111.65 77.0568V77.0459L111.656 77.0347V77.0235L111.662 77.0177V77.0068L111.667 76.9959V76.9899L111.673 76.979L111.679 76.9678L112.289 75.4469L109.292 74.9527C109.093 74.9252 108.926 74.8087 108.826 74.6477L101.594 63.2201L98.8637 68.426C98.7194 68.698 98.4141 68.8312 98.1311 68.7758L93.4963 68.0377L89.0785 68.2435C88.8343 68.2544 88.6122 68.1321 88.485 67.9433L86.0318 64.2747L83.4232 67.5105L83.412 67.5215L81.8693 69.4364L81.8581 69.4473L81.8472 69.4585L81.8415 69.4642L81.8357 69.47V69.4757L81.83 69.4811L81.824 69.4869L81.8182 69.4923L81.8128 69.4981H81.807L81.8013 69.5096L81.7956 69.515L81.7898 69.5207H81.7841L81.7786 69.5265L81.7729 69.5322L81.7672 69.538L81.7617 69.5437H81.756L81.7502 69.5492L81.7445 69.5549L81.7333 69.5603L81.7169 69.5715L81.7057 69.5827L81.6946 69.5885L81.6888 69.5942L81.6779 69.5997H81.6722L81.6667 69.6054L81.661 69.6109H81.6552L81.6495 69.6166L81.6383 69.6223H81.6329L76.2824 72.5419L71.9701 79.0687L71.4427 86.6673V86.6782V86.6891L71.4372 86.7003V86.706V86.7117V86.7172V86.7229V86.7284V86.7341V86.7399L71.4315 86.7456V86.7625L71.4258 86.768V86.774V86.7797L71.42 86.7907V86.8016V86.8073L71.414 86.8185V86.8242L71.4083 86.8351V86.846L71.4025 86.8518V86.863L71.3968 86.8687L71.3913 86.8799V86.8908L71.3856 86.8963L71.3798 86.9077V86.9135L71.3741 86.9244L71.3687 86.9301L71.3629 86.947L71.3572 86.9579L71.346 86.9746L71.3405 86.9803V86.9861V86.9918L71.3348 86.9973H71.329V87.003L71.3181 87.0196L71.3124 87.0311L71.3067 87.0366L71.3009 87.0423L71.2955 87.0535L71.2897 87.0592H71.284L71.2783 87.065L71.2728 87.0704V87.0762L71.2671 87.0816L71.2613 87.0874L71.2556 87.0931L71.2498 87.0988V87.1046L71.2444 87.1103H71.2387L71.2329 87.1158L71.2272 87.1215L71.2217 87.1324L71.2105 87.1382L71.2048 87.1439L71.1993 87.1496L71.1881 87.1554L71.1715 87.1666L71.1658 87.1778L71.16 87.1835L71.1485 87.189L58.378 96.1693H81.9103L82.3991 94.9591V94.948V94.9368V94.9313V94.9256V94.9198V94.9144V94.9086V94.8639V94.8475V94.8418V94.836L82.4048 94.8139V94.8027V94.7973V94.7916L82.4102 94.7858V94.7801V94.7743V94.7631L82.416 94.752V94.741V94.7353L82.4214 94.7244V94.7132L82.4272 94.702V94.6966V94.6908L82.4329 94.6854V94.6742L82.4387 94.663V94.6573L82.4444 94.6464L82.4501 94.6349L84.0095 90.7611C84.0818 90.5892 84.2095 90.4615 84.3708 90.3949L84.4704 90.3507L84.5702 90.3063V90.3005L84.6649 90.2563L84.7591 90.2121L84.8477 90.1677L84.937 90.1235L85.0202 90.0793L85.1034 90.0345L85.1869 89.9903L85.2644 89.9461L85.3367 89.9016L85.4145 89.8575L85.4808 89.813L85.5528 89.7688L85.6191 89.7246L85.686 89.6801V89.6744L85.7471 89.6302L85.8079 89.586L85.863 89.5415L85.9247 89.4973L85.9801 89.4474L86.03 89.4029L86.0851 89.353L86.1351 89.3085L86.1798 89.2586L86.2298 89.2144L86.274 89.1642L86.3182 89.1142L86.3572 89.0646L86.4019 89.0141L86.4407 88.9641L86.4794 88.9142L86.5182 88.8643L86.5515 88.8089L86.5847 88.7589L86.6235 88.7036L86.6516 88.6482L86.6849 88.5982V88.5925L86.7182 88.5423L86.7457 88.4869V88.4815L86.779 88.4261L86.8069 88.3704L86.8347 88.3096L86.8625 88.2539V88.2484L86.8846 88.1931L86.913 88.1319L86.9406 88.0708V88.0651L86.9627 88.0039L86.9905 87.9428L87.0126 87.8762L87.0404 87.8102L87.0625 87.7434L87.0846 87.6771L87.1067 87.6048L87.1346 87.5385V87.5325L87.1572 87.4662L87.1793 87.3941V87.3884L87.2014 87.3161L87.2293 87.2441L87.2514 87.1663L87.2735 87.0885L87.3013 87.0108L87.3234 86.933V86.9272L87.3455 86.8495L87.3564 86.8219V86.8162L87.3676 86.7884L87.3733 86.7605L87.3842 86.7272L87.3954 86.6994V86.6937L87.4069 86.6661L87.4126 86.6325L87.4238 86.6047L87.4347 86.5714L87.4402 86.5384L87.4514 86.5103L87.4626 86.4773L87.4735 86.444L87.4847 86.4162V86.4104L87.4901 86.3826L87.5013 86.3493L87.5125 86.3163L87.5234 86.283L87.5343 86.2497L87.5455 86.2164L87.5567 86.1831L87.5624 86.1501L87.5733 86.1166L87.5842 86.0836L87.5954 86.0503L87.6066 86.0113L87.6175 85.978L87.6284 85.9447L87.6396 85.9117L87.6508 85.8726L87.668 85.8394L87.6789 85.8064L87.6901 85.7673L87.7013 85.734L87.7122 85.6953L87.7231 85.662L87.7401 85.623L87.7513 85.5897L87.7622 85.5507L87.7731 85.5119L87.79 85.4786V85.4729L87.8009 85.4396L87.8121 85.4009L87.8287 85.3618L87.8399 85.3286V85.3228L87.8508 85.2898L87.8675 85.2505L87.8787 85.2118L87.8953 85.173L87.9065 85.1343L87.9237 85.095L87.9349 85.0562L87.9513 85.012L87.9682 84.9727L87.9794 84.934L87.996 84.8952L88.0127 84.8559V84.8505L88.0239 84.8114L88.0405 84.7727L88.0572 84.7337V84.7279L88.0741 84.6889L88.0907 84.6502L88.1016 84.6057L88.1186 84.5615C88.2575 84.2174 88.6512 84.0401 89.0013 84.1729C89.1841 84.245 89.323 84.3896 89.3896 84.5615L89.4005 84.6005L89.4174 84.6396L89.434 84.6783L89.4455 84.7173L89.4624 84.7561L89.4733 84.7951L89.49 84.8341L89.5069 84.8671V84.8729L89.5181 84.9064L89.529 84.9452L89.5457 84.9839L89.5568 85.0175L89.5735 85.0562L89.5844 85.095L89.5956 85.1285L89.6125 85.1673L89.6234 85.2003L89.6343 85.2393L89.6513 85.2726L89.6622 85.3116L89.6734 85.3449L89.6843 85.3782L89.7018 85.4172L89.7127 85.4502L89.7236 85.4832L89.7348 85.5225L89.746 85.5555L89.7569 85.5888L89.7678 85.6221L89.779 85.6554L89.7902 85.6944L89.8011 85.7274L89.812 85.761L89.8232 85.794L89.8343 85.827L89.8455 85.8603L89.8564 85.8939L89.8673 85.9272L89.8785 85.9602L89.8897 85.988V85.9935L89.9006 86.0216L89.9115 86.0549L89.9173 86.0882L89.9285 86.1212L89.9397 86.1493V86.155L89.9509 86.1826L89.962 86.2159L89.9678 86.2491L89.979 86.277L89.9899 86.3103L90.0008 86.3378V86.3436L90.0065 86.3714L90.0177 86.405L90.0289 86.4328L90.0398 86.4658L90.0453 86.4936L90.0565 86.5269L90.0676 86.5551L90.0734 86.5826V86.5883L90.0843 86.6162L90.0952 86.644V86.6498L90.1009 86.6776L90.1121 86.7054L90.1233 86.733L90.1451 86.8165L90.173 86.8994L90.1951 86.9829L90.2235 87.0607L90.2456 87.1382L90.2734 87.2159V87.2217L90.2955 87.294L90.3176 87.3715L90.3454 87.4492L90.3675 87.5213L90.3954 87.5933L90.4175 87.6656L90.4453 87.7379L90.4677 87.8045V87.8102L90.4955 87.8762L90.5176 87.9428L90.5454 88.0094L90.5733 88.076L90.6011 88.1423L90.629 88.2088L90.6565 88.2697L90.6846 88.3363L90.7182 88.3974L90.7457 88.4585L90.779 88.5196L90.8069 88.5807L90.8399 88.6361L90.8732 88.6973L90.9122 88.7526L90.9452 88.808L90.9788 88.8691L91.0178 88.9245L91.0565 88.9745L91.0956 89.0298L91.1398 89.0852L91.1785 89.1352L91.2233 89.1908L91.2674 89.2405L91.3174 89.2904L91.3616 89.3409L91.4115 89.3906L91.4614 89.4408L91.5174 89.485L91.567 89.5349L91.6224 89.5794L91.6833 89.6293L91.7392 89.6735L91.8001 89.718L91.8609 89.7622L91.9275 89.8064L91.9943 89.8511L92.0606 89.8953L92.1327 89.9395L92.2047 89.9837L92.277 90.0228L92.3548 90.0669L92.4323 90.106L92.5158 90.145L92.599 90.1892L92.6819 90.2282L92.7714 90.267L92.8601 90.306L92.9542 90.345L93.0489 90.3838C93.2317 90.4561 93.3594 90.595 93.4315 90.7611L94.9966 94.6349L95.0023 94.6464V94.6573L95.0078 94.663L95.0135 94.6742V94.6854L95.019 94.6963V94.7072L95.0247 94.7129V94.7241L95.0307 94.735V94.7459V94.7571L95.0365 94.7683V94.774V94.7798V94.7855L95.0422 94.7967V94.8076V94.8185V94.8243V94.83V94.8357V94.8415L95.0479 94.8472V94.8581V94.869V94.8802V94.8914V94.8969V94.9084V94.9193V94.9304L95.0422 94.9413V94.9471V94.9528V94.9586L95.5298 96.1687H132L126.55 89.9134H126.511H126.499H126.489H126.483H126.477H126.472H126.46V89.9077H126.449H126.444H126.438H126.432H126.427L126.421 89.9019H126.415H126.41H126.404L126.393 89.8965H126.387H126.371L126.365 89.8907H126.354L126.343 89.885H126.337H126.331L126.326 89.8793H126.32H126.314L126.309 89.8735H126.298L126.287 89.8678L126.281 89.8623H126.275H126.27L126.264 89.8566H126.258L126.253 89.8511H126.241V89.8454H126.235L126.23 89.8397H126.224L126.218 89.8339L126.207 89.8282H126.196V89.8181H126.191L126.185 89.8124H126.179L126.173 89.8067L126.068 89.7455L126.046 89.7292L125.963 89.6787L125.913 89.6511L125.857 89.6178L125.547 89.4348L125.53 89.429L125.441 89.3791L125.124 89.2069L125.019 89.1567L125.014 89.1512L124.919 89.1013L124.886 89.0844L124.814 89.0453L124.758 89.0175L124.708 88.9954L124.63 88.9564L124.603 88.9455L124.497 88.8953L124.392 88.8453L124.37 88.8344L124.286 88.7954L124.242 88.773L124.181 88.7512L124.114 88.7179L124.081 88.7013L123.987 88.662L123.976 88.6562L123.87 88.612L123.854 88.6063L123.765 88.5675L123.726 88.5509L123.659 88.5231L123.598 88.5007L123.554 88.484L123.471 88.4507L123.454 88.4398L123.349 88.4008H123.343L123.243 88.3618L123.215 88.3509L123.137 88.3231L123.087 88.301L123.032 88.284L122.955 88.2562L122.926 88.245L122.826 88.2117H122.821L122.721 88.1787L122.699 88.1675L122.615 88.1397L122.571 88.1285L122.51 88.1064L122.444 88.0843L122.404 88.0734L122.315 88.0456H122.299L122.199 88.0123H122.182L122.093 87.9841L122.054 87.9732L121.988 87.9566L121.926 87.9397L121.882 87.923L121.799 87.9061L121.777 87.9003L121.671 87.8725L121.571 87.845L121.544 87.8392L121.466 87.8223L121.416 87.8057L121.36 87.7947L121.288 87.7778L121.255 87.7721L121.155 87.7497H121.149L121.049 87.7279L121.027 87.7221L120.944 87.7052L120.899 87.6995L120.838 87.6886L120.772 87.6719L120.733 87.6662L120.644 87.6493H120.627L120.527 87.6323L120.516 87.6269L120.422 87.6157L120.388 87.6102L120.316 87.599L120.261 87.5878L120.211 87.5821L120.106 87.5712L120.006 87.5546H120H119.994L119.795 87.5325L119.745 87.5267L119.689 87.5207L119.49 87.4986H119.484V90.6679C119.484 91.0449 119.179 91.3505 118.801 91.3505H117.081H117.059H117.042H117.025H117.008L116.991 91.3448H116.975L116.958 91.3393H116.941L116.925 91.3336L116.908 91.3276H116.891L116.874 91.3218L116.858 91.3164L116.84 91.3107L116.829 91.3052L116.813 91.2995L116.796 91.2883L116.779 91.2825L116.768 91.2768L116.751 91.2659L116.74 91.2601H116.735L116.724 91.2492L116.707 91.2435L116.696 91.2323L116.685 91.2266H116.679L116.668 91.2157L116.657 91.2048L116.646 91.1933H116.64L116.629 91.1824L116.618 91.1712L116.607 91.16L116.596 91.1491L116.584 91.1382L116.573 91.127H116.568L116.562 91.1158L116.551 91.0992L116.54 91.0883L116.529 91.0768L116.518 91.0601L116.512 91.0489L116.501 91.038L116.496 91.0214H116.49L116.484 91.0045L116.478 90.9933H116.473L116.467 90.9769L116.461 90.9657L116.456 90.9488H116.45L116.444 90.9319L116.439 90.9152L116.433 90.9043L116.427 90.8874L116.422 90.8707L116.416 90.8541V90.8372H116.41V90.8202L116.405 90.8036V90.7869H116.399V90.77V90.7534L116.393 90.7367V90.7198V90.7032V90.6951H116.406ZM89.3881 107.651V105.114L88.0672 105.12V107.651H89.3881ZM87.7455 103.81C87.7785 103.799 87.8175 103.799 87.8508 103.799L87.9343 103.793C88.1949 103.776 88.4558 103.76 88.7112 103.754H88.7281H88.739H88.7556H88.7668H88.7835H88.8001H88.8113H88.828H88.8558H88.867H88.8836H88.8945H88.9115H88.9281H88.9396H88.9565H88.9674H88.9841H88.9953H89.0122H89.0231H89.0397H89.0509H89.0676H89.0842H89.0954H89.1121H89.123H89.1399H89.1511H89.1786H89.1961H89.207H89.2237H89.2406H89.2515H89.2957H89.3066H89.3235H89.3347H89.3514H89.3623H89.3792H89.3901H89.3959L89.4068 103.76H89.418H89.4349H89.4461H89.463H89.4742H89.4908H89.5459H89.5571H89.5738H89.585H89.6016L89.6128 103.766H89.6237H89.6295C91.7389 103.849 93.8697 104.365 95.9731 105.375L94.6634 102.134C94.5971 101.962 94.5971 101.757 94.6855 101.579C94.7911 101.368 94.9963 101.235 95.2127 101.207L93.9583 98.0934C93.8866 97.9209 93.8923 97.7157 93.9807 97.5378C94.0809 97.3326 94.2697 97.2049 94.4746 97.1717L94.4579 97.1217L94.4522 97.1108L94.4467 97.0996L93.6255 95.0739V95.0682V95.0624L93.6197 95.0567V95.051V95.0452L93.614 95.0398V95.034V95.0283L93.6085 95.0114L93.6028 95.0056V95.0002V94.9944L93.597 94.9887V94.9775V94.9666H93.5913V94.9557V94.95L93.5856 94.9442V94.9385V94.9273V94.9164L93.5798 94.9055V94.8943V94.8831V94.8774L93.5744 94.8662V94.855V94.8332V94.7941V94.7832V94.772V94.7608L93.5798 94.7497V94.7385L92.2813 91.5253L92.1648 91.4754L92.0595 91.4309L91.9539 91.381L91.8486 91.3307L91.749 91.2808L91.6485 91.2257L91.5544 91.1755L91.4597 91.1256L91.3711 91.0756L91.2824 91.0202L91.1989 90.9703L91.1156 90.9149L91.0379 90.8595L90.9601 90.8093V90.8036L90.8823 90.7537L90.8103 90.698L90.7383 90.6429L90.6657 90.582L90.5994 90.5264L90.5331 90.4713L90.472 90.4099L90.4106 90.3548V90.349L90.3497 90.2934L90.2886 90.2325L90.2332 90.1714L90.183 90.1103H90.1773L90.1276 90.0491L90.0777 89.9826L90.0278 89.9214L89.9778 89.8552L89.9331 89.7938L89.9273 89.7883L89.8831 89.7275L89.8389 89.6609L89.8002 89.5886L89.756 89.522L89.717 89.4557L89.6722 89.3834L89.6389 89.3114L89.6002 89.239L89.5614 89.1667L89.5282 89.095L89.4894 89.0227L89.4561 88.9449L89.4225 88.8671L89.3893 88.7894L89.356 88.7116L89.3284 88.6338L89.2951 88.5561L89.2673 88.4729L89.2343 88.3893L89.2065 88.3064L89.1726 88.2229L89.145 88.1397L89.1172 88.0507L89.0894 87.9675V87.9621L89.0615 87.8785V87.8728L89.0283 87.7841L89.0007 87.6952L88.9729 87.6062V87.6005L88.945 87.5115L88.9115 87.4174L88.8836 87.323V87.3172L88.8558 87.2228L88.8228 87.1227L88.7562 86.9011L88.6561 87.234L88.6228 87.3284V87.3342L88.5952 87.4283L88.5671 87.5224L88.5396 87.6117V87.6171L88.5117 87.7061L88.4839 87.7953L88.4509 87.884L88.4225 87.973L88.3946 88.0562L88.3668 88.1394L88.339 88.2226L88.3114 88.3061L88.2833 88.389L88.2557 88.4668L88.2279 88.5446L88.1946 88.6224L88.1665 88.6947V88.7004L88.1332 88.7722L88.1054 88.8445L88.0724 88.9168V88.9222L88.0391 88.9888L88.0058 89.0611L87.9728 89.1332L87.9398 89.1997L87.9002 89.2663L87.8669 89.3329L87.8282 89.3989L87.7894 89.4655L87.7507 89.532L87.6675 89.6597L87.5782 89.7817L87.5283 89.8431L87.4841 89.904L87.3839 90.0259L87.2729 90.1424L87.1621 90.2538L87.1007 90.3146L87.0396 90.37H87.0338L86.973 90.4254L86.9067 90.481L86.8399 90.5361L86.7678 90.5918L86.6958 90.6472L86.6177 90.7029L86.5403 90.758L86.4625 90.8131L86.3787 90.8636L86.2958 90.9187L86.1181 91.03L86.024 91.0796L85.9299 91.1353L85.8294 91.1907L85.7296 91.2461L85.624 91.296L85.5189 91.3514L85.4079 91.4068L85.2966 91.4622L85.1746 91.5176L83.8703 94.7477V94.7588V94.77V94.7812V94.787V94.7924V94.7982L83.8761 94.8091V94.8203V94.8314V94.8423H83.8703V94.8481V94.8535V94.8593V94.8705V94.8817V94.8929V94.904V94.9149H83.8649V94.9259L83.8591 94.954L83.8477 95.0036V95.0148L83.8365 95.0372V95.0426V95.0484L83.8307 95.0541L83.825 95.0653V95.0762L83.0203 97.0689L83.0149 97.0798L82.9925 97.1295L82.9868 97.1407L82.9426 97.2629L83.0809 97.3016C83.4313 97.4405 83.5971 97.8345 83.4585 98.1844L82.1985 101.303L82.3709 101.348C82.7205 101.486 82.8872 101.886 82.748 102.236L81.4271 105.499C83.5274 104.571 85.6366 103.982 87.7455 103.81ZM55.921 24.3491L45.226 42.6033C45.032 42.9253 44.6157 43.0306 44.294 42.8418L39.9536 40.3001L28.4589 64.8151C28.3039 65.1425 27.9208 65.292 27.5877 65.1589L19.8063 62.0065L12.3196 79.4397C12.2528 79.5892 12.1417 79.706 12.014 79.7723L6.30884 83.3132L3.3726 89.0913L5.21005 86.516C5.28208 86.4047 5.38165 86.3163 5.50964 86.2549L11.2206 83.7408L18.8573 71.0864C19.0128 70.8368 19.3291 70.7033 19.6287 70.7868L27.5492 73.0679L39.06 55.6126C39.2267 55.313 39.5926 55.1799 39.9146 55.3131L44.4326 57.2001L55.4719 43.8074C55.5273 43.7351 55.5938 43.6743 55.6768 43.6243C55.999 43.4301 56.4148 43.5411 56.6094 43.8628L58.7298 47.443L61.0663 46.8323C61.3271 46.76 61.6101 46.8493 61.7768 47.0711L69.3854 56.9668L73.4426 56.3453C73.6592 56.3174 73.8868 56.3895 74.0426 56.5616L82.8453 66.0579L85.5422 62.7168L85.5531 62.7056L85.5643 62.6944L86.4246 61.6286L73.2319 41.6153L69.2356 42.4702C68.9194 42.5365 68.6083 42.3758 68.4755 42.0928L60.9274 28.2895L58.6351 29.1328C58.2856 29.2605 57.8913 29.0775 57.7639 28.7276L55.921 24.3491ZM-0.00183105 96.1621H21.2939L22.1766 93.9806L22.1649 93.986H22.1537H22.1425H22.1258H22.1146H22.1035H22.0923H22.0756H22.0656L22.0544 93.9806H22.0432H22.032H22.0263H22.0151L22.0039 93.9748H21.9927H21.9815L21.9703 93.9691H21.9591H21.9534L21.9422 93.9634L21.931 93.9576H21.9198L21.908 93.9519L21.8968 93.9464H21.8856L21.8745 93.9407H21.869L21.8633 93.9352H21.8578L21.8466 93.9295L21.8354 93.9238H21.8242L21.813 93.918L21.8019 93.9068L21.7907 93.9014L21.7795 93.8956L21.774 93.8899H21.7683L21.7628 93.8845H21.7571L21.7513 93.8787H21.7459L21.7402 93.8727L21.729 93.867L21.7178 93.856L21.7066 93.8503L21.6954 93.8446L21.6899 93.8334L21.6787 93.8279L21.6676 93.8222L21.6618 93.8113H21.6558L21.6501 93.8001L21.6389 93.7943L21.6334 93.7834H21.6277L21.6222 93.7777L21.611 93.7668L21.6053 93.7556L21.5941 93.7499L21.5884 93.7387L21.5772 93.7275L21.5717 93.7163L21.566 93.7054H21.5605L21.5548 93.6999L21.5493 93.6887L21.5381 93.6776L21.5324 93.6666L21.5269 93.6555L21.5212 93.6446L21.5157 93.6334L21.51 93.6222H21.5046V93.611L21.4988 93.5998L21.4931 93.5943L21.4876 93.5834V93.5777L21.4819 93.5665L21.4764 93.5608V93.5499L21.4707 93.5387V93.5332H21.4652V93.522L21.4595 93.5163V93.5051V93.4942H21.4541V93.4882L21.4483 93.4773V93.4663V93.4606L21.4429 93.4494V93.4437V93.4328H21.4371V93.4219V93.4161V93.4049V93.3937H21.4317V93.388V93.3771V93.3662V93.3602V93.3493V93.3435L21.4259 93.3323V93.3211V93.2769V93.266H21.4317V93.2603V93.2494V93.2437V93.2325V93.2213V93.2155L21.4371 93.2043V93.1934V93.188V93.1768L21.4429 93.1711V93.1599V93.1544L21.4483 93.1432V93.1323V93.1266H21.4541V93.1154V93.1096H21.4595V93.0985V93.0927H21.4652V93.0818V93.0709H21.4707V93.0652L21.4764 93.054V93.0482L23.0803 89.0855C23.0582 88.9578 23.0745 88.8356 23.1245 88.7191L25.0007 84.0848C25.0672 83.913 25.2001 83.7853 25.3556 83.7129L25.4779 83.6576L25.5999 83.6025L25.7161 83.5468L25.8329 83.4917L25.9436 83.436L26.0495 83.3806L26.1548 83.3307L26.255 83.2753L26.3549 83.2199L26.449 83.1645L26.5437 83.1092L26.6324 83.0538L26.721 83.0038L26.8045 82.9482V82.9427L26.8878 82.8928L26.9652 82.8374L27.0433 82.782L27.115 82.7266L27.1871 82.671L27.2597 82.6101L27.326 82.5545L27.3925 82.4994L27.4534 82.4437L27.5148 82.3829L27.5756 82.3275L27.631 82.2663L27.6864 82.2052L27.7418 82.1498L27.792 82.0887L27.8419 82.0276L27.8919 81.9665L27.9415 81.8999L27.986 81.8391L28.0307 81.7776L28.0752 81.7116L28.114 81.6451L28.1527 81.5785L28.1914 81.5119L28.2302 81.4456L28.2695 81.379L28.3028 81.3067L28.3415 81.2347L28.3748 81.1624L28.4081 81.0904L28.4414 81.0183L28.4692 80.946L28.4747 80.9403L28.5025 80.8682L28.5364 80.7905L28.5642 80.7127L28.5975 80.6349V80.6292L28.625 80.5514L28.6529 80.4682L28.6807 80.385H28.6862L28.714 80.3018L28.7418 80.2186V80.2128L28.77 80.1293L28.7975 80.0406L28.8254 79.9517V79.9462L28.8532 79.857H28.8586L28.8865 79.7628L28.9143 79.6687L28.9419 79.574H28.9476L28.9751 79.4742L29.003 79.374L29.0142 79.3407V79.335L29.0259 79.302L29.0371 79.2684L29.0483 79.2297L29.0595 79.1967V79.1909L29.0707 79.1579L29.0819 79.1186H29.0876L29.0931 79.0856L29.0988 79.0799L29.1043 79.0466H29.11L29.1212 79.0076L29.1324 78.9688L29.1436 78.9298L29.1548 78.8965V78.8908L29.166 78.8578V78.852L29.1772 78.8187V78.813L29.1884 78.7797L29.1941 78.7743L29.2053 78.741V78.7352L29.2165 78.7019V78.6962L29.2277 78.6575L29.2389 78.6184H29.2446L29.2558 78.5794L29.267 78.5407V78.5349L29.2782 78.5016V78.4959L29.2897 78.4572H29.2954L29.3066 78.4181L29.3178 78.3736L29.3344 78.3349L29.3456 78.2962V78.2904L29.3623 78.2511L29.3735 78.2124V78.2066L29.3846 78.1679H29.3904L29.4016 78.1234L29.4182 78.0844V78.0789L29.4294 78.0399L29.4461 77.9957L29.4573 77.9512L29.4739 77.907L29.4905 77.868V77.8623L29.5017 77.8235V77.8178L29.5184 77.7791V77.7733L29.5356 77.734V77.7285L29.5522 77.6895L29.5634 77.6453V77.6396L29.5801 77.5954L29.5967 77.5512L29.6134 77.507L29.63 77.4622L29.6466 77.4123L29.6633 77.3681L29.6799 77.3236L29.6966 77.274L29.7132 77.2292L29.7299 77.1793L29.7465 77.1351L29.7632 77.0852L29.7798 77.0352L29.8025 76.991L29.8191 76.9405L29.8358 76.8909L29.8579 76.8407L29.8745 76.7907L29.8911 76.7408L29.9132 76.6909L29.9299 76.6409C30.0688 76.2911 30.4625 76.1192 30.8126 76.2524C30.9954 76.3241 31.1346 76.4685 31.2009 76.6409L31.2175 76.6909L31.2341 76.7351L31.2508 76.7793L31.2674 76.8237L31.2841 76.874L31.3007 76.9182L31.3234 76.9623L31.3346 77.0068L31.3512 77.051L31.3679 77.0952L31.3845 77.1397L31.4012 77.1839L31.4178 77.2281L31.4344 77.2728L31.4511 77.317L31.4677 77.3558L31.4789 77.4003L31.4956 77.4445L31.5122 77.4886L31.5234 77.5277L31.54 77.5719L31.5567 77.6161L31.5682 77.6554L31.5848 77.6996L31.596 77.7383L31.6127 77.7831L31.6238 77.8218H31.6293L31.6405 77.866L31.6517 77.905L31.6683 77.9441L31.6795 77.9883L31.6962 78.0273L31.7073 78.066L31.724 78.1051V78.1108L31.7352 78.1495L31.7464 78.1886L31.7576 78.2276L31.7742 78.2663L31.7854 78.3054L31.7966 78.3441L31.8078 78.3831H31.8135L31.825 78.4221L31.8362 78.4609L31.8474 78.4999L31.8586 78.5389L31.8752 78.5777L31.8864 78.6167L31.8976 78.65V78.6557L31.9088 78.689L31.92 78.7278L31.9312 78.7668L31.9424 78.8001V78.8058L31.9536 78.8388L31.9648 78.8776L31.976 78.9111L31.9814 78.9169L31.9871 78.9499H31.9926L31.9983 78.9832L32.0041 78.9886L32.0095 79.0222L32.0207 79.0552L32.0265 79.0609L32.0319 79.0942H32.0376L32.0431 79.1275L32.0488 79.1332L32.0543 79.1665L32.0655 79.1998L32.0767 79.2328V79.2386L32.1105 79.3384L32.1384 79.4386H32.1438L32.1717 79.5387L32.1995 79.6329L32.205 79.6386L32.2328 79.7327L32.2606 79.8274L32.2939 79.9215L32.3215 80.0157L32.3499 80.1049L32.3832 80.1936V80.1993L32.4107 80.2825V80.288L32.444 80.3715V80.3772L32.4715 80.4605L32.5048 80.5437V80.5494L32.5381 80.6326L32.5657 80.7159L32.5995 80.7936V80.7997L32.6328 80.8771L32.6661 80.9606L32.6994 81.0381L32.7327 81.1159L32.7714 81.1937L32.8047 81.2654V81.2711L32.844 81.3435L32.8828 81.4212L32.9215 81.4935L32.9602 81.5656L32.999 81.6379L33.0432 81.7045L33.0874 81.7762L33.1321 81.8428L33.1763 81.9094L33.2263 81.9759L33.2762 82.0422L33.3261 82.1088L33.3763 82.1751L33.4317 82.2365L33.4817 82.2973L33.5425 82.3585V82.3642L33.5979 82.4196V82.4253L33.6593 82.4864L33.7201 82.5418L33.7864 82.603L33.8527 82.6583L33.9196 82.7195L33.9916 82.7748L34.0636 82.8302L34.1362 82.8856L34.2137 82.941L34.2915 82.9964L34.375 83.0518L34.4582 83.1017L34.5469 83.1571L34.6361 83.207L34.7248 83.2624L34.8189 83.3123L34.9191 83.3626L35.0132 83.4125L35.1185 83.4627L35.2241 83.5126L35.3294 83.5626L35.4408 83.6068L35.557 83.6567L35.6738 83.7009C35.8511 83.7732 35.9846 83.9178 36.0509 84.084L37.9328 88.7294L37.9382 88.7406V88.7515L37.944 88.7627L37.9494 88.7736V88.7793H37.9552V88.7963L37.9606 88.802V88.8189L37.9664 88.8298V88.8407V88.8465H37.9721V88.8634V88.8743V88.8852H37.9776V88.8964V88.9076V88.9185V88.93V88.9409H37.9833V88.9518V88.963V88.9742V88.9851V88.9963V89.0072V89.0184L37.9776 89.0296V89.0405V89.0519V89.0629V89.0738L37.9721 89.0849L39.576 93.0477C39.7149 93.3975 39.5427 93.7915 39.1989 93.9304L39.1877 93.9358L39.1759 93.9416H39.1705L39.1593 93.947H39.1481V93.9527H39.1369H39.1257L39.1203 93.9585H39.1091V93.9642H39.0979H39.0867L39.0809 93.97H39.0755H39.0698H39.0643H39.0586L39.0474 93.9757H39.0362H39.0304H39.0192L39.0081 93.9812H38.9969H38.9857H38.9802H38.969H38.9578H38.9466H38.9355H38.9294H38.9182H38.907H38.8959H38.8901H38.8789L39.7616 96.1627H56.018L70.1092 86.25L70.6309 78.7909V78.7797V78.7688V78.7573L70.6363 78.7519V78.7461V78.7295V78.7183L70.642 78.7074V78.6962L70.6478 78.6741L70.6535 78.6629V78.652L70.659 78.6351L70.665 78.6184V78.6127L70.6707 78.607L70.6762 78.5958V78.5849L70.6819 78.5739L70.6877 78.5628L70.6934 78.5516L70.6992 78.5407L70.7046 78.5298L70.7103 78.5186L70.7161 78.5128V78.5071L70.7218 78.5013L70.7273 78.4902L70.733 78.479L70.7388 78.4681L70.7445 78.4623L70.75 78.4514L70.7557 78.4402L75.2458 71.6466L75.2516 71.6357L75.257 71.6302V71.6245L75.2682 71.6187L75.274 71.6076L75.2794 71.5967L75.2852 71.5909L75.2964 71.58L75.3021 71.5743L75.3075 71.5631L75.3187 71.5573L75.3245 71.5464L75.3299 71.5407L75.3411 71.5292L75.3469 71.5238L75.3578 71.518L75.3635 71.5071L75.3744 71.5014L75.3802 71.4956L75.3859 71.4899H75.3916V71.4842L75.3974 71.4787L75.4083 71.473L75.414 71.4675L75.4249 71.4618L75.4361 71.456L75.4418 71.4503H75.4473L75.453 71.4446L75.4642 71.4388L75.4697 71.4331L75.4754 71.4276H75.4812L75.4869 71.4219L75.4984 71.4164L75.5096 71.4107L80.8985 68.4687L81.9918 67.1203L73.3005 57.7405L69.2046 58.3621C68.9329 58.4063 68.672 58.2788 68.5328 58.0679L60.9848 48.25L58.5817 48.8827C58.2821 48.9605 57.9771 48.8216 57.827 48.5662L55.9396 45.3803L45.1727 58.445C44.9726 58.6835 44.651 58.75 44.3846 58.6393L39.9166 56.7746L28.417 74.2241C28.2448 74.4853 27.9228 74.5906 27.6399 74.4962L19.7644 72.226L12.2832 84.6195C12.2051 84.7414 12.0998 84.8358 11.9721 84.8915L6.23911 87.422L-0.00183105 96.1621Z" fill="#464C54"/>
  </g>
  <defs>
    <clipPath id="clip0_119_72">
      <rect width="132" height="132" fill="white"/>
    </clipPath>
  </defs>
</svg>
