<svg width="94" height="94" viewBox="0 0 94 94" fill="none"
  xmlns="http://www.w3.org/2000/svg">
  <path d="M69.56 23.5V41.266C64.7611 40.7837 60.331 38.4754 57.1861 34.8186C54.0413 31.1618 52.4221 26.4362 52.6636 21.6191C52.905 16.802 54.9886 12.262 58.4834 8.93795C61.9782 5.61395 66.6169 3.76025 71.44 3.76025C76.2631 3.76025 80.9018 5.61395 84.3966 8.93795C87.8914 12.262 89.975 16.802 90.2164 21.6191C90.4579 26.4362 88.8387 31.1618 85.6939 34.8186C82.549 38.4754 78.119 40.7837 73.32 41.266V31.02L80.088 25.944C80.4869 25.6449 80.7506 25.1995 80.8211 24.7059C80.8916 24.2123 80.7632 23.7109 80.464 23.312C80.1648 22.9131 79.7195 22.6494 79.2259 22.5789C78.7323 22.5084 78.2309 22.6369 77.832 22.936L73.32 26.32V15.04C73.32 14.5414 73.1219 14.0632 72.7694 13.7107C72.4168 13.3581 71.9386 13.16 71.44 13.16C70.9414 13.16 70.4632 13.3581 70.1106 13.7107C69.7581 14.0632 69.56 14.5414 69.56 15.04V18.8L65.048 15.416C64.8505 15.2679 64.6258 15.1601 64.3866 15.0988C64.1474 15.0376 63.8985 15.024 63.6541 15.0589C63.1605 15.1294 62.7152 15.3931 62.416 15.792C62.1168 16.1909 61.9884 16.6923 62.0589 17.1859C62.1294 17.6795 62.3931 18.1249 62.792 18.424L69.56 23.5ZM73.32 86.48H80.2743C79.7958 85.5753 79.0407 84.8471 78.1191 84.4017C77.8977 84.2917 77.7001 84.139 77.5378 83.9525C77.3754 83.7659 77.2515 83.5492 77.173 83.3147C77.0945 83.0802 77.0631 82.8325 77.0804 82.5858C77.0978 82.3392 77.1637 82.0983 77.2743 81.8772C77.3849 81.656 77.538 81.4588 77.7249 81.2969C77.9118 81.1349 78.1289 81.0115 78.3636 80.9336C78.5983 80.8557 78.846 80.8248 79.0927 80.8428C79.3393 80.8607 79.58 80.9272 79.8009 81.0383C80.9324 81.5929 81.9288 82.3884 82.72 83.3691C83.5113 82.3884 84.5076 81.5929 85.6391 81.0383C86.085 80.8167 86.6005 80.781 87.0727 80.939C87.5449 81.097 87.9351 81.4358 88.1577 81.8811C88.3804 82.3265 88.4173 82.8419 88.2605 83.3145C88.1036 83.787 87.7657 84.178 87.3209 84.4017C86.3989 84.8466 85.6435 85.5749 85.1651 86.48H88.36C88.8586 86.48 89.3368 86.6781 89.6894 87.0307C90.0419 87.3832 90.24 87.8614 90.24 88.36C90.24 88.8586 90.0419 89.3368 89.6894 89.6894C89.3368 90.042 88.8586 90.24 88.36 90.24H5.64001C5.1414 90.24 4.66322 90.042 4.31065 89.6894C3.95808 89.3368 3.76001 88.8586 3.76001 88.36C3.76001 87.8614 3.95808 87.3832 4.31065 87.0307C4.66322 86.6781 5.1414 86.48 5.64001 86.48H7.52001V77.08H5.64001C5.1414 77.08 4.66322 76.882 4.31065 76.5294C3.95808 76.1768 3.76001 75.6986 3.76001 75.2C3.76001 74.7014 3.95808 74.2232 4.31065 73.8707C4.66322 73.5181 5.1414 73.32 5.64001 73.32H7.52001V48.88C7.52001 48.3814 7.71808 47.9032 8.07065 47.5507C8.42322 47.1981 8.9014 47 9.40001 47C9.89862 47 10.3768 47.1981 10.7294 47.5507C11.0819 47.9032 11.28 48.3814 11.28 48.88V50.76H52.64V48.88C52.64 48.3814 52.8381 47.9032 53.1906 47.5507C53.5432 47.1981 54.0214 47 54.52 47C55.0186 47 55.4968 47.1981 55.8494 47.5507C56.2019 47.9032 56.4 48.3814 56.4 48.88V73.32H58.28C58.7786 73.32 59.2568 73.5181 59.6094 73.8707C59.9619 74.2232 60.16 74.7014 60.16 75.2C60.16 75.6986 59.9619 76.1768 59.6094 76.5294C59.2568 76.882 58.7786 77.08 58.28 77.08H56.4V86.48H69.56V41.266C70.1804 41.3224 70.8008 41.36 71.44 41.36C72.0792 41.36 72.6996 41.3224 73.32 41.266V59.7127L77.8477 55.6581C77.3508 54.7292 77.0873 53.6934 77.08 52.64C77.08 51.3386 77.4659 50.0664 78.1889 48.9844C78.912 47.9023 79.9396 47.0589 81.142 46.5609C82.3443 46.0629 83.6673 45.9326 84.9437 46.1865C86.2201 46.4403 87.3925 47.067 88.3128 47.9873C89.233 48.9075 89.8597 50.0799 90.1136 51.3563C90.3675 52.6327 90.2372 53.9557 89.7391 55.1581C89.2411 56.3604 88.3977 57.3881 87.3157 58.1111C86.2336 58.8341 84.9614 59.22 83.66 59.22C82.5398 59.2127 81.4405 58.9158 80.4689 58.3583L73.32 64.7602V86.48ZM45.12 77.08H18.8V86.48H45.12V77.08ZM52.64 62.04H11.28V65.8H52.64V62.04ZM7.38783 29.4338C8.45907 28.9836 9.64281 28.8735 10.7787 29.1185C11.9146 29.3635 12.9477 29.9517 13.7381 30.8035L12.3246 31.4092C12.0977 31.5065 11.8922 31.6475 11.7198 31.8242C11.5474 32.0009 11.4115 32.2098 11.3199 32.439C11.2282 32.6683 11.1827 32.9133 11.1857 33.1601C11.1888 33.407 11.2405 33.6508 11.3378 33.8777C11.5408 34.3303 11.9118 34.6864 12.3724 34.8705C12.833 35.0547 13.3472 35.0525 13.8063 34.8645L20.7176 31.9022C20.9452 31.8054 21.1514 31.6646 21.3245 31.488C21.4976 31.3113 21.6342 31.1023 21.7263 30.8727C21.8184 30.6432 21.8644 30.3978 21.8615 30.1505C21.8586 29.9032 21.807 29.6589 21.7095 29.4316C21.612 29.2043 21.4707 28.9985 21.2935 28.8259C21.1164 28.6533 20.9069 28.5174 20.6771 28.4259C20.4473 28.3345 20.2017 28.2892 19.9545 28.2928C19.7072 28.2964 19.463 28.3488 19.236 28.447L17.8265 29.0511C17.7498 27.891 18.034 26.7355 18.6401 25.7433C19.2461 24.7511 20.1443 23.9707 21.2115 23.5092C21.4383 23.4119 21.6438 23.2709 21.8162 23.0942C21.9886 22.9175 22.1245 22.7086 22.2161 22.4794C22.3077 22.2502 22.3533 22.0051 22.3503 21.7583C22.3472 21.5115 22.2956 21.2677 22.1983 21.0408C22.101 20.8139 21.96 20.6084 21.7833 20.436C21.6066 20.2637 21.3977 20.1278 21.1685 20.0361C20.9392 19.9445 20.6942 19.8989 20.4474 19.902C20.2006 19.905 19.9568 19.9567 19.7299 20.054C18.3958 20.634 17.2128 21.5128 16.2722 22.6226C15.3316 23.7323 14.6586 25.0434 14.305 26.4545C13.0233 25.771 11.6083 25.3743 10.158 25.2922C8.70772 25.21 7.25692 25.4442 5.90618 25.9785C5.67859 26.0753 5.47234 26.2161 5.29925 26.3927C5.12616 26.5694 4.98963 26.7785 4.89749 27.008C4.80534 27.2375 4.7594 27.4829 4.76228 27.7302C4.76516 27.9775 4.81681 28.2218 4.91428 28.4491C5.01175 28.6764 5.15311 28.8823 5.33027 29.0548C5.50743 29.2274 5.71691 29.3633 5.94669 29.4548C6.17647 29.5463 6.42204 29.5915 6.66933 29.5879C6.91663 29.5843 7.16081 29.5319 7.38783 29.4338ZM26.5862 8.46919C27.6534 8.93059 28.5517 9.71096 29.1578 10.7032C29.7639 11.6954 30.048 12.8509 29.9712 14.0111L28.5617 13.407C28.3348 13.3097 28.091 13.258 27.8442 13.255C27.5973 13.2519 27.3523 13.2975 27.1231 13.3891C26.8939 13.4808 26.685 13.6167 26.5083 13.789C26.3316 13.9614 26.1906 14.1669 26.0933 14.3938C25.996 14.6207 25.9443 14.8645 25.9413 15.1113C25.9382 15.3581 25.9838 15.6031 26.0755 15.8324C26.1671 16.0616 26.303 16.2705 26.4754 16.4472C26.6477 16.6239 26.8532 16.7649 27.0801 16.8622C29.3836 17.8495 31.6942 18.8225 33.9914 19.8244C34.4505 20.0125 34.9647 20.0147 35.4253 19.8305C35.886 19.6464 36.257 19.2903 36.4599 18.8377C36.5572 18.6108 36.6089 18.367 36.612 18.1201C36.6151 17.8733 36.5695 17.6282 36.4778 17.399C36.3862 17.1698 36.2503 16.9608 36.0779 16.7842C35.9055 16.6075 35.7 16.4665 35.4731 16.3692L34.0596 15.7635C34.8421 14.9001 35.8756 14.3036 37.0146 14.0579C38.1537 13.8122 39.3411 13.9297 40.4099 14.3938C40.8678 14.5885 41.3842 14.5938 41.846 14.4084C42.3077 14.223 42.6772 13.8621 42.8733 13.4048C43.0694 12.9474 43.0761 12.431 42.8921 11.9687C42.7081 11.5064 42.3483 11.136 41.8915 10.9385C40.5474 10.3732 39.0915 10.1237 37.6358 10.2093C36.1801 10.2949 34.7635 10.7134 33.4949 11.4324C33.1511 10.0145 32.4816 8.69616 31.5396 7.58205C30.5976 6.46793 29.4089 5.58866 28.0678 5.01398C27.8408 4.91584 27.5967 4.86347 27.3494 4.85986C27.1021 4.85625 26.8565 4.90148 26.6267 4.99295C26.3969 5.08442 26.1875 5.22033 26.0103 5.3929C25.8332 5.56547 25.6918 5.77131 25.5943 5.99861C25.4969 6.22591 25.4452 6.47021 25.4423 6.71751C25.4394 6.96481 25.4854 7.21025 25.5775 7.43977C25.6697 7.66928 25.8062 7.87835 25.9793 8.055C26.1524 8.23165 26.3586 8.37239 26.5862 8.46919Z" fill="#464C54"/>
</svg>
