<svg width="100" height="80" viewBox="0 0 100 80" fill="none"
  xmlns="http://www.w3.org/2000/svg">
  <g clip-path="url(#clip0_31_1920)">
    <path d="M32.3281 38.2969C26.7188 39.9375 22.9375 44.75 23.3281 49.8907C25.1094 47.8907 27.8281 46.1719 31.1406 45.0625L32.3281 38.2969ZM14.9656 46.0782L10.0172 18.0469C9.95938 17.7969 10.0578 17.6407 10.0578 17.6407C19.0813 12.6204 29.2922 9.98599 39.5891 9.98599C39.843 9.98599 40.0755 9.99763 40.3294 9.99763C42.3763 7.88825 45.2903 6.44294 48.395 5.93513C51.3434 5.46638 54.3513 5.232 57.3403 5.11481C55.778 2.92731 53.5169 1.32263 50.8028 0.892939C47.0731 0.287471 43.3184 -0.00268555 39.5888 -0.00268555C27.5981 -0.00268555 15.7763 3.03638 5.19813 8.9145C1.40954 11.0266 -0.602027 15.3907 0.159536 19.7813L5.12032 47.8125C7.34688 60.3907 26.4172 70 37.0734 70C37.6399 70 38.1323 69.9535 38.6406 69.8949C36.5313 67.2183 34.25 63.5668 32.4688 59.3277C25.0156 57.3125 15.8906 51.25 14.9656 46.0782ZM30.2188 24.625C30.0938 23.9688 29.8594 23.3907 29.5781 22.8438C28.2892 24.2305 26.3563 25.3047 24.0703 25.7141C21.7859 26.1047 19.5781 25.7729 17.8984 24.894C17.8203 25.519 17.8008 26.1436 17.918 26.7877C18.5039 30.1861 21.7461 32.4502 25.1445 31.8455C28.5313 31.2657 30.8281 28.0157 30.2188 24.625ZM94.8125 18.9063C80.9266 11.1907 64.9062 8.37817 49.2031 10.8782C44.9219 11.4219 41.5313 14.9766 40.75 19.2344L35.7813 47.4219C33.3797 61.036 50.6766 78.0938 60.5156 79.8125C70.2188 81.5516 92.4688 71.425 94.875 57.8125L99.8359 29.7657C100.609 25.3594 98.5938 21 94.8125 18.9063ZM52.1094 34.0313C52.7148 30.6329 55.9563 28.3672 59.3547 28.9735C62.7531 29.5594 65.0188 32.8 64.4328 36.1797C64.3156 36.8243 64.0813 37.4099 63.7883 37.9766C62.4994 36.5704 60.5664 35.5157 58.2805 35.1063C55.9758 34.6961 53.7883 35.0476 52.1086 35.9069C51.8906 35.2969 52.0156 34.6719 52.1094 34.0313ZM62.9844 65.0782C54.2938 63.5352 48.3766 55.8235 49.0797 47.5625C52.3016 51.5672 57.8688 54.7875 64.625 55.9797C71.3828 57.1711 77.7094 56.0388 82.1094 53.3829C80.0312 61.3594 71.8281 66.6094 62.9844 65.0782ZM83.5 41.4375C82.2111 40.0508 80.2578 38.9766 77.9734 38.5672C75.6891 38.1766 73.5016 38.5085 71.8016 39.3874C71.7234 38.7624 71.7039 38.1377 71.8211 37.4936C72.4266 34.0952 75.668 31.8296 79.0664 32.4358C82.4648 33.0413 84.7305 36.2624 84.1242 39.6608C84 40.2969 83.7656 40.8907 83.5 41.4375Z" fill="#464C54"/>
  </g>
  <defs>
    <clipPath id="clip0_31_1920">
      <rect width="100" height="80" fill="white"/>
    </clipPath>
  </defs>
</svg>
