<svg width="26" height="26" viewBox="0 0 26 26" fill="none"
  xmlns="http://www.w3.org/2000/svg">
  <path d="M5.74199 20.2583C5.95866 20.475 6.17533 20.5833 6.50033 20.5833C6.82533 20.5833 7.04199 20.475 7.25866 20.2583L13.0003 14.5167L18.742 20.2583C18.9587 20.475 19.2837 20.5833 19.5003 20.5833C19.717 20.5833 20.042 20.475 20.2587 20.2583C20.692 19.825 20.692 19.175 20.2587 18.7417L14.517 13L20.2587 7.25833C20.692 6.825 20.692 6.175 20.2587 5.74167C19.8253 5.30833 19.1753 5.30833 18.742 5.74167L13.0003 11.4833L7.25866 5.74167C6.82533 5.30833 6.17533 5.30833 5.74199 5.74167C5.30866 6.175 5.30866 6.825 5.74199 7.25833L11.4837 13L5.74199 18.7417C5.30866 19.175 5.30866 19.825 5.74199 20.2583Z" fill="#FF2400"/>
</svg>
