<svg width="30" height="30" viewBox="0 0 30 30" fill="none"
  xmlns="http://www.w3.org/2000/svg">
  <path d="M26.5388 11.7119C26.5388 5.33962 21.3731 0.173462 15.0004 0.173462C8.62807 0.173462 3.46191 5.33962 3.46191 11.7119C3.46191 14.4373 4.40961 16.9412 5.98961 18.9154L5.98999 18.9169C5.98999 18.9169 5.98922 18.9177 5.98845 18.9177C8.96768 22.6385 13.1781 27.8973 14.5496 29.61C14.6592 29.7465 14.825 29.8262 15 29.8265C15.1754 29.8265 15.3415 29.7473 15.4508 29.6104C16.8215 27.8981 21.0308 22.6415 24.01 18.9204L24.0104 18.9188C24.0104 18.9188 24.0096 18.9181 24.0088 18.9181C25.5904 16.9431 26.5388 14.4392 26.5388 11.7119ZM22.1415 17.5615L15.0004 26.4812L7.92845 17.6488L7.85614 17.5588C7.83499 17.53 7.81345 17.5015 7.79115 17.4735C6.46845 15.8208 5.76961 13.8285 5.76961 11.7119C5.76961 6.62192 9.91076 2.48115 15.0004 2.48115C20.09 2.48115 24.2311 6.62192 24.2311 11.7119C24.2311 13.8296 23.5315 15.8227 22.2073 17.4758C22.185 17.5038 22.1631 17.5323 22.1415 17.5615Z" fill="#FBFBFB"/>
  <path d="M15.0004 15.7504C17.2308 15.7504 19.0388 13.9423 19.0388 11.7119C19.0388 9.48154 17.2308 7.67346 15.0004 7.67346C12.77 7.67346 10.9619 9.48154 10.9619 11.7119C10.9619 13.9423 12.77 15.7504 15.0004 15.7504Z" fill="#FBFBFB"/>
</svg>
