<svg width="32" height="32" viewBox="0 0 32 32" fill="none"
  xmlns="http://www.w3.org/2000/svg">
  <g clip-path="url(#clip0_38_738)">
    <path d="M15.8289 25C11.6095 25 7.6167 23.193 4.58349 19.912C4.21052 19.509 4.23229 18.876 4.63098 18.499C5.03066 18.122 5.6559 18.144 6.02985 18.547C8.68416 21.419 12.1635 23 15.8289 23C20.541 23 24.8801 20.395 27.5423 16C24.8811 11.605 20.541 9 15.8289 9C10.9437 9 6.45822 11.801 3.82865 16.493C3.55956 16.974 2.9541 17.144 2.48023 16.87C2.00437 16.598 1.83817 15.988 2.10726 15.507C5.09199 10.18 10.2225 7 15.8289 7C21.4363 7 26.5658 10.18 29.5506 15.507C29.7217 15.813 29.7217 16.187 29.5506 16.492C26.5658 21.819 21.4363 25 15.8289 25Z" fill="#FBFBFB"/>
    <path d="M15.8293 21C13.1018 21 10.8828 18.757 10.8828 16C10.8828 13.243 13.1018 11 15.8293 11C18.5568 11 20.7759 13.243 20.7759 16C20.7759 18.757 18.5568 21 15.8293 21ZM15.8293 13C14.193 13 12.8614 14.346 12.8614 16C12.8614 17.654 14.193 19 15.8293 19C17.4656 19 18.7973 17.654 18.7973 16C18.7973 14.346 17.4656 13 15.8293 13Z" fill="#FBFBFB"/>
  </g>
  <defs>
    <clipPath id="clip0_38_738">
      <rect width="31.6578" height="32" fill="white"/>
    </clipPath>
  </defs>
</svg>
